<svg width="1217" height="36" viewBox="0 0 1217 36" fill="none" xmlns="http://www.w3.org/2000/svg">
<path fill-rule="evenodd" clip-rule="evenodd" d="M1209.92 1.28328C1209.56 1.33032 1208.7 1.752 1208.26 1.92378C1207.78 2.11068 1206.99 2.29968 1206.68 2.60964L1208.61 12.2772C1209.17 15.3566 1209.61 18.7137 1208.73 21.6092C1206.64 28.5026 1198.28 29.1982 1192.4 28.2544C1190.07 27.8806 62.502 25.0001 57.9222 26.0001L44.1419 24.6143C42.9844 24.4127 41.9768 24.3388 40.7796 24.1548C38.9184 23.8679 37.2007 23.8301 35.4827 23.6277C34.9716 23.5681 34.2794 23.5849 33.6956 23.5135C31.5118 23.2468 26.8843 23.1997 24.4315 23.1842L18.9397 23.4996C17.7584 23.6726 16.9162 23.6361 15.427 23.9095C13.024 24.3509 11.5676 24.5307 9.13931 25.4215C6.57409 26.3606 4.83287 27.3182 2.81516 28.9567C1.15885 30.3019 -1.44097 33.6254 0.994064 35.4692C2.97162 36.9669 8.23571 34.8896 10.3635 34.2146C14.5044 32.869 18.7377 31.8887 23.0223 31.2835C24.7413 31.0197 28.5619 30.6329 30.1082 30.6446L33.7563 30.4972C34.8498 30.3334 39.8167 30.4199 41.3517 30.4136L45.0279 30.6446C47.787 30.6367 54.3614 31.2835 57.9222 31.2835C62.8629 32.5258 1192.47 34.0395 1196.93 34.4356C1198.19 34.5595 1199.45 34.5956 1200.72 34.5443C1201.17 34.5179 1201.1 34.4549 1201.56 34.4288C1202.57 34.3705 1202.83 34.4847 1204.23 34.2524L1207.54 33.6182C1210.27 32.9605 1213.04 31.383 1214.51 28.7164C1215 27.7676 1215.38 26.7479 1215.62 25.687C1216.59 21.8179 1216.27 18.6818 1215.47 14.7623C1215.07 12.7804 1214.51 9.6858 1214.03 7.85208L1212.04 0.166504L1211.83 0.172379C1211.84 0.302579 1211.88 0.429424 1211.93 0.544924C1211.09 0.727204 1210.71 1.30428 1209.92 1.28328Z" fill="#F65D00"/>
</svg>
