<svg width="620" height="448" viewBox="0 0 620 448" fill="none" xmlns="http://www.w3.org/2000/svg">
<path d="M23.9401 96.2555H201.688L217.921 81.8745L264.981 40.1455H50.4398C40.7013 40.1455 32.3784 47.1599 30.7288 56.7577L23.9401 96.2555ZM589.055 56.7577C587.405 47.1599 579.082 40.1455 569.344 40.1455H355.297L402.103 81.8745L418.237 96.2555H595.844L589.055 56.7577ZM52.9284 175.415H10.3509L4.02076 212.237C1.91986 224.458 11.3315 235.625 23.7316 235.625H172.756V175.415H52.9284ZM609.447 175.415H447.028V235.625H596.057C608.456 235.625 617.867 224.461 615.769 212.241L609.447 175.415ZM598.983 114.525H438.727L445.5 123L447.028 157.145H606.308L598.983 114.525ZM52.9284 114.525H20.8009L13.476 157.145H172.756L175 122.5L181.085 114.525H52.9284Z" fill="#F65D00"/>
<path d="M585.125 175.414H609.447L606.308 157.145H447.028V124.162C447.028 122.736 446.419 121.378 445.354 120.429L438.727 114.525H598.983L595.844 96.2552H418.237L402.103 81.8742L355.297 40.1452L323.551 11.8383C315.98 5.08795 304.555 5.07373 296.967 11.8052L265.024 40.1452L217.921 81.8742L201.688 96.2552H23.9119L20.801 114.525H181.085L174.44 120.414C173.369 121.363 172.756 122.725 172.756 124.156V157.145H13.4761L10.3369 175.414H172.756V429.564H72.9285C61.8828 429.564 52.9285 420.61 52.9285 409.564V235.625H34.6588V427.834C34.6588 438.879 43.6131 447.834 54.6588 447.834H228.216V447.904H391.568V447.834H565.125C576.171 447.834 585.125 438.879 585.125 427.834V235.625H566.912V409.564C566.912 420.61 557.958 429.564 546.912 429.564H447.028V175.414H585.125ZM374.599 429.564H245.184V306.535C245.184 303.773 247.423 301.535 250.184 301.535H369.599C372.361 301.535 374.599 303.773 374.599 306.535V429.564ZM430.059 157.145V429.564H391.568V289.566C391.568 286.805 389.33 284.566 386.568 284.566H233.216C230.454 284.566 228.216 286.805 228.216 289.566V429.564H189.725V129.486L206.694 114.482L222.927 100.087L227.297 96.2128L243.53 81.8318L290.59 40.1028L310.26 22.6674L329.83 40.1028L376.636 81.8318L392.77 96.2128L397.125 100.087L413.26 114.482L430.087 129.472L430.059 157.145Z" fill="#7F371C"/>
<path d="M533.22 374.6C535.982 374.6 538.22 372.361 538.22 369.6V282.496C538.22 279.735 535.982 277.496 533.22 277.496H476.759C473.998 277.496 471.759 279.735 471.759 282.496V369.6C471.759 372.361 473.998 374.6 476.759 374.6H533.22ZM488.728 299.465C488.728 296.703 490.967 294.465 493.728 294.465H516.252C519.013 294.465 521.252 296.703 521.252 299.465V352.631C521.252 355.392 519.013 357.631 516.252 357.631H493.728C490.967 357.631 488.728 355.392 488.728 352.631V299.465ZM85.5732 277.496C82.8118 277.496 80.5732 279.735 80.5732 282.496V369.6C80.5732 372.361 82.8118 374.6 85.5732 374.6H142.034C144.796 374.6 147.034 372.361 147.034 369.6V282.496C147.034 279.735 144.796 277.496 142.034 277.496H85.5732ZM130.065 352.631C130.065 355.392 127.827 357.631 125.065 357.631H102.542C99.7806 357.631 97.542 355.392 97.542 352.631V299.465C97.542 296.703 99.7806 294.465 102.542 294.465H125.065C127.827 294.465 130.065 296.703 130.065 299.465V352.631Z" fill="#7F371C"/>
<path d="M309.905 360.192C312.414 360.192 314.897 360.695 317.205 361.67L317.664 361.872C319.949 362.91 322 364.395 323.698 366.238L324.033 366.611L324.041 366.619C324.262 366.866 324.47 367.129 324.69 367.417V367.416C327.373 371.001 330.858 373.908 334.868 375.901L334.879 375.906L334.89 375.912C338.22 377.471 341.075 379.881 343.169 382.894L343.577 383.504C345.568 386.597 346.703 390.157 346.873 393.822L346.895 394.556C346.883 399.008 345.394 403.326 342.668 406.836L342.4 407.172C340.392 409.639 337.889 411.655 335.055 413.089L334.483 413.369C331.606 414.725 328.477 415.46 325.301 415.528L324.665 415.532H296.148C292.966 415.553 289.817 414.905 286.905 413.631L286.326 413.369C283.255 411.922 280.548 409.804 278.403 407.172H278.402C275.508 403.605 273.923 399.154 273.91 394.56C273.964 390.827 275.017 387.176 276.958 383.988C278.899 380.8 281.658 378.189 284.949 376.427L284.95 376.428C288.853 374.341 292.236 371.403 294.849 367.832L294.857 367.82L294.865 367.808C295.15 367.395 295.455 366.995 295.778 366.611C297.429 364.721 299.441 363.183 301.693 362.085L302.146 361.872C304.583 360.764 307.229 360.192 309.905 360.192ZM348.641 345.096C350.791 345.096 352.871 345.837 354.533 347.186L354.86 347.464C356.466 348.895 357.525 350.831 357.869 352.945L357.929 353.37L357.93 353.38C357.964 353.648 357.986 353.918 357.995 354.188L358.001 354.458V362.344C357.931 364.623 357.031 366.793 355.48 368.451L355.161 368.776C353.415 370.469 351.078 371.416 348.646 371.416C346.365 371.415 344.169 370.584 342.465 369.084L342.131 368.776C340.494 367.189 339.497 365.062 339.316 362.799L339.291 362.344V354.459C339.293 354.095 339.314 353.732 339.354 353.37C339.601 351.234 340.577 349.253 342.108 347.757L342.422 347.464C344.134 345.939 346.347 345.096 348.641 345.096ZM271.73 345.096C273.88 345.096 275.96 345.837 277.623 347.186L277.95 347.464C279.556 348.895 280.615 350.831 280.959 352.945L281.019 353.37L281.02 353.38C281.054 353.648 281.076 353.918 281.085 354.188L281.09 354.458V362.375C281.087 363.34 280.935 364.297 280.64 365.213L280.504 365.604L280.503 365.607C279.791 367.537 278.464 369.175 276.732 370.272L276.381 370.485C274.596 371.508 272.527 371.912 270.495 371.641L270.089 371.578C268.064 371.216 266.218 370.198 264.834 368.686L264.563 368.376C263.154 366.694 262.381 364.57 262.381 362.375V354.459C262.383 354.095 262.403 353.731 262.442 353.369L262.443 353.37C262.691 351.234 263.666 349.253 265.197 347.757L265.512 347.464C267.224 345.939 269.437 345.096 271.73 345.096ZM324.35 327.298C326.63 327.298 328.826 328.13 330.53 329.629L330.864 329.939C332.501 331.526 333.5 333.653 333.68 335.916L333.704 336.37V344.261C333.702 345.808 333.316 347.329 332.585 348.688L332.435 348.958C331.657 350.296 330.56 351.419 329.245 352.228L328.979 352.386L328.977 352.387C327.57 353.195 325.976 353.621 324.354 353.621C322.834 353.621 321.337 353.246 319.997 352.534L319.731 352.387L319.728 352.385L319.461 352.228C318.232 351.474 317.193 350.446 316.427 349.224L316.267 348.959C315.487 347.622 315.053 346.113 315 344.569L314.994 344.259V336.37C315.064 334.09 315.964 331.921 317.515 330.263L317.834 329.939C319.58 328.246 321.917 327.298 324.35 327.298ZM296.102 327.298C298.382 327.298 300.578 328.13 302.282 329.629L302.616 329.939C304.253 331.526 305.252 333.653 305.432 335.916L305.456 336.37V344.261C305.452 345.793 305.072 347.298 304.353 348.646L304.204 348.914C303.439 350.241 302.36 351.358 301.064 352.169L300.803 352.328C299.39 353.149 297.787 353.587 296.152 353.597C294.518 353.607 292.91 353.189 291.488 352.384H291.489C290.142 351.619 289.007 350.534 288.185 349.225L288.023 348.96C287.243 347.622 286.806 346.113 286.752 344.568L286.746 344.258V336.37C286.816 334.09 287.716 331.921 289.267 330.263L289.586 329.939C291.223 328.351 293.379 327.419 295.646 327.309L296.102 327.298Z" stroke="#F65D00" stroke-opacity="0.5" stroke-width="2"/>
<path d="M355.493 196.179C355.531 194.496 355.557 193.087 355.596 191.678C355.638 190.147 355.691 188.616 355.743 187.085C355.789 185.701 355.839 184.317 355.89 182.933C355.937 181.66 355.987 180.387 356.037 179.114C356.085 177.914 356.135 176.714 356.186 175.514C356.232 174.45 356.276 173.385 356.333 172.32C356.397 171.11 356.479 169.9 356.545 168.689C356.621 167.313 357.913 166.227 359.241 166.134C360.789 166.026 362.416 167.526 362.452 169.181C362.459 169.462 362.418 169.744 362.399 170.025C362.315 171.296 362.29 172.57 362.248 173.844C362.191 175.608 362.149 177.372 362.1 179.136C362.051 180.937 361.998 182.738 361.956 184.539C361.918 186.181 361.863 187.823 361.809 189.464C361.766 190.762 361.725 192.06 361.66 193.357C361.586 194.813 361.526 196.269 361.386 197.72C361.312 198.491 361.08 199.206 360.592 199.822C359.784 200.842 358.643 201.122 357.473 200.558C356.423 200.052 355.782 199.209 355.528 198.074C355.502 197.955 355.496 197.83 355.495 197.708C355.492 197.107 355.494 196.506 355.494 196.179H355.493Z" fill="#D35C2F"/>
<path d="M258.67 148.578C258.315 145.943 257.215 143.656 255.377 141.741C253.339 139.617 250.789 138.565 247.886 138.344C246.103 138.208 244.337 138.379 242.605 138.844C241.578 139.119 240.6 139.504 239.78 140.204C239.191 140.707 238.796 141.335 238.708 142.114C238.64 142.722 238.616 143.335 238.579 143.946C238.517 144.973 238.466 146.001 238.4 147.027C238.317 148.323 238.222 149.617 238.137 150.912C238.073 151.89 238.021 152.868 237.957 153.846C237.873 155.116 237.779 156.386 237.695 157.657C237.631 158.622 237.579 159.589 237.514 160.554C237.431 161.788 237.337 163.021 237.254 164.254C237.189 165.232 237.14 166.211 237.075 167.188C236.991 168.459 236.896 169.729 236.811 170.999C236.748 171.94 236.696 172.882 236.634 173.823C236.548 175.105 236.454 176.387 236.369 177.67C236.306 178.623 236.253 179.577 236.19 180.53C236.105 181.813 236.013 183.095 235.928 184.378C235.888 184.977 235.862 185.577 235.824 186.176C235.763 187.117 235.694 188.057 235.633 188.997C235.592 189.621 235.566 190.245 235.522 190.868C235.461 191.723 235.395 192.578 235.385 193.436C235.385 193.51 235.387 193.583 235.385 193.657C235.362 194.459 235.432 195.249 235.68 196.016C235.989 196.97 236.536 197.719 237.499 198.104C238.045 198.324 238.613 198.384 239.196 198.341C240.325 198.256 241.619 197.59 241.894 195.965C242.038 195.106 242.156 194.247 242.216 193.38C242.266 192.671 242.278 191.959 242.325 191.251C242.405 190.041 242.501 188.833 242.587 187.624C242.65 186.745 242.701 185.865 242.766 184.985C242.875 183.532 242.993 182.08 243.103 180.627C243.19 179.467 243.266 178.307 243.357 177.147C243.463 175.793 243.581 174.439 243.692 173.085C243.779 172.023 243.854 170.961 243.949 169.9C244.086 168.388 244.232 166.877 244.381 165.367C244.453 164.636 244.535 163.907 244.653 163.181C244.696 162.921 244.83 162.759 245.043 162.641C245.311 162.492 245.592 162.369 245.882 162.268C246.902 161.912 247.949 161.655 249.008 161.456C250.525 161.17 251.977 160.705 253.327 159.952C255.389 158.805 256.931 157.175 257.844 154.989C258.703 152.932 258.968 150.788 258.67 148.578ZM252.433 150.024C252.318 151.569 251.585 152.785 250.424 153.777C249.235 154.792 247.87 155.409 246.323 155.62C245.955 155.67 245.615 155.814 245.252 155.878C244.714 155.971 244.458 155.775 244.447 155.225C244.439 154.833 244.455 154.44 244.458 154.047C244.46 153.655 244.458 153.263 244.458 152.871C244.469 152.871 244.48 152.87 244.491 152.87C244.591 151.144 244.694 149.418 244.791 147.692C244.829 147.018 244.873 146.344 244.883 145.67C244.893 145.066 245.191 144.678 245.719 144.445C246.311 144.184 246.93 144.15 247.557 144.286C249.131 144.626 250.462 145.368 251.479 146.642C252.275 147.638 252.525 148.783 252.433 150.024Z" fill="#D35C2F"/>
<path d="M388.338 155.87C388.264 155.62 388.147 155.507 387.869 155.457C385.897 155.105 383.977 154.573 382.157 153.717C379.987 152.697 378.133 151.288 376.715 149.335C376.088 148.47 375.567 147.538 375.032 146.616C374.514 145.722 373.949 144.859 373.163 144.172C371.47 142.692 369.439 142.216 367.257 142.26C366.103 142.284 364.97 142.492 363.858 142.808C360.02 143.896 357.216 146.239 355.413 149.78C354.658 151.261 354.314 152.849 354.424 154.511C354.545 156.341 355.169 158.006 356.243 159.486C357.573 161.319 359.382 162.336 361.65 162.479C363.218 162.579 364.57 162.037 365.69 160.952C366.861 159.818 367.48 158.396 367.721 156.801C367.774 156.455 367.844 156.105 367.765 155.673C367.607 155.865 367.618 156.029 367.587 156.177C367.322 157.457 366.842 158.643 365.986 159.644C364.818 161.01 363.365 161.721 361.533 161.44C360.301 161.251 359.227 160.711 358.312 159.863C357.417 159.033 356.861 157.992 356.449 156.862C356.122 155.966 355.931 155.041 355.955 154.091C355.985 152.927 356.257 151.804 356.785 150.763C358.463 147.453 361.056 145.23 364.653 144.221C365.984 143.848 367.329 143.634 368.72 143.771C370.774 143.974 372.408 144.87 373.529 146.629C373.964 147.311 374.383 148.004 374.811 148.69C375.788 150.253 376.965 151.637 378.445 152.751C379.968 153.898 381.653 154.729 383.454 155.339C384.698 155.761 385.973 156.06 387.266 156.283C387.452 156.315 387.55 156.389 387.596 156.564C387.79 157.293 387.885 158.037 387.809 158.785C387.623 160.64 386.851 162.221 385.47 163.48C384.619 164.255 383.673 164.873 382.532 165.161C381.546 165.409 380.561 165.305 379.574 165.233C378.986 165.189 378.398 165.177 377.811 165.237C377.349 165.285 376.891 165.4 376.429 165.412C375.878 165.426 375.327 165.418 374.779 165.486C373.786 165.609 372.821 165.831 371.942 166.323C369.832 167.504 368.265 169.199 367.222 171.375C366.621 172.631 366.277 173.975 365.954 175.322C365.533 177.073 365.211 178.845 364.938 180.626C364.729 181.993 364.535 183.363 364.359 184.735C364.206 185.937 364.092 187.144 363.954 188.348C363.787 189.796 363.66 191.247 363.544 192.699C363.474 193.578 363.414 194.458 363.357 195.337C363.285 196.422 363.369 197.494 363.688 198.536C363.899 199.227 364.241 199.848 364.829 200.3C365.992 201.194 367.707 200.936 368.678 199.745C369.241 199.054 369.439 198.248 369.492 197.389C369.541 196.595 369.553 195.798 369.642 195.006C369.747 194.069 369.833 193.131 369.947 192.195C370.035 191.467 370.395 191.104 371.121 190.986C371.386 190.943 371.657 190.923 371.926 190.92C373.3 190.909 374.669 191.018 376.036 191.141C376.462 191.179 376.892 191.206 377.31 191.311C377.823 191.44 377.997 191.66 378.032 192.185C378.078 192.896 378.04 193.607 378.032 194.318C378.017 195.556 378.028 196.791 378.171 198.026C378.355 199.614 379.787 200.735 381.188 200.818C382.37 200.888 383.235 200.34 383.804 199.314C384.321 198.38 384.482 197.352 384.563 196.309C384.623 195.552 384.641 194.792 384.674 194.033C384.74 192.551 384.776 191.068 384.78 189.585C384.785 187.587 384.819 185.588 384.747 183.589C384.709 182.56 384.713 181.53 384.674 180.501C384.633 179.387 384.588 178.273 384.525 177.16C384.449 175.826 384.354 174.495 384.145 173.176C383.927 171.802 383.585 170.463 382.892 169.239C381.961 167.595 380.658 166.398 378.811 165.856C378.703 165.825 378.599 165.782 378.493 165.745C379.146 165.688 379.777 165.774 380.41 165.838C381.358 165.934 382.297 165.903 383.21 165.6C384.783 165.078 386.068 164.134 387.055 162.82C388.628 160.726 389.084 158.405 388.338 155.87ZM378.399 184.477C378.388 184.674 378.374 184.869 378.325 185.06C378.211 185.51 377.858 185.81 377.397 185.801C376.244 185.778 375.092 185.742 373.941 185.697C373.439 185.677 372.937 185.64 372.439 185.581C371.728 185.497 371.626 185.464 371.51 184.698C371.458 184.358 371.465 184.013 371.49 183.671C371.669 181.188 371.954 178.719 372.59 176.305C372.878 175.21 373.261 174.154 373.907 173.209C374.204 172.775 374.582 172.452 375.036 172.182C375.972 171.626 377.384 172.191 377.797 173.108C378.023 173.608 378.112 174.137 378.17 174.673C378.392 176.722 378.477 178.778 378.468 180.904C378.482 182.052 378.469 183.265 378.399 184.477Z" fill="#D35C2F"/>
<path d="M323.403 172.739C323.373 171.342 323.368 169.944 323.332 168.547C323.285 166.722 323.243 164.897 323.107 163.076C323.029 162.037 322.925 161.002 322.732 159.978C322.484 158.669 322.103 157.407 321.392 156.266C320.529 154.882 319.383 153.837 317.815 153.297C316.439 152.823 315.035 152.638 313.583 152.81C312.725 152.912 311.884 153.07 311.098 153.43C309.564 154.134 308.318 155.206 307.266 156.515C306.153 157.899 305.483 159.488 305.054 161.197C304.38 163.887 303.958 166.622 303.586 169.365C303.353 171.075 303.159 172.79 302.977 174.507C302.772 176.444 302.587 178.381 302.424 180.321C302.332 181.419 302.269 182.519 302.17 183.617C302.081 184.606 302.006 185.596 302.032 186.589C302.055 187.502 302.19 188.395 302.556 189.24C303.04 190.358 303.998 191.102 305.282 191.039C306.19 190.995 307.478 190.273 307.777 189.118C307.996 188.27 308.073 187.405 308.123 186.537C308.173 185.657 308.192 184.774 308.211 183.892C308.233 182.947 308.373 182.013 308.455 181.074C308.505 180.502 308.575 179.93 308.663 179.362C308.741 178.856 309.039 178.521 309.54 178.38C309.848 178.293 310.165 178.261 310.484 178.257C311.908 178.239 313.326 178.352 314.742 178.477C315.095 178.508 315.449 178.548 315.8 178.603C316.325 178.684 316.728 178.886 316.72 179.618C316.714 180.206 316.712 180.794 316.712 181.383C316.712 184.081 316.697 186.779 316.757 189.477C316.767 189.894 316.758 190.311 316.758 190.555C316.798 192.48 316.812 194.233 316.906 195.983C316.926 196.348 317.038 196.68 317.222 196.99C317.617 197.657 318.182 198.127 318.899 198.416C320.345 198.996 321.758 198.483 322.499 197.114C322.885 196.402 323.064 195.629 323.173 194.837C323.322 193.754 323.318 192.662 323.366 191.573C323.41 190.545 323.414 189.514 323.429 188.485C323.445 187.32 323.463 186.155 323.465 184.991C323.469 180.907 323.491 176.823 323.403 172.739ZM317.062 172.015C317.049 172.188 317.03 172.357 316.967 172.518C316.817 172.906 316.481 173.149 316.057 173.139C314.954 173.116 313.85 173.09 312.748 173.039C312.113 173.009 311.476 172.982 310.844 172.879C310.431 172.811 310.308 172.688 310.222 172.233C310.16 171.908 310.138 171.575 310.16 171.244C310.337 168.538 310.643 165.852 311.386 163.233C311.655 162.285 312.021 161.381 312.577 160.559C312.878 160.112 313.263 159.777 313.732 159.508C314.673 158.968 316.052 159.529 316.469 160.427C316.674 160.867 316.775 161.333 316.825 161.808C316.998 163.454 317.135 165.102 317.132 166.759C317.131 167.212 317.132 167.666 317.132 168.119C317.138 169.418 317.163 170.718 317.062 172.015Z" fill="#D35C2F"/>
<path d="M294.968 199.236C291.003 199.236 288.34 199.239 285.677 199.234C284.02 199.232 282.363 199.23 280.707 199.203C278.175 199.161 277.011 197.327 276.884 195.561C276.839 194.92 277.026 194.3 277.294 193.712C277.726 192.765 278.338 191.939 279.026 191.168C279.95 190.134 280.933 189.157 281.89 188.154C284.778 185.129 287.674 182.112 290.325 178.873C291.6 177.315 292.817 175.714 293.838 173.974C294.217 173.329 294.544 172.659 294.834 171.968C295.14 171.241 294.821 170.836 294.296 170.58C293.668 170.273 292.985 170.193 292.299 170.131C291.43 170.051 290.559 170.057 289.689 170.091C288.771 170.128 287.855 170.203 286.938 170.259C286.656 170.276 286.374 170.285 286.093 170.297C284.438 170.367 282.784 170.413 281.127 170.356C280.49 170.334 279.857 170.274 279.222 170.215C277.747 170.075 277.014 168.968 276.777 168.045C276.464 166.831 276.881 165.853 277.781 165.047C278.384 164.507 279.103 164.226 279.911 164.151C280.643 164.084 281.376 164.04 282.11 164.001C283.701 163.916 285.294 163.898 286.887 163.849C288.923 163.786 290.96 163.758 292.994 163.821C294.929 163.881 296.805 164.273 298.558 165.156C300.158 165.963 301.016 167.283 301.3 169.011C301.53 170.402 301.264 171.747 300.822 173.058C299.933 175.695 298.623 178.108 296.908 180.302C295.637 181.926 294.267 183.463 292.857 184.965C291.564 186.343 290.241 187.69 288.927 189.048C287.98 190.025 287.03 191.001 286.129 192.022C285.991 192.179 285.851 192.334 285.751 192.518C285.596 192.803 285.667 192.958 285.981 193.017C286.307 193.079 286.637 193.104 286.968 193.103C288.281 193.098 289.595 193.121 290.907 193.074C291.973 193.035 293.041 193.051 294.105 193.001C295.049 192.957 295.994 192.975 296.936 192.929C297.904 192.881 298.874 192.903 299.84 192.853C300.76 192.806 301.68 192.831 302.598 192.783C303.652 192.728 304.707 192.755 305.76 192.708C307.292 192.638 308.825 192.638 310.358 192.645C311.348 192.65 312.248 192.95 312.985 193.624C313.895 194.456 314.065 195.51 313.794 196.66C313.57 197.61 312.988 198.261 312.08 198.629C311.494 198.866 310.882 198.984 310.261 199.054C309.48 199.141 308.695 199.152 307.91 199.164C303.162 199.24 298.414 199.225 294.968 199.236L294.968 199.236Z" fill="#D35C2F"/>
<path d="M333.693 178.713C333.663 179.263 333.637 179.775 333.607 180.288C333.546 181.351 333.479 182.415 333.42 183.479C333.38 184.188 333.352 184.898 333.313 185.607C333.252 186.708 333.183 187.808 333.122 188.909C333.083 189.618 333.057 190.329 333.018 191.038C332.958 192.127 332.88 193.214 332.833 194.303C332.802 195.026 332.763 195.747 332.669 196.464C332.588 197.086 332.449 197.696 332.156 198.257C331.613 199.301 330.726 199.786 329.571 199.741C328.408 199.696 327.544 199.157 327.069 198.059C326.718 197.247 326.687 196.393 326.739 195.532C326.797 194.567 326.877 193.602 326.947 192.637C327.034 191.441 327.125 190.244 327.208 189.047C327.273 188.106 327.325 187.165 327.389 186.223C327.473 185.002 327.567 183.781 327.65 182.559C327.715 181.606 327.767 180.652 327.831 179.699C327.916 178.44 328.009 177.183 328.093 175.925C328.158 174.959 328.211 173.993 328.272 173.027C328.362 171.622 328.432 170.214 328.555 168.812C328.627 167.989 328.856 167.197 329.306 166.488C329.702 165.863 330.229 165.401 330.97 165.249C331.808 165.077 332.6 165.159 333.297 165.726C333.798 166.134 334.206 166.619 334.561 167.152C335.276 168.228 335.822 169.394 336.345 170.571C337.501 173.172 338.452 175.851 339.365 178.543C340.278 181.236 341.175 183.935 342.089 186.628C342.55 187.986 343.056 189.327 343.665 190.627C343.842 191.005 344.041 191.371 344.277 191.716C344.382 191.869 344.501 192.008 344.637 192.132C345.005 192.47 345.382 192.459 345.737 192.1C345.949 191.885 346.071 191.619 346.169 191.339C346.366 190.78 346.443 190.197 346.507 189.612C346.657 188.237 346.806 186.861 346.94 185.484C347.039 184.461 347.118 183.435 347.196 182.409C347.29 181.188 347.382 179.967 347.46 178.745C347.509 177.987 347.535 177.228 347.565 176.469C347.612 175.269 347.658 174.069 347.696 172.868C347.724 171.986 347.739 171.104 347.76 170.221C347.787 169.126 347.902 168.044 348.295 167.011C348.493 166.49 348.761 166.004 349.205 165.651C349.961 165.05 350.798 164.992 351.66 165.374C352.543 165.764 353.149 166.44 353.508 167.329C353.911 168.326 353.988 169.375 353.939 170.436C353.867 172.002 353.717 173.562 353.594 175.125C353.499 176.346 353.428 177.569 353.34 178.79C353.257 179.938 353.162 181.085 353.081 182.233C353.014 183.162 352.96 184.091 352.901 185.02C352.743 187.49 352.559 189.957 351.965 192.372C351.693 193.481 351.372 194.574 350.736 195.544C349.979 196.699 349.049 197.674 347.833 198.357C347.025 198.811 346.153 199.058 345.232 199.044C344.047 199.025 342.977 198.625 342.024 197.916C340.96 197.124 340.183 196.09 339.535 194.951C338.883 193.806 338.433 192.572 337.977 191.343C336.993 188.688 336.184 185.975 335.322 183.28C334.87 181.869 334.407 180.46 333.904 179.066C333.865 178.957 333.866 178.821 333.692 178.714L333.693 178.713Z" fill="#D35C2F"/>
<path d="M273.703 154.973C276.194 154.973 278.685 154.972 281.177 154.973C282.109 154.973 283.043 154.956 283.974 154.987C286.218 155.062 288.463 154.992 290.707 155.063C291.785 155.097 292.864 155.088 293.942 155.123C295.02 155.159 296.096 155.215 297.173 155.269C298.198 155.322 298.986 155.831 299.609 156.604C300.419 157.609 300.447 159.226 299.251 160.28C298.69 160.775 298.049 161.041 297.288 161.082C294.041 161.254 290.791 161.248 287.541 161.251C285.283 161.254 283.025 161.255 280.767 161.251C279.577 161.248 278.387 161.222 277.197 161.226C276.131 161.229 275.064 161.237 273.998 161.302C273.755 161.316 273.513 161.369 273.274 161.419C272.994 161.478 272.84 161.647 272.783 161.941C272.673 162.508 272.628 163.082 272.591 163.655C272.504 164.987 272.43 166.32 272.37 167.654C272.321 168.755 272.307 169.859 272.263 170.961C272.208 172.332 272.212 173.705 272.151 175.077C272.107 176.081 272.12 177.087 272.102 178.092C272.081 179.22 272.055 180.347 272.03 181.475C272.011 182.345 272.008 183.215 271.966 184.084C271.911 185.198 271.906 186.313 271.863 187.428C271.82 188.517 271.791 189.608 271.746 190.698C271.698 191.835 271.642 192.973 271.567 194.11C271.511 194.965 271.456 195.821 271.38 196.674C271.303 197.527 271.247 198.384 271.036 199.219C270.891 199.792 270.687 200.341 270.361 200.84C270.001 201.39 269.507 201.738 268.864 201.884C267.912 202.1 266.989 202.048 266.106 201.607C265.639 201.373 265.304 201.018 265.103 200.528C264.753 199.672 264.645 198.785 264.68 197.867C264.715 196.96 264.821 196.059 264.871 195.155C264.948 193.773 265.048 192.393 265.13 191.012C265.174 190.266 265.198 189.519 265.237 188.772C265.299 187.561 265.368 186.351 265.427 185.139C265.468 184.307 265.492 183.474 265.532 182.642C265.592 181.394 265.662 180.147 265.721 178.899C265.761 178.067 265.786 177.234 265.827 176.401C265.886 175.19 265.954 173.979 266.015 172.768C266.054 171.985 266.079 171.202 266.122 170.418C266.178 169.391 266.247 168.365 266.307 167.338C266.342 166.751 266.364 166.164 266.405 165.577C266.474 164.588 266.554 163.599 266.626 162.61C266.643 162.378 266.661 162.144 266.629 161.912C266.582 161.571 266.439 161.418 266.092 161.359C265.594 161.274 265.089 161.284 264.587 161.302C263.802 161.329 263.017 161.35 262.233 161.295C260.977 161.207 259.941 160.692 259.199 159.661C258.376 158.519 258.559 157.085 259.615 156.149C260.291 155.55 261.094 155.247 261.97 155.114C262.637 155.013 263.308 154.971 263.983 154.972C267.223 154.975 270.463 154.973 273.702 154.973L273.703 154.973Z" fill="#D35C2F"/>
<path d="M255.68 162.997C256.649 162.997 257.619 162.97 258.587 163.004C259.576 163.039 260.569 163.055 261.553 163.202C262.853 163.396 263.835 164.039 264.365 165.243C264.831 166.301 264.754 167.358 264.029 168.298C263.624 168.822 263.03 169.075 262.405 169.246C261.451 169.506 260.474 169.576 259.49 169.549C258.106 169.511 256.729 169.352 255.348 169.263C254.762 169.225 254.175 169.185 253.585 169.193C253.083 169.2 252.722 169.429 252.447 169.823C252.119 170.289 251.997 170.829 251.957 171.382C251.887 172.322 251.849 173.265 251.792 174.206C251.734 175.159 251.666 176.112 251.606 177.064C251.588 177.358 251.57 177.652 251.573 177.946C251.578 178.473 251.891 178.849 252.411 178.958C253.079 179.099 253.753 179.063 254.425 178.998C255.301 178.913 256.17 178.748 257.057 178.801C257.753 178.843 258.38 179.05 258.89 179.541C259.503 180.131 259.701 180.879 259.609 181.693C259.442 183.156 258.707 184.236 257.339 184.842C256.522 185.204 255.655 185.364 254.767 185.392C253.847 185.42 252.928 185.398 252.014 185.272C251.571 185.211 251.383 185.379 251.351 185.832C251.236 187.448 251.251 189.065 251.295 190.683C251.305 191.028 251.464 191.229 251.755 191.364C252.083 191.516 252.438 191.571 252.789 191.597C253.229 191.63 253.676 191.642 254.113 191.598C255.524 191.456 256.93 191.253 258.343 191.133C259.343 191.048 260.354 191.025 261.304 191.474C261.973 191.79 262.55 192.213 262.927 192.861C263.469 193.795 263.384 194.746 262.915 195.671C262.544 196.403 261.977 196.949 261.201 197.263C260.125 197.698 259.005 197.949 257.86 198.103C256.399 198.3 254.929 198.372 253.458 198.316C252.137 198.265 250.811 198.194 249.533 197.805C248.242 197.411 247.099 196.772 246.209 195.734C245.478 194.881 245.078 193.878 244.896 192.783C244.776 192.069 244.731 191.348 244.738 190.624C244.75 189.201 244.732 187.778 244.774 186.357C244.808 185.194 244.863 184.032 244.949 182.871C245.01 182.053 245.063 181.234 245.134 180.416C245.286 178.673 245.471 176.933 245.684 175.195C245.869 173.689 246.032 172.179 246.226 170.674C246.395 169.363 246.493 168.042 246.731 166.741C246.872 165.973 247.143 165.254 247.645 164.64C248.154 164.019 248.827 163.658 249.58 163.429C250.321 163.202 251.087 163.114 251.857 163.051C253.13 162.946 254.406 162.988 255.68 162.998L255.68 162.997Z" fill="#D35C2F"/>
<path d="M344.074 143.674C344.055 143.96 344.026 144.228 344.019 144.496C343.99 145.55 343.969 146.604 343.943 147.658C343.936 147.922 343.931 147.927 343.668 147.914C342.848 147.873 342.029 147.794 341.207 147.826C339.253 147.902 337.362 148.268 335.573 149.075C334.573 149.526 333.713 150.164 333.108 151.103C332.682 151.764 332.428 152.493 332.319 153.262C332.257 153.697 332.072 153.894 331.649 154.026C330.353 154.433 329.158 155.051 328.109 155.93C327.853 156.144 327.636 156.392 327.453 156.671C327.169 157.105 327.141 157.558 327.343 158.036C327.654 158.773 328.167 159.366 328.692 159.95C329.308 160.635 329.965 161.278 330.654 161.888C330.746 161.97 330.83 162.059 330.918 162.145C330.976 162.202 331 162.266 330.943 162.338C330.879 162.419 330.816 162.38 330.754 162.336C330.353 162.054 329.946 161.779 329.552 161.487C328.713 160.867 327.909 160.205 327.203 159.431C326.896 159.094 326.624 158.734 326.423 158.322C326.086 157.631 326.075 156.932 326.378 156.227C326.666 155.558 327.136 155.028 327.674 154.554C328.508 153.817 329.452 153.249 330.454 152.777C330.699 152.661 330.815 152.526 330.861 152.246C331.193 150.245 332.315 148.771 333.986 147.687C335.309 146.829 336.775 146.322 338.306 145.984C339.348 145.753 340.403 145.622 341.467 145.551C341.717 145.535 341.721 145.535 341.722 145.225C341.724 143.998 341.722 142.771 341.723 141.544C341.723 140.931 341.722 140.318 341.724 139.704C341.724 139.583 341.703 139.46 341.749 139.339C341.885 139.314 341.981 139.405 342.084 139.46C343.718 140.342 345.277 141.336 346.69 142.547C349.094 144.609 351.115 146.992 352.69 149.747C352.828 149.989 352.845 150.196 352.735 150.465C352.117 151.971 351.813 153.546 351.906 155.17C352.063 157.909 353.075 160.289 355.07 162.206C356.418 163.503 358.037 164.286 359.891 164.529C363.044 164.942 365.793 163.987 368.205 161.972C368.421 161.792 368.618 161.588 368.825 161.397C368.895 161.332 368.96 161.236 369.068 161.345C369.16 161.438 369.073 161.503 369.027 161.567C368.6 162.155 368.11 162.689 367.563 163.164C366.001 164.52 364.206 165.403 362.158 165.743C359.609 166.167 357.227 165.708 355.038 164.336C352.97 163.041 351.566 161.187 350.641 158.957C349.527 156.272 349.493 153.522 350.229 150.742C350.301 150.47 350.278 150.269 350.121 150.031C348.541 147.632 346.604 145.566 344.338 143.806C344.273 143.756 344.217 143.685 344.075 143.675L344.074 143.674Z" fill="#D35D2F"/>
</svg>
