<svg width="98" height="91" viewBox="0 0 98 91" fill="none" xmlns="http://www.w3.org/2000/svg">
<path d="M73.9323 48.7071C70.0594 46.7819 66.6928 43.9741 64.1035 40.5098C63.8775 40.215 63.6514 39.9299 63.4057 39.6547C61.5513 37.5312 59.264 35.8292 56.6973 34.6629C54.1306 33.4967 51.3441 32.8933 48.5249 32.8933C45.7057 32.8933 42.9191 33.4967 40.3524 34.6629C37.7857 35.8292 35.4984 37.5312 33.644 39.6547C33.2958 40.0678 32.9678 40.4975 32.6612 40.9423C30.1366 44.393 26.8681 47.2315 23.0977 49.2477C19.6489 51.0934 16.7572 53.8288 14.7229 57.1698C12.6885 60.5108 11.5858 64.3356 11.5292 68.2468C11.5391 73.076 13.2043 77.7558 16.247 81.5058C18.4859 84.2536 21.3127 86.4642 24.5191 87.9747C27.7256 89.4852 31.23 90.2572 34.7744 90.2338H63.2779C66.8208 90.2571 70.3238 89.485 73.5287 87.9745C76.7335 86.4639 79.5585 84.2534 81.7954 81.5058C84.8382 77.7558 86.5033 73.076 86.5132 68.2468C86.4679 64.1359 85.2632 60.1212 83.0376 56.6646C80.812 53.208 77.6559 50.4497 73.9323 48.7071ZM20.0606 39.6547C20.4869 38.51 20.7065 37.2986 20.7093 36.077V28.155C20.7076 27.7541 20.6813 27.3536 20.6307 26.9559C20.3385 24.4342 19.1296 22.1078 17.234 20.4192C15.3384 18.7306 12.8884 17.7976 10.3497 17.7976C7.81112 17.7976 5.36104 18.7306 3.46546 20.4192C1.56988 22.1078 0.361039 24.4342 0.0688089 26.9559C0.0255249 27.3542 0.00255405 27.7544 0 28.155V36.077C0.000535247 38.5064 0.855654 40.8582 2.41562 42.7206C3.97558 44.5829 6.14096 45.8372 8.5326 46.2637C10.9242 46.6903 13.3897 46.2619 15.4973 45.0536C17.6049 43.8453 19.2203 41.9342 20.0606 39.6547ZM29.6142 26.9559C31.1886 27.8466 32.9687 28.3096 34.7775 28.2987C36.5863 28.2879 38.3608 27.8036 39.9243 26.8941C41.4879 25.9846 42.786 24.6815 43.6897 23.1146C44.5933 21.5476 45.0709 19.7714 45.075 17.9625V10.0405C44.992 7.34952 43.8648 4.79649 41.9319 2.92231C39.9991 1.04812 37.4126 0 34.7203 0C32.028 0 29.4415 1.04812 27.5087 2.92231C25.5758 4.79649 24.4485 7.34952 24.3656 10.0405V17.9625C24.3698 19.7913 24.8574 21.5864 25.7792 23.1658C26.701 24.7452 28.024 26.0528 29.6142 26.9559ZM57.8524 26.9559C59.4106 27.851 61.1762 28.322 62.9732 28.322C64.7702 28.322 66.5358 27.851 68.094 26.9559C69.6806 26.0503 70.9997 24.7416 71.9179 23.1624C72.8361 21.5831 73.3208 19.7893 73.323 17.9625V10.0405C73.24 7.34952 72.1128 4.79649 70.1799 2.92231C68.2471 1.04812 65.6606 0 62.9683 0C60.276 0 57.6895 1.04812 55.7567 2.92231C53.8239 4.79649 52.6966 7.34952 52.6137 10.0405V17.9625C52.6158 19.7905 53.1015 21.5854 54.0216 23.1649C54.9417 24.7444 56.2634 26.0523 57.8524 26.9559ZM97.5412 26.9559C97.2489 24.4342 96.0401 22.1078 94.1445 20.4192C92.2489 18.7306 89.7989 17.7976 87.2602 17.7976C84.7216 17.7976 82.2715 18.7306 80.376 20.4192C78.4804 22.1078 77.2715 24.4342 76.9793 26.9559C76.936 27.3542 76.9131 27.7544 76.9105 28.155V36.077C76.9934 38.7681 78.1207 41.3211 80.0535 43.1953C81.9863 45.0694 84.5729 46.1176 87.2651 46.1176C89.9574 46.1176 92.544 45.0694 94.4768 43.1953C96.4096 41.3211 97.5369 38.7681 97.6198 36.077V28.155C97.6181 27.7541 97.5918 27.3536 97.5412 26.9559Z" fill="#F65D00"/>
</svg>
