<svg width="154" height="64" viewBox="0 0 154 64" fill="none" xmlns="http://www.w3.org/2000/svg">
<path d="M120.66 58.1446C120.698 56.4543 120.724 55.0385 120.763 53.623C120.806 52.0847 120.859 50.5468 120.911 49.0089C120.958 47.6186 121.008 46.2287 121.059 44.8387C121.106 43.5594 121.156 42.2804 121.207 41.0014C121.255 39.796 121.305 38.591 121.356 37.3859C121.403 36.3163 121.447 35.2463 121.504 34.177C121.568 32.9609 121.65 31.7455 121.717 30.529C121.793 29.1468 123.091 28.0557 124.426 27.9625C125.98 27.8542 127.614 29.361 127.651 31.0239C127.657 31.3057 127.617 31.5887 127.598 31.8709C127.513 33.1484 127.488 34.4285 127.446 35.7079C127.389 37.4799 127.346 39.2523 127.298 41.0243C127.248 42.8333 127.195 44.6427 127.153 46.4521C127.114 48.1013 127.059 49.7502 127.005 51.399C126.961 52.7031 126.921 54.0073 126.855 55.3103C126.781 56.772 126.72 58.2352 126.58 59.6929C126.506 60.4673 126.273 61.1853 125.782 61.8048C124.971 62.8289 123.824 63.1104 122.649 62.5438C121.595 62.0352 120.95 61.1886 120.695 60.0479C120.669 59.9288 120.663 59.8034 120.662 59.681C120.659 59.0774 120.661 58.4734 120.661 58.1446H120.66Z" fill="#D35000"/>
<path d="M23.3953 10.3268C23.0387 7.67926 21.9339 5.3824 20.0876 3.45837C18.0396 1.32425 15.4787 0.267919 12.5623 0.04563C10.7707 -0.0912199 8.99682 0.0807671 7.25697 0.547906C6.22542 0.824565 5.24343 1.2107 4.41937 1.91419C3.82722 2.41979 3.43073 3.05041 3.34233 3.83341C3.27353 4.44369 3.25023 5.05951 3.21288 5.67349C3.15074 6.70504 3.09896 7.73733 3.03312 8.76888C2.9499 10.0701 2.85411 11.3705 2.76867 12.6713C2.70431 13.6537 2.65216 14.6364 2.58743 15.6188C2.50311 16.8948 2.40953 18.1705 2.32483 19.4469C2.26047 20.4167 2.20795 21.3876 2.14286 22.357C2.05927 23.5964 1.96458 24.8351 1.8821 26.0745C1.81664 27.0565 1.76708 28.0396 1.70198 29.0216C1.61728 30.298 1.52185 31.5736 1.43642 32.85C1.37317 33.795 1.32139 34.7411 1.25851 35.6865C1.17233 36.9751 1.07839 38.263 0.992579 39.5516C0.928962 40.5092 0.876442 41.4675 0.813195 42.4247C0.727756 43.7137 0.63455 45.0015 0.549481 46.2902C0.509536 46.8919 0.483645 47.4944 0.44481 48.0958C0.383412 49.0412 0.314248 49.9855 0.25285 50.9305C0.212165 51.5567 0.186274 52.1839 0.141521 52.8094C0.0801234 53.6686 0.0139176 54.5274 0.00430113 55.3892C0.00430113 55.4632 0.00615046 55.5371 0.00430113 55.6111C-0.0193702 56.4167 0.0512739 57.2108 0.300932 57.9816C0.611249 58.9395 1.16013 59.6915 2.12769 60.0791C2.67657 60.2991 3.24727 60.3602 3.8324 60.3165C4.9664 60.2315 6.26685 59.562 6.5424 57.9294C6.68775 57.0673 6.80574 56.2036 6.86677 55.3326C6.9167 54.6206 6.9289 53.906 6.97588 53.194C7.05651 51.979 7.15304 50.7655 7.23922 49.5509C7.3021 48.6673 7.35351 47.7833 7.41934 46.9001C7.52808 45.4402 7.64681 43.9815 7.75703 42.522C7.84506 41.3569 7.92162 40.1911 8.01298 39.026C8.1195 37.6653 8.23785 36.3057 8.34918 34.9453C8.4361 33.879 8.51155 32.8116 8.60772 31.7456C8.74457 30.2269 8.89178 28.7094 9.04157 27.1918C9.11369 26.458 9.19543 25.7253 9.3149 24.9963C9.3578 24.7348 9.49243 24.5721 9.70622 24.4537C9.97585 24.3043 10.2577 24.1808 10.5488 24.0794C11.5737 23.7218 12.6256 23.4636 13.6897 23.2631C15.2135 22.9757 16.6715 22.5086 18.0285 21.753C20.099 20.6001 21.6488 18.9623 22.5657 16.7665C23.4289 14.7 23.6945 12.5467 23.3953 10.3268ZM17.1298 11.7788C17.014 13.3308 16.2776 14.5528 15.1122 15.5489C13.9179 16.5693 12.5457 17.1885 10.9919 17.4008C10.6227 17.4511 10.2806 17.5961 9.91593 17.6597C9.37556 17.7536 9.1185 17.5561 9.10741 17.0035C9.09927 16.6096 9.11591 16.215 9.1185 15.8207C9.12072 15.4272 9.11887 15.0333 9.11887 14.6394C9.12997 14.639 9.14106 14.6386 9.15179 14.6383C9.25239 12.9043 9.35522 11.1704 9.45286 9.43612C9.49096 8.75964 9.53497 8.08278 9.54569 7.40556C9.55568 6.79825 9.85527 6.40878 10.3853 6.17502C10.9797 5.91279 11.6021 5.87839 12.2317 6.01487C13.8125 6.357 15.1503 7.10227 16.1718 8.38164C16.9711 9.38249 17.2226 10.5328 17.1298 11.7788Z" fill="#D35000"/>
<path d="M153.656 17.6517C153.582 17.4002 153.464 17.2863 153.185 17.2364C151.204 16.8824 149.275 16.3479 147.447 15.4888C145.267 14.4642 143.404 13.0484 141.98 11.087C141.35 10.2178 140.827 9.28169 140.29 8.35518C139.769 7.45677 139.201 6.59018 138.411 5.90002C136.711 4.41353 134.671 3.9353 132.478 3.97931C131.319 4.00298 130.182 4.21232 129.064 4.5293C125.209 5.62299 122.392 7.9768 120.58 11.5334C119.822 13.0218 119.477 14.6166 119.588 16.2865C119.709 18.124 120.335 19.7973 121.414 21.2842C122.75 23.1257 124.567 24.1469 126.847 24.2908C128.421 24.3906 129.779 23.847 130.904 22.7566C132.08 21.617 132.703 20.1894 132.945 18.5871C132.998 18.2394 133.068 17.8873 132.989 17.4535C132.83 17.6462 132.842 17.8111 132.811 17.9594C132.544 19.2458 132.062 20.4368 131.202 21.4428C130.029 22.815 128.569 23.5289 126.729 23.2463C125.491 23.0565 124.412 22.5143 123.493 21.6622C122.594 20.8285 122.035 19.7829 121.621 18.6474C121.293 17.7479 121.101 16.8184 121.125 15.8642C121.155 14.6947 121.429 13.5666 121.959 12.521C123.645 9.19588 126.249 6.96264 129.863 5.94921C131.2 5.57417 132.551 5.35964 133.948 5.49723C136.012 5.70066 137.653 6.60091 138.78 8.36812C139.217 9.05311 139.637 9.7492 140.067 10.4386C141.048 12.0091 142.231 13.399 143.718 14.5182C145.248 15.6707 146.941 16.5051 148.749 17.118C149.999 17.5419 151.281 17.8418 152.579 18.066C152.766 18.0981 152.864 18.1725 152.911 18.3485C153.105 19.0809 153.201 19.8287 153.125 20.5799C152.938 22.4429 152.163 24.0315 150.775 25.2964C149.92 26.0746 148.97 26.6956 147.823 26.9845C146.833 27.2342 145.844 27.1291 144.852 27.0566C144.261 27.0134 143.67 27.0008 143.081 27.0614C142.617 27.1095 142.157 27.2246 141.693 27.2368C141.139 27.2512 140.586 27.2434 140.035 27.3115C139.038 27.435 138.068 27.658 137.185 28.1522C135.066 29.338 133.491 31.0412 132.444 33.2271C131.84 34.4887 131.495 35.8387 131.17 37.1917C130.747 38.9515 130.423 40.7313 130.149 42.5199C129.939 43.8932 129.744 45.2695 129.568 46.648C129.414 47.8556 129.299 49.068 129.16 50.2775C128.993 51.7318 128.865 53.1894 128.749 54.6485C128.679 55.5314 128.619 56.415 128.56 57.2986C128.489 58.3882 128.573 59.4656 128.893 60.5124C129.105 61.2058 129.449 61.8298 130.039 62.2836C131.208 63.1824 132.931 62.9235 133.906 61.7262C134.471 61.032 134.67 60.2224 134.724 59.3602C134.773 58.5624 134.786 57.762 134.875 56.9665C134.98 56.0252 135.066 55.082 135.181 54.1418C135.269 53.4106 135.631 53.0466 136.361 52.9279C136.627 52.8846 136.899 52.8639 137.169 52.8617C138.55 52.8499 139.925 52.9601 141.298 53.0829C141.726 53.1213 142.158 53.1491 142.577 53.2541C143.092 53.384 143.268 53.6048 143.303 54.1322C143.35 54.8464 143.311 55.5602 143.303 56.2744C143.288 57.5183 143.299 58.7596 143.442 59.9994C143.627 61.5953 145.066 62.7212 146.473 62.8044C147.661 62.8743 148.529 62.3243 149.101 61.2935C149.621 60.3552 149.782 59.3225 149.864 58.2747C149.924 57.5142 149.942 56.7508 149.976 55.9885C150.042 54.4995 150.078 53.01 150.082 51.5206C150.087 49.513 150.121 47.505 150.048 45.4966C150.01 44.4636 150.014 43.4287 149.976 42.3945C149.934 41.2753 149.888 40.1569 149.825 39.038C149.749 37.6987 149.654 36.3617 149.443 35.0361C149.224 33.6558 148.881 32.3113 148.185 31.0819C147.25 29.4301 145.94 28.2273 144.085 27.6832C143.977 27.6517 143.872 27.6088 143.766 27.5715C144.422 27.5142 145.056 27.6003 145.692 27.6651C146.644 27.7616 147.588 27.7305 148.505 27.4258C150.085 26.9009 151.376 25.9526 152.367 24.6329C153.947 22.5299 154.406 20.1975 153.656 17.6517ZM143.672 46.3891C143.66 46.5866 143.646 46.783 143.598 46.9746C143.483 47.4269 143.128 47.7284 142.665 47.7191C141.507 47.6962 140.35 47.6599 139.193 47.6144C138.689 47.5948 138.185 47.5567 137.684 47.4976C136.97 47.4132 136.868 47.3807 136.751 46.6114C136.699 46.2689 136.706 45.9223 136.731 45.5791C136.911 43.0847 137.197 40.6051 137.836 38.1792C138.125 37.08 138.51 36.0192 139.159 35.0697C139.457 34.6333 139.837 34.3086 140.293 34.0378C141.233 33.4793 142.652 34.0471 143.067 34.9677C143.294 35.4703 143.383 36.0022 143.441 36.5403C143.665 38.5986 143.75 40.6639 143.74 42.7999C143.755 43.9528 143.742 45.1715 143.672 46.3891Z" fill="#D35000"/>
<path d="M88.4232 34.5981C88.3928 33.1945 88.3884 31.7905 88.3525 30.3868C88.3052 28.5534 88.2626 26.7203 88.1258 24.8906C88.0477 23.8472 87.9434 22.8076 87.7489 21.779C87.5007 20.4641 87.1179 19.1958 86.4033 18.0496C85.5367 16.6593 84.385 15.6096 82.8097 15.067C81.4275 14.591 80.0176 14.4053 78.5581 14.5781C77.6967 14.6802 76.852 14.8388 76.0627 15.2009C74.5211 15.9081 73.2691 16.9844 72.2124 18.2993C71.0946 19.6896 70.4215 21.2863 69.991 23.0032C69.3134 25.7054 68.8899 28.4528 68.5156 31.2083C68.2822 32.9267 68.0869 34.6495 67.9042 36.3742C67.6982 38.3193 67.5129 40.2655 67.3487 42.2143C67.2558 43.3173 67.1926 44.4228 67.0934 45.5254C67.0039 46.5192 66.9285 47.513 66.9544 48.5113C66.9784 49.4282 67.1134 50.3255 67.4811 51.1739C67.9674 52.2968 68.9295 53.0443 70.2199 52.9815C71.132 52.9371 72.4258 52.2114 72.7257 51.0515C72.9462 50.2001 73.0235 49.3305 73.0734 48.4588C73.1241 47.5744 73.1429 46.6875 73.1626 45.8013C73.184 44.8522 73.3246 43.9146 73.407 42.9711C73.4573 42.3959 73.5276 41.8215 73.616 41.2508C73.694 40.743 73.994 40.4061 74.4967 40.2648C74.8066 40.1775 75.1251 40.1453 75.4457 40.1409C76.876 40.1228 78.3 40.2359 79.7225 40.3621C80.0779 40.3935 80.433 40.4338 80.7855 40.4882C81.3129 40.5699 81.7179 40.7734 81.7101 41.5079C81.7035 42.0986 81.702 42.69 81.702 43.2814C81.702 45.9918 81.6864 48.7021 81.7471 51.4121C81.7567 51.8308 81.7486 52.2499 81.7486 52.4951C81.7882 54.4291 81.8026 56.1897 81.8969 57.9484C81.9165 58.3145 82.0289 58.6478 82.2139 58.9596C82.6115 59.6298 83.1781 60.1021 83.899 60.3917C85.3511 60.975 86.771 60.4594 87.5151 59.0842C87.9028 58.3685 88.0825 57.5922 88.1924 56.7962C88.3422 55.7088 88.3385 54.6115 88.3858 53.5178C88.4306 52.4847 88.4343 51.4499 88.449 50.4157C88.4657 49.2455 88.4838 48.0752 88.4853 46.9053C88.4897 42.8028 88.5123 38.7003 88.4232 34.5981ZM82.0537 33.8706C82.04 34.044 82.0212 34.2142 81.9583 34.3762C81.807 34.7653 81.4701 35.0094 81.0436 35.0001C79.9355 34.9761 78.827 34.9502 77.72 34.8988C77.0816 34.8692 76.4418 34.8422 75.8075 34.7386C75.3917 34.6706 75.2682 34.5463 75.182 34.0892C75.1202 33.7626 75.0981 33.4282 75.1199 33.0957C75.2982 30.3776 75.6051 27.679 76.3515 25.0482C76.6215 24.0962 76.9899 23.1878 77.5477 22.3619C77.8506 21.9132 78.2375 21.577 78.7087 21.3063C79.6537 20.7637 81.0388 21.3274 81.4579 22.2295C81.6635 22.6718 81.7652 23.1401 81.8155 23.6172C81.989 25.2701 82.127 26.926 82.124 28.5904C82.1229 29.0457 82.1236 29.5014 82.1236 29.957C82.1299 31.2619 82.1551 32.5675 82.0537 33.8706Z" fill="#D35000"/>
<path d="M59.8596 61.2152C55.8758 61.2152 53.2006 61.2189 50.5253 61.2141C48.8613 61.2111 47.1969 61.21 45.5333 61.1823C42.9897 61.1401 41.8198 59.2975 41.693 57.524C41.6471 56.88 41.835 56.2568 42.1046 55.6665C42.5388 54.7152 43.1532 53.8856 43.8448 53.1111C44.7725 52.0725 45.7604 51.0905 46.7216 50.0834C49.6221 47.0446 52.5322 44.0139 55.1949 40.7595C56.4753 39.1946 57.6981 37.5868 58.7237 35.8388C59.1043 35.1904 59.4335 34.5173 59.725 33.8231C60.0316 33.0926 59.7113 32.6865 59.1842 32.4287C58.5536 32.1202 57.8668 32.0403 57.1781 31.9774C56.3052 31.8979 55.4297 31.9031 54.5557 31.9379C53.6337 31.9745 52.7134 32.0503 51.7921 32.1061C51.5095 32.1232 51.2262 32.1324 50.9433 32.1442C49.2811 32.2149 47.6193 32.2607 45.9553 32.2038C45.3147 32.182 44.6789 32.1217 44.0416 32.0618C42.5596 31.9219 41.8235 30.809 41.585 29.8825C41.2709 28.6627 41.6896 27.68 42.5936 26.8711C43.1998 26.3285 43.9218 26.0455 44.7336 25.9708C45.4689 25.9031 46.2049 25.8591 46.9421 25.8199C48.541 25.7345 50.1414 25.7164 51.7411 25.6672C53.7864 25.6043 55.8329 25.5758 57.8756 25.6391C59.8196 25.6994 61.7048 26.0933 63.4658 26.9806C65.0732 27.7906 65.9342 29.1173 66.2201 30.8523C66.4506 32.2504 66.1843 33.6015 65.7401 34.9182C64.8465 37.5668 63.5312 39.9909 61.8077 42.1953C60.5313 43.8271 59.1546 45.3706 57.7381 46.88C56.4395 48.2637 55.1102 49.6174 53.7901 50.9807C52.8392 51.9631 51.8853 52.9432 50.9799 53.9692C50.8412 54.1264 50.7003 54.2825 50.6 54.4674C50.4447 54.7537 50.5157 54.9087 50.8312 54.9686C51.1582 55.0303 51.4899 55.0559 51.8228 55.0548C53.1417 55.0492 54.4618 55.0725 55.7792 55.0252C56.8507 54.9867 57.923 55.0026 58.9926 54.9523C59.941 54.9075 60.8897 54.9264 61.8361 54.8798C62.8089 54.8321 63.7827 54.8539 64.7536 54.804C65.6772 54.7563 66.6015 54.7814 67.5236 54.7333C68.5825 54.6782 69.6425 54.7052 70.6999 54.6575C72.2397 54.588 73.7794 54.5876 75.3192 54.595C76.3134 54.5998 77.2177 54.9013 77.9585 55.5785C78.8728 56.4136 79.0434 57.4722 78.7711 58.628C78.5459 59.5826 77.9611 60.2362 77.049 60.6057C76.4606 60.8439 75.8459 60.963 75.2215 61.0329C74.4378 61.1205 73.6489 61.1309 72.8603 61.1435C68.0906 61.2193 63.3208 61.2049 59.8592 61.216L59.8596 61.2152Z" fill="#D35000"/>
<path d="M98.7602 40.5986C98.7302 41.1512 98.7039 41.666 98.674 42.1805C98.6118 43.249 98.5453 44.3176 98.4857 45.3861C98.4458 46.0988 98.4177 46.8123 98.3781 47.5247C98.3167 48.6302 98.2479 49.7353 98.1869 50.8412C98.1477 51.554 98.121 52.2674 98.0818 52.9802C98.0215 54.0735 97.9431 55.1661 97.8962 56.2597C97.8651 56.9858 97.8255 57.71 97.7316 58.4305C97.6502 59.0559 97.5107 59.668 97.2163 60.2321C96.67 61.2807 95.7794 61.7681 94.6195 61.723C93.4511 61.6772 92.5834 61.1364 92.1059 60.0331C91.7527 59.2168 91.7216 58.3595 91.7738 57.4944C91.8322 56.5246 91.9125 55.5559 91.9831 54.5865C92.0708 53.3844 92.1618 52.1824 92.245 50.9799C92.3105 50.0346 92.363 49.0888 92.4277 48.1434C92.512 46.9162 92.606 45.6898 92.6896 44.4625C92.7547 43.505 92.8072 42.5466 92.8712 41.5891C92.9562 40.3249 93.0502 39.0618 93.1345 37.7976C93.1992 36.8278 93.2525 35.8569 93.3143 34.8868C93.4045 33.475 93.4752 32.0614 93.5983 30.6522C93.6704 29.8259 93.9005 29.0303 94.3525 28.3176C94.7505 27.6903 95.2801 27.2258 96.0243 27.0734C96.8661 26.9006 97.662 26.9828 98.3625 27.5527C98.8659 27.9622 99.2757 28.4496 99.6319 28.9848C100.351 30.0659 100.899 31.2377 101.424 32.4198C102.586 35.0321 103.541 37.7233 104.458 40.4277C105.375 43.1333 106.276 45.8444 107.195 48.5495C107.658 49.9136 108.166 51.2607 108.777 52.567C108.955 52.9469 109.155 53.3141 109.392 53.6611C109.497 53.8146 109.618 53.954 109.754 54.0794C110.124 54.4189 110.502 54.4075 110.859 54.0468C111.072 53.8312 111.195 53.5634 111.293 53.2827C111.491 52.7209 111.568 52.1346 111.632 51.5477C111.783 50.1659 111.933 48.784 112.067 47.4007C112.167 46.3725 112.246 45.3421 112.325 44.3116C112.419 43.0852 112.511 41.8583 112.59 40.6311C112.639 39.8696 112.665 39.1065 112.695 38.3442C112.743 37.1389 112.788 35.9331 112.827 34.7273C112.855 33.8412 112.87 32.9546 112.892 32.0684C112.919 30.968 113.034 29.881 113.429 28.8432C113.628 28.3198 113.896 27.8316 114.343 27.4769C115.102 26.8736 115.943 26.8156 116.809 27.1984C117.696 27.5904 118.305 28.2699 118.666 29.1631C119.07 30.1647 119.148 31.2181 119.099 32.2837C119.026 33.8567 118.875 35.4245 118.752 36.9942C118.656 38.2207 118.585 39.449 118.497 40.6762C118.414 41.8295 118.318 42.9816 118.236 44.1348C118.17 45.0676 118.115 46.0012 118.055 46.9344C117.897 49.4158 117.712 51.8942 117.116 54.3198C116.842 55.4342 116.519 56.532 115.881 57.5062C115.121 58.6665 114.186 59.6466 112.965 60.3319C112.153 60.788 111.277 61.0365 110.351 61.0221C109.161 61.0036 108.086 60.6016 107.129 59.8892C106.06 59.0933 105.279 58.0551 104.628 56.9107C103.974 55.7608 103.522 54.5214 103.064 53.2864C102.075 50.6193 101.263 47.8941 100.396 45.1867C99.9422 43.7687 99.4769 42.354 98.9721 40.9533C98.9325 40.8438 98.9336 40.7069 98.7587 40.5993L98.7602 40.5986Z" fill="#D35000"/>
<path d="M38.4973 16.751C40.9998 16.751 43.5023 16.7499 46.0048 16.7514C46.9417 16.7518 47.8793 16.7347 48.815 16.7658C51.0693 16.8409 53.3248 16.7706 55.5784 16.8416C56.6621 16.8757 57.7458 16.8664 58.8287 16.9023C59.911 16.9382 60.9924 16.994 62.0739 17.0491C63.1036 17.1017 63.8951 17.6132 64.5217 18.3903C65.3354 19.3996 65.3635 21.0241 64.1614 22.083C63.5978 22.5793 62.9542 22.8471 62.1901 22.8878C58.9279 23.0605 55.6631 23.055 52.3983 23.0583C50.1299 23.0609 47.8619 23.062 45.5935 23.0576C44.3981 23.0554 43.2027 23.0287 42.0073 23.0324C40.9358 23.0358 39.8639 23.0435 38.7939 23.109C38.5498 23.1238 38.3064 23.1763 38.066 23.2266C37.7853 23.2858 37.6303 23.4556 37.573 23.7511C37.4624 24.321 37.4176 24.8969 37.3799 25.4728C37.2926 26.811 37.2187 28.1502 37.1584 29.4899C37.1088 30.5965 37.0944 31.705 37.0504 32.812C36.9956 34.1898 36.999 35.569 36.9383 36.9467C36.8939 37.9554 36.9072 38.9666 36.8887 39.9763C36.868 41.1088 36.8414 42.2413 36.8162 43.3739C36.797 44.2479 36.7948 45.1226 36.7519 45.9955C36.6968 47.1147 36.692 48.2346 36.6483 49.3542C36.6054 50.4486 36.5766 51.5445 36.5307 52.639C36.483 53.7819 36.4268 54.9247 36.3513 56.0669C36.2947 56.9261 36.24 57.7853 36.1631 58.6426C36.0858 59.4992 36.0303 60.3603 35.818 61.1991C35.6723 61.775 35.4677 62.3265 35.14 62.8276C34.7787 63.3802 34.2816 63.7294 33.6358 63.8762C32.6801 64.0937 31.7528 64.0408 30.8659 63.5977C30.3965 63.3632 30.0596 63.0063 29.858 62.5144C29.5062 61.6548 29.3979 60.7634 29.433 59.8406C29.4678 58.93 29.5743 58.0253 29.625 57.1166C29.7023 55.7288 29.8029 54.3422 29.885 52.9545C29.9294 52.2051 29.9538 51.4547 29.9922 50.7049C30.0544 49.4885 30.1239 48.2724 30.1835 47.0555C30.2245 46.2196 30.2489 45.3826 30.2889 44.5467C30.3488 43.2932 30.4191 42.0401 30.479 40.7863C30.5189 39.9504 30.5441 39.1138 30.5848 38.2775C30.6439 37.0606 30.7131 35.8445 30.7738 34.628C30.813 33.8413 30.8385 33.0539 30.8814 32.2672C30.9376 31.2353 31.0068 30.2045 31.0674 29.1729C31.1022 28.5834 31.1248 27.9931 31.1658 27.4039C31.235 26.41 31.3153 25.4166 31.3881 24.4227C31.4051 24.1897 31.4229 23.9552 31.3907 23.7219C31.3434 23.3794 31.1995 23.2262 30.8514 23.1667C30.3506 23.0809 29.8439 23.0909 29.3394 23.109C28.5509 23.1367 27.7623 23.1574 26.9745 23.1023C25.7133 23.0139 24.6725 22.4961 23.9265 21.4609C23.1002 20.3136 23.2844 18.8729 24.3448 17.9331C25.0235 17.3313 25.8302 17.0269 26.7104 16.8934C27.3803 16.7917 28.0549 16.7495 28.7332 16.7503C31.9877 16.7529 35.2421 16.7514 38.4965 16.7514L38.4973 16.751Z" fill="#D35000"/>
<path d="M20.3907 24.8114C21.3642 24.8114 22.3388 24.7847 23.3112 24.8187C24.3054 24.8535 25.3021 24.8702 26.2912 25.0174C27.5964 25.2119 28.5832 25.8584 29.1158 27.0683C29.5837 28.1309 29.5068 29.192 28.7781 30.1367C28.3716 30.6633 27.7743 30.9174 27.147 31.0887C26.1883 31.3506 25.2067 31.4205 24.2188 31.3935C22.8281 31.3554 21.4452 31.1956 20.0578 31.1057C19.4686 31.0676 18.8794 31.0277 18.2869 31.0358C17.7821 31.0428 17.42 31.2729 17.1429 31.6683C16.8141 32.1373 16.6917 32.6791 16.6506 33.2346C16.5807 34.1793 16.543 35.1261 16.4853 36.0715C16.4269 37.0291 16.3584 37.9859 16.2985 38.9431C16.28 39.2379 16.2623 39.5338 16.2652 39.8286C16.27 40.3586 16.5848 40.7359 17.1074 40.8457C17.7784 40.9866 18.4552 40.9508 19.1302 40.8853C20.0101 40.7999 20.8834 40.6345 21.7744 40.6878C22.4734 40.7296 23.1037 40.9382 23.6156 41.4308C24.2314 42.0234 24.4307 42.7749 24.3375 43.5931C24.17 45.0629 23.4321 46.1474 22.0581 46.7562C21.2366 47.1201 20.3656 47.2803 19.4734 47.3084C18.5499 47.3372 17.6263 47.315 16.708 47.1885C16.2634 47.1271 16.0748 47.2954 16.0422 47.7503C15.9268 49.3737 15.942 50.9981 15.9864 52.6237C15.9956 52.9702 16.1558 53.1722 16.4483 53.3079C16.7779 53.4607 17.1344 53.5162 17.4873 53.5424C17.9285 53.5753 18.3775 53.5872 18.8166 53.5432C20.2346 53.4 21.6468 53.197 23.0663 53.076C24.0712 52.9902 25.0861 52.9673 26.0404 53.4185C26.7128 53.7362 27.2927 54.1605 27.6711 54.8122C28.2159 55.7505 28.1301 56.7059 27.6589 57.635C27.2861 58.3699 26.7172 58.918 25.9372 59.2335C24.8568 59.6707 23.7313 59.923 22.5814 60.0779C21.1138 60.2758 19.6369 60.3479 18.1589 60.2913C16.8315 60.2407 15.5 60.1697 14.2162 59.7783C12.9194 59.383 11.7714 58.7405 10.8767 57.6975C10.1425 56.8412 9.74083 55.8334 9.55738 54.7334C9.43754 54.0162 9.39242 53.292 9.39907 52.5641C9.41165 51.1353 9.39279 49.7055 9.43495 48.2778C9.46972 47.1101 9.52483 45.9424 9.61138 44.7759C9.6724 43.9541 9.72566 43.1315 9.79705 42.3104C9.94943 40.5587 10.1351 38.8107 10.3496 37.0653C10.5357 35.5518 10.6995 34.0358 10.8941 32.5234C11.0635 31.2067 11.1618 29.88 11.4011 28.5729C11.5424 27.801 11.8147 27.079 12.3199 26.4621C12.8307 25.8385 13.5064 25.476 14.2628 25.2452C15.0081 25.0177 15.7766 24.9286 16.5504 24.8654C17.8294 24.7607 19.111 24.8028 20.3914 24.8121L20.3907 24.8114Z" fill="#D35000"/>
<path d="M109.189 5.40061C109.169 5.68763 109.141 5.95652 109.134 6.22615C109.105 7.2847 109.083 8.34362 109.057 9.40218C109.05 9.66737 109.045 9.67255 108.781 9.6596C107.957 9.61818 107.135 9.53903 106.309 9.57121C104.346 9.6474 102.446 10.0154 100.649 10.8258C99.6447 11.2789 98.7807 11.9198 98.1726 12.8634C97.745 13.5269 97.4898 14.26 97.3804 15.0323C97.3182 15.4691 97.1325 15.6666 96.7076 15.8001C95.4053 16.2088 94.2051 16.8294 93.151 17.7119C92.8935 17.9276 92.6757 18.1765 92.4926 18.4565C92.2071 18.8929 92.179 19.3478 92.3813 19.8279C92.6938 20.568 93.2094 21.1642 93.7368 21.7508C94.3552 22.4384 95.0151 23.0849 95.7078 23.6978C95.7999 23.7795 95.885 23.8694 95.9727 23.9556C96.0315 24.0133 96.0555 24.0769 95.9978 24.1498C95.9338 24.2312 95.8702 24.1919 95.8077 24.1476C95.4049 23.8639 94.9962 23.588 94.6005 23.295C93.7579 22.6714 92.9505 22.0068 92.2411 21.2297C91.9323 20.8909 91.6589 20.5288 91.4577 20.1157C91.1189 19.4211 91.1078 18.7191 91.4126 18.0108C91.7018 17.3387 92.1741 16.8065 92.7141 16.3297C93.5519 15.59 94.5002 15.0186 95.507 14.5444C95.753 14.4286 95.8695 14.2929 95.9161 14.0111C96.2489 12.0016 97.3759 10.521 99.0551 9.43177C100.384 8.56961 101.857 8.06068 103.394 7.7204C104.441 7.4885 105.501 7.35683 106.57 7.28618C106.821 7.26954 106.826 7.26991 106.826 6.95811C106.828 5.72572 106.827 4.49334 106.827 3.26095C106.827 2.64475 106.826 2.02856 106.828 1.41236C106.829 1.29105 106.807 1.16751 106.854 1.04509C106.99 1.02068 107.087 1.11166 107.19 1.16714C108.831 2.05297 110.398 3.05123 111.817 4.26809C114.232 6.34007 116.262 8.73309 117.844 11.5008C117.983 11.7445 118 11.9524 117.889 12.222C117.268 13.7348 116.964 15.3174 117.057 16.9489C117.215 19.7003 118.231 22.0911 120.235 24.0174C121.589 25.3197 123.216 26.1064 125.078 26.3505C128.246 26.7651 131.007 25.8064 133.43 23.7821C133.647 23.6009 133.845 23.3964 134.053 23.204C134.123 23.1393 134.189 23.0424 134.297 23.1523C134.39 23.2458 134.302 23.3109 134.256 23.3745C133.827 23.9652 133.335 24.5019 132.785 24.9794C131.216 26.342 129.413 27.2282 127.355 27.5703C124.795 27.996 122.402 27.5348 120.203 26.157C118.126 24.8559 116.715 22.9936 115.786 20.7533C114.667 18.0555 114.632 15.2937 115.372 12.5009C115.444 12.2272 115.421 12.0253 115.263 11.786C113.676 9.37629 111.731 7.30135 109.454 5.53339C109.389 5.48309 109.332 5.41097 109.19 5.40098L109.189 5.40061Z" fill="#D35D2F"/>
</svg>
