<svg width="173" height="138" viewBox="0 0 173 138" fill="none" xmlns="http://www.w3.org/2000/svg">
<g filter="url(#filter0_d_1230_32762)">
<path d="M11.7355 58.2964C11.7615 58.343 11.7872 58.3897 11.8126 58.4366C11.8153 58.4414 11.8182 58.4464 11.8207 58.4507C11.6795 58.1837 11.6898 58.2096 11.7355 58.2964Z" fill="#F65D00"/>
<path d="M168.925 68.8064C168.63 64.6715 167.625 60.7316 165.243 57.2283C163.464 54.6118 160.803 52.5544 157.939 51.1142C154.159 49.2128 149.747 48.4253 145.467 48.7999C145.707 48.1188 145.921 47.4292 146.107 46.7327C146.999 43.3993 147.258 39.9721 146.887 36.5491C146.348 31.5653 144.394 26.763 141.299 22.7271C134.77 14.2153 123.059 8.49627 112.065 11.7656C107.194 13.2143 102.998 16.1643 99.0973 19.291C98.6388 18.5316 98.1653 17.7801 97.6523 17.0537C96.8187 15.8727 95.8849 14.7644 94.8907 13.7046C92.9935 11.6822 90.8789 9.84794 88.5699 8.26732C84.1069 5.21223 78.9459 2.97076 73.5896 1.83495C67.8366 0.615039 61.8471 0.621424 56.1364 2.05626C53.0222 2.83868 49.9326 4.12999 47.3821 6.03555C44.9565 7.84798 43.0388 10.11 41.5214 12.665C38.8179 17.2172 37.6374 22.4568 36.7945 27.6255C34.6997 27.0698 32.5606 26.73 30.3431 26.6748C27.1186 26.5946 23.8134 27.0502 20.7659 28.0723C14.8517 30.056 10.0426 34.0366 6.96626 39.2488C3.98267 44.3037 3.26025 50.2376 4.75196 55.838C6.17646 61.1859 9.85585 66.1427 14.8556 68.9281C20.1842 71.8967 26.3756 72.6625 32.4278 72.1167C32.2382 75.9969 33.4981 79.8757 35.9584 83.0702C39.7873 88.0419 46.1981 89.9234 52.4354 89.4294C54.4765 89.2678 56.4832 88.9276 58.4702 88.494C58.3492 93.3587 57.8234 98.2126 56.9026 102.998C56.2512 106.384 55.345 109.713 54.3723 113.025C53.04 117.561 51.1771 121.926 49.779 126.441C49.6348 126.907 49.6619 127.386 49.9247 127.758C49.9192 127.762 49.9136 127.767 49.9079 127.771C49.6155 128.003 49.5373 128.443 49.5924 128.779C49.6263 128.984 49.911 129.702 50.23 129.651C50.9465 129.538 51.6922 129.612 52.3793 129.363C52.7557 129.226 53.1253 129.056 53.4918 128.896C54.0507 128.653 54.605 128.404 55.1443 128.123C56.142 127.604 57.1412 127.091 58.1214 126.54C59.7144 125.646 61.2238 124.696 62.6991 123.631C65.0711 121.917 67.3245 120.044 69.4382 118.043C73.3032 114.386 76.7349 110.33 79.6794 105.954C80.2465 105.111 80.7879 104.253 81.3172 103.388C81.8271 104.107 82.3528 104.815 82.9084 105.502C84.551 107.533 86.3656 109.394 88.4226 111.042C92.3809 114.215 97.0518 116.553 102.119 117.555C107.033 118.527 112.279 118.279 116.996 116.59C121.528 114.968 125.442 111.921 128.089 108.04C129.845 105.467 130.973 102.556 131.369 99.544C136.396 101.197 141.916 101.352 147.094 99.9952C154.04 98.1743 159.972 93.9636 163.816 88.111C167.554 82.419 169.405 75.5225 168.926 68.8063L168.925 68.8064Z" fill="#F65D00"/>
<path d="M162.691 68.5811C162.696 68.6186 162.701 68.6701 162.708 68.7307C162.703 68.6808 162.697 68.631 162.691 68.5811Z" fill="#F65D00"/>
<path d="M68 39.245C66.7403 39.0412 64.9973 39.7837 64.8748 41.1901C64.6754 43.4788 64.5189 45.7655 64.1904 48.0416C63.929 49.8526 63.6389 51.6598 63.3201 53.4622C62.6887 57.0308 61.9167 60.6101 61.0227 64.1082C60.8061 64.9558 60.5834 65.802 60.3544 66.6466C60.3117 66.8039 60.27 66.9619 60.2278 67.1198C60.2211 67.0998 60.2126 67.0789 60.2061 67.0589C59.0923 63.6441 58.859 60.0032 58.4507 56.4654C57.9605 52.2159 57.5067 47.9621 57.207 43.6958C57.127 42.5569 55.7463 41.7661 54.678 41.8437C53.436 41.9341 52.5673 42.7991 52.4029 43.9768C51.5521 50.0735 50.4131 56.1216 48.9481 62.084C48.7388 62.9362 48.557 63.8375 48.3245 64.7167C47.9396 62.6741 47.7695 60.5413 47.5543 58.4865C47.3417 56.4549 47.1742 54.4171 46.9863 52.3832C46.7797 50.147 46.4264 47.9396 46.1307 45.7141C45.8669 43.7286 45.7059 41.7465 45.5473 39.7492C45.4623 38.6811 43.8184 38.8153 43.8304 39.8706C43.8547 41.9994 43.8671 44.1163 43.7371 46.2414C43.577 48.8577 43.4839 51.4633 43.4778 54.0849C43.4675 58.5624 42.9904 63.2227 44.0538 67.6269C44.592 69.8561 46.3595 71.7291 48.9522 71.1408C51.1183 70.6493 52.2239 68.8112 52.7225 66.871C53.205 64.9939 53.6624 63.1105 54.0987 61.2228C54.3906 63.7216 54.7874 66.2137 55.6306 68.5772C56.3181 70.5046 57.3152 72.5935 59.647 72.9907C62.1075 73.4099 63.8884 71.5577 64.5758 69.4843C65.2794 67.362 65.7173 65.1141 66.2275 62.9457C66.6865 60.9945 67.1101 59.0358 67.4983 57.0706C68.4711 52.1468 69.2013 47.1899 70.0274 42.2432C70.2452 40.9392 69.451 39.4797 68 39.245Z" fill="white"/>
<path d="M91.3444 46.0788C90.6364 44.3504 89.5667 42.8135 87.8375 41.8913C86.9106 41.397 85.9011 41.2312 84.9068 41.3143C84.6196 41.0918 84.2354 40.9877 83.7806 41.102C80.8035 41.8501 78.7677 44.3374 77.5867 46.9214C76.2741 49.7933 75.8286 52.9657 75.4233 56.0512C75.0596 58.8202 74.8312 61.6099 74.7023 64.3979C74.5966 66.682 74.5511 69.2291 76.0718 71.1417C77.7651 73.2714 80.6794 73.6535 83.1561 72.6727C85.7051 71.6632 87.5806 69.4939 88.9353 67.2587C91.3159 63.3311 92.31 58.6007 92.5243 54.1046C92.6516 51.4309 92.371 48.5852 91.3444 46.0788ZM87.2339 54.9006C87.1146 56.6168 86.7902 58.3411 86.3511 60.0076C86.1429 60.7983 85.8988 61.5806 85.6094 62.3475C85.5631 62.4702 85.5146 62.5924 85.4658 62.7144C85.454 62.732 85.2569 63.1877 85.2611 63.1788C85.0803 63.5665 84.8863 63.9484 84.6772 64.3227C84.4689 64.6955 84.2463 65.0611 84.008 65.4169C83.9128 65.559 83.8152 65.6999 83.7151 65.8388C83.7193 65.8329 83.4076 66.2371 83.4107 66.2425C82.9218 66.8326 82.3683 67.4072 81.7412 67.8605C81.3026 68.1776 80.4934 68.6818 79.9333 68.3901C79.5714 68.2016 79.3884 67.312 79.3259 66.7847C79.0786 64.697 79.2487 62.5299 79.3511 60.4394C79.4574 58.2693 79.6036 56.0953 79.8591 53.9362C80.1027 51.8778 80.4276 49.7349 81.3408 47.8383C81.7106 47.0702 82.1655 46.4113 82.6797 45.8029C83.4338 46.2252 84.379 46.1551 85.2117 45.7491C84.9294 45.8868 85.2831 45.9465 85.4111 46.0624C85.7945 46.4094 85.8368 46.5637 86.0641 46.9973C86.0683 47.0053 86.1376 47.1631 86.1685 47.231C86.2542 47.4426 86.3277 47.6594 86.4041 47.8741C86.5808 48.3701 86.7482 48.8678 86.88 49.3769C87.3413 51.1586 87.3605 53.0785 87.2338 54.9007L87.2339 54.9006Z" fill="white"/>
<path d="M115.417 48.9198C114.926 47.4441 114.002 46.2664 112.912 45.1513C112.316 44.5422 111.774 43.9651 110.978 43.591C108.317 42.3405 105.473 43.6649 103.545 45.5246C103.407 45.5669 103.274 45.65 103.16 45.7863C98.4445 51.3885 96.5687 58.6352 94.9543 65.5275C94.1053 69.1518 93.7992 73.8216 97.6923 76.0042C101.432 78.1009 105.356 75.6579 107.976 73.0798C112.764 68.3678 115.382 61.7581 116.008 55.2676C116.214 53.135 116.098 50.9659 115.417 48.9199L115.417 48.9198ZM110.722 52.8569C110.698 53.8161 110.596 54.7748 110.475 55.7267C110.274 57.3159 109.905 58.8927 109.433 60.4276C108.573 63.2287 107.305 65.9705 105.485 68.3233C104.408 69.7154 102.921 71.3796 101.172 72.0657C99.5269 72.7108 98.5547 71.2347 98.4072 69.8215C98.3695 69.4612 98.3675 69.0964 98.3836 68.7301C98.6201 68.4108 98.7695 68.0182 98.8179 67.5967C99.0837 65.2798 99.4383 62.9739 99.9112 60.6927C100.016 60.2395 100.119 59.7859 100.225 59.3327C100.596 57.7502 101.023 56.1822 101.507 54.6312C101.7 54.0447 101.902 53.4608 102.118 52.8802C102.774 51.1137 103.656 49.3263 104.887 47.8581C106.072 46.4448 108.495 44.9792 110.007 46.5613C110.404 48.6621 110.778 50.7164 110.722 52.8569H110.722Z" fill="white"/>
<path d="M126.647 70.8267C126.668 70.838 126.686 70.8498 126.706 70.8611C126.866 70.9496 127.027 71.0379 127.184 71.1285C127.005 71.0279 126.826 70.9273 126.647 70.8267Z" fill="white"/>
<path d="M139.256 61.3394C137.089 59.3202 134.38 57.7788 131.473 56.9741C129.965 56.5567 128.056 55.9973 126.587 56.8152C125.364 57.4961 124.682 58.9277 123.923 60.028C122.737 61.7479 121.59 63.4913 120.461 65.2454C120.123 65.754 119.792 66.2675 119.469 66.7861C117.927 69.2259 116.434 71.6934 114.984 74.1849C113.427 76.8608 111.901 79.5536 110.479 82.2979C109.966 83.2287 110.145 84.3981 111.124 84.9869C112.011 85.5201 113.402 85.2987 113.927 84.3681C116.18 80.3738 118.419 76.3764 120.772 72.4388C121.438 72.932 122.148 73.3855 122.83 73.8463C123.111 74.0358 123.397 74.2137 123.687 74.3884C123.823 74.4704 123.97 74.5493 124.1 74.6396C124.017 74.5911 123.934 74.5426 123.851 74.4941C123.918 74.5392 123.984 74.5845 124.049 74.63C124.291 74.7973 124.532 74.9669 124.771 75.1387C125.596 75.7321 126.364 76.4076 127.107 77.0974C127.179 77.1695 127.251 77.2415 127.323 77.3141C127.785 77.7839 128.31 78.129 128.998 78.2095C129.625 78.2829 130.416 78.0969 130.899 77.6902C131.385 77.2815 131.782 76.7193 131.833 76.083C131.881 75.4758 131.77 74.7041 131.291 74.259C130.652 73.664 130.025 73.0351 129.303 72.5273C128.438 71.9185 127.624 71.3779 126.707 70.8609C125.448 70.166 124.111 69.56 122.685 69.315C122.99 68.8246 123.285 68.329 123.595 67.8412C124.46 66.482 125.34 65.1325 126.239 63.794C126.44 63.4939 128.042 61.2257 128.565 60.4863C128.643 60.5008 128.721 60.5125 128.799 60.5287C129.182 60.6094 129.555 60.7156 129.927 60.8318C130.674 61.065 131.386 61.3446 132.081 61.6955C133.593 62.4588 134.882 63.4542 136.051 64.6412C136.924 65.5268 138.548 65.3787 139.374 64.5278C140.258 63.618 140.17 62.1906 139.256 61.3395L139.256 61.3394Z" fill="white"/>
<path d="M149.131 74.2193C149.017 73.7177 148.784 73.2938 148.393 72.94C148.019 72.6012 147.516 72.3344 146.988 72.3073C146.772 72.3146 146.556 72.3219 146.34 72.3293C146.739 72.3086 146.842 72.2954 146.648 72.29C146.431 72.2735 146.204 72.2614 145.987 72.2722C145.477 72.2976 144.961 72.3677 144.455 72.4199C143.697 72.4981 142.935 72.5882 142.182 72.7118C141.889 72.7153 141.617 72.7847 141.367 72.9201C141.095 73.0148 140.861 73.1694 140.667 73.3839C140.292 73.7694 140.023 74.3987 140.073 74.9334C140.124 75.4709 140.333 76.0266 140.774 76.3871C141.241 76.7695 141.771 76.9522 142.389 76.9565C141.555 76.9507 142.322 76.9563 142.516 76.9574C142.832 76.959 143.147 76.9832 143.462 76.9915C143.98 77.0051 144.498 77.0154 145.016 77.0322C145.389 77.0443 145.767 77.0393 146.141 77.0232C146.485 77.0084 147.379 76.9065 147.76 76.7191C148.129 76.537 148.448 76.2856 148.707 75.9733C149.07 75.5338 149.256 74.767 149.131 74.2193Z" fill="white"/>
<path d="M144.416 85.7049C144.425 85.4191 144.359 85.1465 144.219 84.8873C144.046 84.5391 143.795 84.2533 143.467 84.0299C143.352 83.9388 143.232 83.8545 143.111 83.7711C143.112 83.7718 143.113 83.7725 143.114 83.7732C143.112 83.7719 143.11 83.7708 143.109 83.7695C143.07 83.7431 143.032 83.7157 142.994 83.6896C142.622 83.425 142.253 83.1757 141.858 82.9352C141.51 82.7236 141.167 82.5228 140.806 82.3297C140.945 82.4038 141.083 82.4778 141.221 82.5518C140.628 82.1868 140.031 81.8518 139.396 81.5573C139.184 81.4591 138.89 81.4252 138.657 81.4514C138.348 81.4862 138.071 81.6239 137.848 81.8269C137.657 82.001 137.535 82.1968 137.462 82.44C137.384 82.7021 137.353 83.0607 137.493 83.3119C137.873 83.9916 138.314 84.6523 138.802 85.2658C139.111 85.6542 139.378 86.072 139.696 86.4547C139.918 86.7228 140.167 86.9768 140.4 87.2359C140.812 87.694 141.365 87.9425 141.981 88.0137C142.383 88.0407 142.765 87.9723 143.13 87.8085C143.409 87.6935 143.64 87.5229 143.823 87.2966C144.049 87.0967 144.21 86.8526 144.305 86.5644C144.422 86.2839 144.459 85.9974 144.416 85.7049Z" fill="white"/>
<path d="M39.2769 55.0233C38.9923 54.4233 38.3367 53.9945 37.6292 54.0926C36.7579 54.2135 35.8955 54.3072 35.0512 54.5529C34.7275 54.6472 34.4053 54.7465 34.0843 54.8492C34.2503 54.8024 34.4165 54.7556 34.5826 54.7088C33.4354 55.031 32.3285 55.3857 31.2224 55.8167C30.1807 56.2227 29.6508 57.5827 30.1614 58.5444C30.6918 59.5434 31.911 60.0342 33.0045 59.5623C33.5786 59.3146 34.1443 59.0716 34.7031 58.7922L34.219 59.0335C34.9236 58.7122 35.6288 58.3936 36.3325 58.071C37.1771 57.6953 37.9695 57.2773 38.7583 56.793C39.3175 56.4496 39.5485 55.5964 39.2768 55.0232L39.2769 55.0233Z" fill="white"/>
<path d="M36.7182 57.8955C36.5899 57.9549 36.4608 58.0123 36.3323 58.0713C36.3031 58.0842 36.2763 58.0995 36.2471 58.1124C36.4042 58.0401 36.5611 57.9678 36.7182 57.8955Z" fill="white"/>
<path d="M37.834 48.0286C37.6812 47.7367 37.4628 47.5009 37.1789 47.3213C37.1176 47.1988 37.0564 47.0764 36.9952 46.954C36.965 46.9311 36.9348 46.9082 36.9045 46.8855C36.8537 46.8473 36.803 46.8094 36.7521 46.7717C36.6569 46.7013 36.5607 46.632 36.4644 46.563C36.3002 46.4297 36.138 46.2941 35.9693 46.1662C35.4833 45.798 34.8501 45.6502 34.2726 45.4707C34.0986 45.4494 33.9248 45.4281 33.751 45.4068C33.4775 45.3973 33.2214 45.451 32.9826 45.5678C32.8035 45.6137 32.6482 45.6994 32.5167 45.8249C32.2803 45.969 32.0959 46.1628 31.9635 46.4063C31.8015 46.711 31.7115 47.039 31.6966 47.3807C31.6744 47.8862 31.9471 48.4176 32.2998 48.775C33.0503 49.5354 32.9557 49.4978 33.7693 49.9184C33.8021 49.9354 33.835 49.9522 33.8684 49.9682C33.9284 49.997 33.9896 50.0228 34.0511 50.0484C34.4722 50.2939 34.9209 50.4714 35.3973 50.5808C35.5027 50.5966 35.6082 50.6124 35.7137 50.6283C36.3018 50.6949 36.9643 50.598 37.4055 50.1831C37.757 49.8526 37.9944 49.4363 38.0281 48.9563C38.0496 48.6307 37.9849 48.3215 37.834 48.0286Z" fill="white"/>
<path d="M76.2486 7.49824C75.99 7.23161 73.7111 5.89366 73.3802 5.80269C73.2453 5.76559 73.104 5.74201 72.967 5.71299C72.5326 5.62107 72.0977 5.52983 71.6609 5.44889C71.0598 5.3375 70.4547 5.24626 69.8472 5.1744C68.6317 5.03055 67.4064 4.96565 66.1818 4.97868C63.5239 5.00692 60.9369 5.33729 58.3809 6.02916C55.8699 6.70885 53.4472 7.67659 51.2142 8.98109C48.72 10.4382 46.6065 12.2488 44.6798 14.3428C41.9722 17.2851 39.7553 21.2303 40.1096 25.256C40.1655 25.8906 40.9948 26.3556 41.5131 25.8138C44.6836 22.5005 47.1659 18.6356 50.9202 15.863C51.2439 15.6238 51.5711 15.3891 51.8978 15.1538C51.9723 15.1001 52.5498 14.7166 52.4983 14.7414C52.9608 14.4505 53.4219 14.1592 53.8981 13.8885C54.4663 13.5654 55.0458 13.2607 55.6353 12.9748C55.7214 12.9326 55.8085 12.8918 55.8952 12.8508C55.8276 12.8844 55.9101 12.8502 56.1461 12.7466C56.5119 12.6039 56.8733 12.4519 57.2418 12.3149C58.6742 11.7821 60.1285 11.3806 61.6398 11.1133C62.2921 10.998 62.9478 10.8963 63.6064 10.8195C63.9759 10.7763 64.3462 10.7446 64.7167 10.7122C64.7691 10.7085 64.7997 10.7063 64.8373 10.7037C65.0081 10.6956 65.1789 10.6888 65.3497 10.6839C66.7438 10.6439 68.1417 10.7066 69.5252 10.8758C70.16 10.9534 70.7913 11.0543 71.4187 11.1751C71.4511 11.1822 71.4734 11.1872 71.5157 11.1963C71.8549 11.2769 72.1959 11.35 72.5386 11.416C73.3162 11.4975 74.1209 11.4687 74.8815 11.3055C76.6 10.9367 77.5309 8.81984 76.2485 7.49819L76.2486 7.49824Z" fill="#EDBEAC"/>
<path d="M85.5491 11.3436C85.3962 10.6311 84.967 10.1302 84.3137 9.76908C83.3537 9.2383 82.2729 8.95774 81.1761 8.85448C80.8251 8.83152 80.4764 8.82023 80.1179 8.84746C79.656 8.8826 79.2109 8.94487 78.755 9.02755C77.9645 9.17097 77.4397 9.91683 77.4986 10.6602C77.5246 10.9871 77.6434 11.3301 77.8885 11.5724C77.9924 11.6591 78.0963 11.7457 78.2002 11.8323C78.4431 11.986 78.71 12.0714 79.0009 12.0883C79.7776 12.3993 80.5191 12.7288 81.2168 13.1737C81.3498 13.2585 81.4798 13.3477 81.6112 13.4347C81.6355 13.4543 81.66 13.474 81.6843 13.4937C82.7691 14.3689 84.39 14.1952 85.1938 13.0577C85.5647 12.5326 85.6824 11.9649 85.5491 11.3436Z" fill="#EDBEAC"/>
<path d="M81.041 8.8374C81.0863 8.84111 81.1309 8.85024 81.1761 8.85459C81.3073 8.86334 81.4375 8.86833 81.5706 8.88138C81.394 8.86672 81.2175 8.85206 81.041 8.8374Z" fill="#EDBEAC"/>
<path d="M16.1104 37.856C15.7147 37.3376 15.1469 36.8964 14.4675 36.7864C14.2406 36.769 14.0137 36.7514 13.7868 36.7339C13.3043 36.7601 12.8611 36.9005 12.4573 37.1553C12.0704 37.5162 11.6406 37.8053 11.2697 38.1777C10.6939 38.7558 10.1867 39.2654 9.67183 39.8856C9.80257 39.7283 9.93319 39.5712 10.0638 39.414C9.64307 39.8989 9.32786 40.2867 8.98433 40.8121C9.094 40.6449 9.20356 40.4777 9.31323 40.3106C8.96459 40.7966 8.67507 41.2234 8.38087 41.7355C8.47905 41.5648 8.57728 41.3942 8.67556 41.2235C8.27813 41.8481 7.84902 42.4846 7.54652 43.1587C7.32691 43.6481 7.19683 44.0955 7.34104 44.631C7.46853 45.1048 7.84842 45.6202 8.30954 45.8481C8.77396 46.0776 9.33034 46.1956 9.84426 46.0453C10.4014 45.8822 10.7763 45.5704 11.1129 45.116C11.0506 45.1988 11.0046 45.26 10.9598 45.3198C11.1518 45.0987 11.3447 44.8784 11.5333 44.6546C11.4025 44.789 11.2716 44.9233 11.1409 45.0577C11.7188 44.4652 12.2808 43.8366 12.9207 43.3028C13.2247 43.0492 13.5139 42.7785 13.8083 42.5141C14.32 42.114 14.8326 41.7176 15.38 41.3608C15.9312 41.0015 16.3553 40.4117 16.4949 39.7845C16.6315 39.1709 16.5034 38.3709 16.1104 37.8559V37.856Z" fill="#EDBEAC"/>
<path d="M10.9508 45.332C10.9534 45.3285 10.9572 45.3234 10.9599 45.3198C10.8429 45.4548 10.7274 45.5911 10.6104 45.726C10.7238 45.5946 10.8373 45.4633 10.9508 45.332Z" fill="#EDBEAC"/>
<path d="M10.8433 45.4764C10.882 45.4252 10.9205 45.374 10.9589 45.3228C10.9563 45.3259 10.9535 45.329 10.9509 45.3321C10.7707 45.5719 10.7305 45.6256 10.8433 45.4764Z" fill="#EDBEAC"/>
<path d="M118.402 16.0945C118.233 15.9598 118.063 15.825 117.894 15.6902C117.509 15.4584 117.09 15.331 116.637 15.3081C116.219 15.3655 115.833 15.3367 115.433 15.4124C115.063 15.4822 114.674 15.535 114.312 15.6366C114.258 15.6517 114.204 15.6717 114.15 15.6891C113.513 15.9055 112.928 16.142 112.35 16.4722C111.533 16.9394 110.846 17.5025 110.17 18.1416C109.49 18.785 109.447 19.8278 110.012 20.5429C110.583 21.2663 111.625 21.486 112.465 21.0402C113.102 20.7023 113.722 20.4957 114.434 20.3523C114.235 20.3749 114.036 20.3975 113.837 20.42C114.707 20.3229 115.517 20.1922 116.388 20.2585C117.044 20.3084 117.797 20.0216 118.273 19.5966C118.726 19.1906 119.09 18.5083 119.092 17.9025C119.094 17.2521 118.9 16.5644 118.402 16.0946L118.402 16.0945Z" fill="#EDBEAC"/>
<path d="M114.132 15.6952C114.138 15.6932 114.144 15.6912 114.15 15.6892C114.153 15.6879 114.157 15.6863 114.16 15.6851C114.151 15.6885 114.141 15.6918 114.132 15.6952Z" fill="#EDBEAC"/>
<path d="M114.132 15.6948C113.938 15.7576 113.744 15.8277 113.564 15.8894C113.753 15.8245 113.942 15.7597 114.132 15.6948Z" fill="#EDBEAC"/>
<path d="M161.132 59.0082C160.967 58.8947 160.801 58.7812 160.636 58.6677C160.255 58.4748 159.849 58.3867 159.418 58.4034C159.471 58.4076 159.506 58.4102 159.545 58.4132C159.345 58.3922 159.147 58.4057 158.95 58.4564C158.476 58.5102 158.3 58.5405 157.809 58.6315C157.995 58.597 158.181 58.5626 158.367 58.5281C157.379 58.6356 156.391 58.7291 155.409 58.8748C154.968 58.9401 154.428 59.4101 154.242 59.7823C154.057 60.1518 153.987 60.5283 154.052 60.9351C154.115 61.3304 154.302 61.7457 154.628 62.0127C155.031 62.3424 155.463 62.4753 155.99 62.5106C156.005 62.5116 155.095 62.4344 155.51 62.4721C155.668 62.4864 155.822 62.5017 155.98 62.5216C156.218 62.5517 156.455 62.578 156.694 62.5996C157.173 62.6428 157.648 62.7098 158.127 62.7487C157.94 62.7224 157.754 62.696 157.567 62.6697C158.258 62.7688 158.941 62.8684 159.637 62.9092C160.188 62.9415 160.884 62.5665 161.245 62.1956C161.644 61.7865 161.929 61.1182 161.875 60.551C161.821 59.9799 161.599 59.392 161.132 59.0082Z" fill="#EDBEAC"/>
<path d="M62.3922 102.709C61.8112 102.066 60.803 101.86 60.0006 102.224C58.7059 102.812 58.5116 103.715 58.4184 104.682C58.4195 104.669 58.4209 104.656 58.422 104.643C58.2964 105.368 58.1893 106.033 57.9945 106.744C57.8848 107.145 57.8129 107.548 57.7642 107.961C57.7841 107.814 57.804 107.667 57.8239 107.52C57.7678 107.83 57.7148 108.141 57.6648 108.452C57.5603 109.084 58.0367 109.825 58.6686 110.031C59.3746 110.261 60.0528 110.047 60.5304 109.511C61.3649 108.574 61.9694 107.446 62.4524 106.308C62.6232 105.905 62.8012 105.504 62.9515 105.094C63.2705 104.224 63.0079 103.391 62.3923 102.709L62.3922 102.709Z" fill="#EDBEAC"/>
</g>
<defs>
<filter id="filter0_d_1230_32762" x="0" y="0.948242" width="173" height="136.706" filterUnits="userSpaceOnUse" color-interpolation-filters="sRGB">
<feFlood flood-opacity="0" result="BackgroundImageFix"/>
<feColorMatrix in="SourceAlpha" type="matrix" values="0 0 0 0 0 0 0 0 0 0 0 0 0 0 0 0 0 0 127 0" result="hardAlpha"/>
<feOffset dy="4"/>
<feGaussianBlur stdDeviation="2"/>
<feComposite in2="hardAlpha" operator="out"/>
<feColorMatrix type="matrix" values="0 0 0 0 0 0 0 0 0 0 0 0 0 0 0 0 0 0 0.25 0"/>
<feBlend mode="normal" in2="BackgroundImageFix" result="effect1_dropShadow_1230_32762"/>
<feBlend mode="normal" in="SourceGraphic" in2="effect1_dropShadow_1230_32762" result="shape"/>
</filter>
</defs>
</svg>
