<svg width="39" height="47" viewBox="0 0 39 47" fill="none" xmlns="http://www.w3.org/2000/svg">
<path d="M1.85072 26.5149C1.81563 26.5498 1.54729 27.6204 1.25463 28.8937C0.961974 30.1672 0.767249 31.2229 0.821602 31.2398C0.876119 31.2566 1.75997 31.3884 2.78583 31.5325C4.84586 31.8219 7.25111 32.5227 8.75537 33.2715C13.4435 35.6055 16.5476 39.7931 17.3544 44.8721L17.5599 46.1655H19.6309H21.702L21.8987 44.9932C23.1872 37.3131 28.9297 32.306 37.5234 31.3693C38.0846 31.3082 38.5435 31.2351 38.5435 31.207C38.5435 30.948 37.5092 26.6561 37.4273 26.5749C37.368 26.5162 36.8419 26.5599 36.2584 26.6721C29.7969 27.914 24.539 31.4701 22.3406 36.0847L21.8132 37.1916L21.7719 14.4289L21.7457 0.0351562L17.5544 0.0351562L17.5281 14.4659L17.4866 37.175L16.7786 35.7775C14.9418 32.1521 11.3389 29.2818 6.50273 27.5914C5.12497 27.1098 1.98391 26.383 1.85072 26.5149Z" fill="currentColor"/>
</svg>
