<svg width="102" height="107" viewBox="0 0 102 107" fill="none" xmlns="http://www.w3.org/2000/svg">
<path fill-rule="evenodd" clip-rule="evenodd" d="M29.0307 95.9773C29.4139 96.1436 29.8409 96.2692 30.2237 96.4359C30.8619 96.7131 33.5421 97.6455 34.1107 97.698C34.6678 97.9882 34.3085 97.4834 34.834 98.7451C35.688 100.798 37.8054 102.686 39.8886 102.636C41.2643 102.602 42.0707 101.844 42.5185 101.713C43.3014 105.381 46.826 105.317 48.8538 102.893C48.9631 102.744 49.095 102.616 49.2439 102.515C50.977 105.341 54.4144 104.002 56.5564 102.239C56.8765 101.975 57.1265 101.713 57.4412 101.483C57.4435 102.285 57.5659 103.081 57.8029 103.84C58.8562 107.176 62.6959 106.324 64.4444 104.08C64.4583 104.062 64.4783 104.036 64.4921 104.018L64.5879 103.892C64.6222 103.847 64.6572 103.806 64.7322 103.705C64.8626 103.533 64.9034 103.47 65.0092 103.318C66.2094 101.586 66.3545 99.9572 66.498 97.6955C66.8654 97.4809 67.1947 97.4855 67.624 97.3389C72.0489 95.8303 75.2077 94.4577 79.0009 91.4035C79.2568 91.1973 79.4837 91.012 79.7219 90.8138C79.9977 90.5845 80.1785 90.3644 80.487 90.1237C80.6594 89.9671 80.7694 89.9129 80.9487 89.747C81.0972 89.6029 81.2388 89.4505 81.3726 89.2904C81.6823 88.9473 82.0259 88.7814 82.2409 88.3736C82.8641 87.9053 83.2446 87.2442 83.7921 86.6537C83.9409 86.4928 84.0167 86.4113 84.151 86.2429L87.8903 80.8308C88.7117 80.898 89.2145 81.1748 90.239 81.1748C90.3994 81.1748 90.611 81.1903 90.7622 81.1832C90.8568 81.1828 90.9514 81.1723 91.0445 81.1521C91.29 81.095 91.1403 81.1538 91.2646 81.0601C92.1771 81.0601 92.9742 80.5927 93.5921 80.2579C94.2057 79.9329 94.7604 79.4889 95.2286 78.9475C95.2428 78.9299 95.2625 78.903 95.2767 78.885C97.066 76.5414 95.1151 74.8345 94.6419 74.0621C96.07 73.2368 96.702 71.7819 96.5224 69.9436C96.4458 69.159 96.1396 68.9423 96.008 68.3253C96.8286 68.1535 97.6038 67.7856 98.2789 67.248C100.061 65.8053 99.4111 62.2433 98.5502 60.3869C98.3193 59.8875 98.1239 59.7254 97.8996 59.2621C99.0518 58.6573 99.7847 58.3171 100.634 56.8555C102.372 53.8664 101.317 49.2367 99.1341 46.6705L97.8992 45.2871C97.9342 44.4219 97.9139 43.555 97.8384 42.6931C97.7434 41.8828 97.6938 41.0673 97.6892 40.2506C97.658 39.7952 97.5403 39.4149 97.4841 38.9495C97.4387 38.5352 97.3668 38.1247 97.2687 37.7215C97.1533 37.1217 96.1804 32.901 95.6922 32.3504C95.6072 31.925 95.4763 31.5122 95.3025 31.1204C95.2121 30.8908 95.1505 30.7663 95.0643 30.5778C94.9851 30.3702 94.8781 30.1769 94.7462 30.004C94.5827 29.3423 93.6298 27.7766 93.242 27.0604L91.9955 24.9805C91.7974 24.6612 91.6912 24.5604 91.4893 24.2089C91.3738 24.0474 91.2854 23.8614 91.1769 23.6971C91.013 23.4484 90.9145 23.3751 90.7387 23.14C90.4202 22.7149 90.3182 22.4304 89.9135 22.061C89.675 21.7369 89.5942 21.592 89.3095 21.2584C88.4786 20.2845 88.2285 19.8496 87.2075 18.7346C86.1919 17.6258 85.3016 16.697 84.2387 15.6198C83.9617 15.2859 83.4143 14.9704 83.1881 14.6333C83.2231 14.1739 83.3623 13.8231 83.445 13.3078C83.527 12.8149 83.5812 12.317 83.6085 11.8168C83.6085 11.2479 83.5378 11.2942 83.5035 10.8538C83.4689 9.11808 81.4107 4.11169 78.1884 6.42164C77.8476 6.66578 77.5948 6.96264 77.3028 7.17604C76.4588 5.79873 75.3162 4.98935 73.6481 5.25063C73.0076 5.35143 72.7929 5.66341 72.259 5.79924C71.9858 5.17806 71.6711 2.36519 69.2148 2.2392C66.8769 2.11951 65.8863 2.66909 64.2725 3.84888C63.7139 2.57837 63.2464 1.58454 61.9954 0.828085C59.5048 -0.678018 56.4695 0.0403866 54.2047 1.69163C53.3507 2.31479 52.0234 3.46007 51.5568 4.42239H44.3985L42.9097 4.53731C41.8745 4.53731 39.6713 4.75852 38.9969 5.11077C38.7184 5.11934 37.158 5.5422 36.8668 5.79924C36.0208 5.9945 32.7212 7.39201 31.6586 7.94107L30.9904 8.32411C30.5164 8.36267 30.2548 8.59299 29.9086 8.78321L29.2096 9.16646C29.1842 9.18385 29.1107 9.24206 29.0903 9.25718L28.983 9.35672C28.5363 9.4608 28.3567 9.67248 27.9824 9.89268C27.5853 10.1258 27.3076 10.2795 26.9606 10.4975C26.5297 10.7683 25.3023 11.5215 25.0861 11.8801C24.6694 11.9952 24.3883 12.3289 24.0534 12.6008C23.8708 12.7489 23.745 12.8326 23.5737 12.9974C23.4158 13.1198 23.2939 13.2896 23.2226 13.4862C22.7956 13.5911 22.1352 14.3974 21.7421 14.7812L20.3613 16.2566C19.9989 16.5596 19.664 16.8998 19.3609 17.2723C19.1973 17.3784 19.0519 17.5148 18.9314 17.6755C18.7592 17.8854 18.7144 17.9625 18.5341 18.1623C18.2255 18.5047 17.831 18.7376 17.7184 19.2458C17.2886 19.4935 15.8259 21.6319 15.4219 22.2193C15.0372 22.7786 14.7403 23.236 14.3768 23.8319C14.0162 24.3763 13.6931 24.949 13.4098 25.5454L8.8909 25.6434C7.39593 25.6363 6.8136 26.0179 5.65956 27.2784C4.04853 29.0371 3.26931 31.2668 4.26758 33.6741C4.42992 33.9675 4.57042 34.2744 4.6876 34.5924C2.42918 34.7978 1.1283 37.843 2.51178 40.4098C2.80516 40.9544 3.39464 41.8873 3.95204 42.0497C3.57192 42.6696 0.729245 44.3744 3.55022 49.4866L4.56138 51.0217C4.80832 51.3241 4.79636 51.1574 4.89769 51.5724C3.16847 51.5724 2.16512 51.9323 1.29472 52.9159C-0.0757911 54.4657 0.525235 56.8648 1.75914 58.6704C2.11192 59.1626 2.52644 59.5981 2.99047 59.964C3.79001 60.6498 5.37195 61.5768 6.36884 61.6679C6.31345 62.3962 4.20987 64.7637 5.71958 66.9662C6.04315 67.4635 6.51561 67.8213 7.05527 67.978L7.51273 68.3308L8.1553 70.6941L8.99612 73.01C9.03466 73.5434 9.54363 74.6417 9.7301 75.0915L10.5721 77.1554C10.9559 77.987 12.0842 80.4163 12.569 81.006C12.6996 81.452 12.9041 81.6675 13.1273 82.0522C13.2813 82.3176 13.3164 82.3558 13.465 82.6011C13.6935 82.9791 13.5218 82.8766 13.8329 83.1207C14.5053 84.2034 15.2481 85.232 16.0551 86.1984L17.5868 87.9679C18.0753 88.5009 18.4965 89.0666 19.0844 89.4059C19.3626 89.923 20.446 90.7621 20.925 91.1515L23.6072 93.0973C24.0238 93.359 26.0195 94.616 26.5455 94.7483C26.7398 94.9697 27.4257 95.2523 27.7169 95.3783C28.1455 95.6018 28.584 95.8017 29.0307 95.9773Z" fill="currentColor"/>
<path fill-rule="evenodd" clip-rule="evenodd" d="M70.8991 63.2108C70.9045 62.3557 71.4373 58.9915 71.7324 58.4136C74.4938 59.1536 93.4052 68.1219 94.5555 69.2454C94.6016 70.4432 93.6383 71.8045 93.0647 72.1888C92.3438 71.8481 91.3816 71.1493 90.5768 70.6999C87.9924 69.2723 85.3148 68.056 82.5657 67.0614C80.8461 66.4465 72.0209 63.2058 70.8991 63.2108ZM36.0028 63.0307C34.8779 63.0252 32.9271 62.5485 31.6949 62.3641C27.3785 61.719 23.2628 61.0138 18.8732 60.5128C15.2101 60.0949 11.2842 59.6883 7.55731 59.5762C6.68368 59.5497 5.94623 59.7122 5.52363 59.1528C4.88291 58.3044 4.06814 56.9465 4.35505 55.3413C4.63573 53.7697 5.73276 53.277 7.227 53.0426C7.62905 52.9796 18.4254 55.0712 19.6841 55.2707C22.541 55.7239 25.3765 56.2094 28.2198 56.6362C30.9651 57.0486 33.93 57.4774 36.636 58.0201L36.0028 63.0307ZM73.4401 48.9577L72.1421 55.6248C72.8615 55.7256 74.6185 56.5824 75.379 56.8877C80.2029 58.8302 86.4136 61.8505 91.0589 64.2088C93.638 65.5179 93.958 66.3256 95.5269 64.822C95.9019 64.4624 96.364 64.0156 96.1474 63.1197C95.8369 61.8345 94.9279 61.0407 94.2381 60.3897C93.4379 59.5871 92.5423 58.9054 91.5759 58.3636C89.0122 56.9852 74.9655 49.1765 73.4401 48.9577ZM18.5711 52.2333L37.025 55.2069L38.0945 48.4949C33.0517 47.3579 27.1115 46.793 21.8345 46.2605C17.5896 45.8321 13.8353 45.2777 9.66596 44.6477C8.47845 44.4683 6.67606 44.0828 5.52664 44.0954C4.84898 45.3302 5.42461 47.5982 5.83105 48.8384C6.23107 50.0615 6.03626 49.9099 7.27501 50.1215C11.0497 50.7662 14.6803 51.5903 18.5711 52.2333ZM74.083 46.1353C74.081 44.8682 75.6637 39.7351 75.9111 37.9991C77.2341 38.1611 81.4085 39.8977 82.8462 40.4707C85.0848 41.364 85.7338 41.5039 87.7369 42.7006C91.1724 44.7518 92.9532 46.1668 95.3626 49.2958C95.6973 49.7414 96.0074 50.2089 96.2909 50.6948C97.2196 52.2161 98.1579 54.579 96.9853 56.317C95.7908 58.0877 94.6701 56.8764 92.5677 55.676C91.9829 55.3421 91.5128 55.1897 90.9727 54.8927L86.4886 52.4483C84.5327 51.3576 82.4322 50.177 80.3567 49.1568L74.083 46.1353ZM5.73692 41.2443C5.62716 40.9944 5.49505 40.757 5.34244 40.5352C4.30843 39.0973 4.34744 38.8735 5.98871 37.3915C6.51245 36.9183 6.28439 36.5115 6.57819 35.9234C7.59124 35.8284 9.79014 36.1691 10.8853 36.3011C17.9816 37.1665 24.7094 37.7123 31.6949 38.4998C34.409 38.8055 37.1569 39.3244 39.833 39.6467L38.6042 45.7027C35.922 45.3419 33.2672 44.7926 30.5396 44.4364C25.0893 43.7245 19.2853 43.2613 13.8983 42.4591L5.73738 41.2431L5.73692 41.2443ZM6.37164 32.9792C12.0342 33.4858 17.7441 34.3254 23.4676 34.8514C26.3344 35.1147 29.167 35.3876 32.013 35.7192L40.4146 36.8782L42.1623 29.9784C39.2986 29.7206 36.3329 29.264 33.3772 29.0254C30.5646 28.7986 27.1092 28.4206 24.2891 28.4904L24.9688 28.731C22.5708 28.8066 24.1965 28.4347 22.4475 28.3903C20.534 28.3422 14.9846 28.0506 13.7716 28.3183C11.789 28.755 10.9705 28.8076 9.38624 29.8607C8.38081 30.5288 6.8194 31.9453 6.37187 32.9782L6.37164 32.9792ZM50.8929 100.795C52.0885 101.672 54.9277 100.699 55.9691 100.103C56.4265 99.6034 59.2825 78.288 59.5861 75.9478C61.9293 57.8697 66.7501 30.4167 73.4039 13.5925C74.111 11.8049 75.0528 10.2663 75.6483 8.899C75.204 8.08131 73.8606 7.26436 73.0108 7.32686C72.2229 8.75587 71.4623 10.7448 70.8068 12.2484C70.0659 13.9477 69.3892 15.6043 68.6971 17.288C67.3041 20.6787 65.9599 24.1461 64.75 27.6656C63.5143 31.2611 62.3263 34.7243 61.1884 38.4635C57.6079 50.1232 55.1039 62.1449 53.7147 74.3488C52.9761 80.984 52.5375 87.4575 51.685 94.1691C51.4272 96.1947 50.9463 98.8033 50.8925 100.794L50.8929 100.795ZM43.6827 99.7727C43.6365 97.9927 44.7318 88.4272 44.9592 85.5385C46.8188 61.8887 48.8239 43.6128 58.1992 22.0047C58.8755 20.4454 63.4939 10.1572 64.2156 9.06881C65.0127 7.8669 66.662 5.48209 68.15 5.58642C68.8533 5.63682 69.6654 6.83575 69.8831 7.60557C70.0389 8.15665 68.1158 12.1526 67.7742 12.9549C67.0198 14.7269 66.2892 16.5102 65.5775 18.3535C57.5687 39.0918 52.6437 57.107 50.6444 80.0688C50.2331 84.7888 49.8134 89.4554 49.1929 94.1002L48.4611 100.181C48.3796 100.76 48.4777 100.512 48.1549 100.759C46.9254 101.7 46.6246 102.062 45.8298 101.311C44.4891 100.043 45.3408 100.056 43.6835 99.7735L43.6827 99.7727ZM41.1229 99.8987C40.6385 99.7378 39.5306 98.5291 39.2143 98.0927C37.0877 95.1624 36.8892 92.8066 36.9392 88.9778C37.0042 83.9987 37.1539 78.9818 37.4593 74.0548C37.9956 64.9072 39.1089 55.8113 40.7913 46.8308C42.4643 38.1052 45.6366 24.8158 48.6723 16.7715C49.3317 15.0107 50.1469 13.3245 51.1072 11.7369C52.7225 9.03206 58.2804 2.37363 61.4777 4.60345C61.8181 4.88447 62.1059 5.23362 62.3263 5.63229C62.6541 6.26829 62.4494 6.50114 62.1898 7.08498C61.7747 8.02057 61.3903 8.77149 60.9803 9.66429L59.8785 12.2461C54.6918 23.4649 50.6486 32.4934 47.8233 45.4322C44.5114 60.6001 43.6769 70.8326 42.4455 85.9034C42.1439 89.5919 41.2175 96.9406 41.1229 99.8987ZM50.7648 4.42453C51.1056 4.59388 50.914 4.50013 51.0818 4.6541C50.7294 5.48562 49.9203 6.46838 49.1163 8.53062C48.9201 9.03458 48.8932 9.56374 48.7239 10.0485C48.637 10.2975 46.7388 15.3027 46.5134 15.5834C46.2218 13.8351 45.8005 12.1564 45.5374 10.3169C45.2646 8.39101 45.1038 6.44805 45.0565 4.49988C44.9515 4.50114 44.7333 4.51122 44.6372 4.49988C44.3967 4.47115 44.5302 4.50114 44.3994 4.42428L42.911 4.53919C42.866 8.23326 43.5877 12.2461 44.3148 15.6555C44.496 16.5044 44.7145 17.3689 44.9299 18.2068C45.2835 19.5824 45.3373 19.2535 44.9238 20.5913C44.6587 21.4498 43.7781 24.7064 43.4657 25.192C42.6117 23.976 40.9336 17.8817 40.4897 15.9276C39.6541 12.388 39.1539 8.76397 38.9981 5.1127C38.7196 5.12127 37.1592 5.54408 36.8676 5.80112C36.9342 9.66454 37.7744 13.8767 38.6104 17.4123C39.7564 22.2567 40.4689 23.2437 41.8707 27.2314C40.9282 27.1969 39.6352 27.024 38.6723 26.8884C37.9337 26.7843 37.4051 25.765 36.888 24.9138C35.9259 23.3585 35.0599 21.7351 34.2951 20.0543C32.3135 15.695 31.9596 12.7816 30.9916 8.32499C30.5177 8.36355 30.2561 8.59387 29.9098 8.78409L29.2108 9.16734C29.1854 9.18473 29.112 9.24294 29.0912 9.25806L28.9839 9.3576C29.4855 14.0858 31.7999 20.4701 34.1193 24.6112C34.4682 25.2348 34.9622 25.8305 35.1996 26.5071C34.2543 26.4595 33.3222 26.338 32.3754 26.2743C31.6983 26.2287 31.5941 26.3408 31.2444 25.9099C30.2153 24.6425 29.0746 22.6971 28.2714 21.1258C27.0361 18.7128 25.5731 14.8567 25.0872 11.8817C24.6706 11.9969 24.3895 12.3305 24.0545 12.6024C23.872 12.7506 23.7462 12.8342 23.5749 12.999C23.417 13.1214 23.2951 13.2913 23.2238 13.4879C23.9461 17.1016 25.8118 21.545 27.6812 24.6399C27.9625 25.1053 28.2779 25.5425 28.5087 25.9648C27.1488 25.9941 25.788 25.9386 24.4338 25.7993C23.962 25.7446 23.9246 25.6135 23.7053 25.3076C22.2779 23.317 19.9775 19.5448 19.3619 17.2739C19.1985 17.38 19.0531 17.5165 18.9326 17.6771C18.7604 17.887 18.7156 17.9641 18.5353 18.164C18.2267 18.5064 17.8322 18.7392 17.7196 19.2475C18.01 19.6431 18.3073 20.4585 18.5376 20.9682C18.7802 21.506 19.09 22.0448 19.3767 22.5779C19.671 23.1257 19.9641 23.6232 20.269 24.1269C20.6113 24.6923 20.9509 25.0937 21.1923 25.6602C18.5974 25.7436 15.9965 25.4082 13.4099 25.5488L8.89089 25.6468C7.39596 25.6397 6.81363 26.0213 5.65959 27.2818C4.04852 29.0405 3.26933 31.2702 4.26757 33.6775C4.42995 33.9709 4.57045 34.2778 4.68767 34.5958C2.42918 34.8012 1.12837 37.8464 2.51181 40.4132C2.80519 40.9578 3.39463 41.8907 3.95207 42.0529C3.57191 42.6728 0.729274 44.378 3.55021 49.4899L4.56141 51.025C4.80835 51.3274 4.79635 51.1606 4.89768 51.5756C3.16846 51.5756 2.16515 51.9355 1.29475 52.9196C-0.0757997 54.469 0.525227 56.868 1.75913 58.6736C2.11195 59.1658 2.52647 59.6014 2.9905 59.9676C3.79004 60.653 5.37198 61.5804 6.36887 61.6715C6.31348 62.3994 4.20986 64.7669 5.71961 66.9698C6.04314 67.4667 6.5156 67.8245 7.05527 67.9812C6.61189 65.1739 8.24235 63.2969 10.137 62.6879C11.1012 62.378 16.165 63.0092 17.4952 63.1688C18.6173 63.3037 30.47 64.8547 31.4475 65.1865C30.1199 65.8867 27.6366 66.6007 26.0567 67.0979C24.2027 67.6813 22.3224 68.1841 20.4128 68.6225C18.8765 68.9753 9.0497 70.8469 8.15533 70.699L8.99615 73.0145C16.1807 72.1224 22.8974 70.7423 29.6429 68.3794L35.7331 66.0034L35.6347 67.1332C34.7114 67.6108 34.9837 67.5326 34.4113 68.308C32.4177 71.0044 28.1552 73.7839 25.3372 75.3803C23.0752 76.6626 15.2449 80.2334 12.5699 81.0109C12.7006 81.4569 12.9051 81.6719 13.1283 82.0571C13.2822 82.3225 13.3173 82.3607 13.466 82.606C13.6945 82.984 13.5228 82.8811 13.8339 83.1256L19.7677 80.6547C24.145 78.8882 29.4686 75.9931 33.0979 72.8389L35.3154 70.838C35.3154 72.2102 35.1253 73.8054 35.0499 75.2124C34.9953 76.2342 35.0961 76.3804 34.5867 76.9898C31.1936 81.0512 29.0227 83.1886 24.4613 86.2424C23.5975 86.8203 22.7031 87.3281 21.7874 87.9123C20.9186 88.4776 20.0158 88.9783 19.0854 89.4104C19.3633 89.9279 20.447 90.767 20.926 91.1564L21.1861 90.9262C21.2173 90.904 21.3604 90.8179 21.3913 90.8006C26.4586 87.8501 28.8557 86.2592 33.2045 82.0197C33.6407 81.5942 34.3355 80.7068 34.8087 80.4094C34.7756 82.2948 34.7568 84.3641 34.6506 86.2323C34.5994 87.1319 33.0144 88.8506 32.4335 89.5541C31.5591 90.5541 30.6281 91.4928 29.6459 92.3647C29.1212 92.8561 27.2727 94.4341 26.5448 94.755C26.7391 94.9767 27.425 95.259 27.7162 95.385C28.1448 95.6059 28.5834 95.8033 29.03 95.9759C29.2735 95.4971 30.1287 94.9658 30.4838 94.655L34.5544 90.5768C34.4705 91.8028 34.4567 93.0338 34.5132 94.2623C34.6467 97.1637 34.5456 96.2006 34.1089 97.6971C34.666 97.9869 34.3067 97.482 34.8322 98.7441C35.6862 100.797 37.8036 102.685 39.8868 102.635C41.2625 102.601 42.0689 101.843 42.5167 101.712C43.2995 105.381 46.8242 105.315 48.852 102.892C48.9613 102.743 49.0932 102.615 49.2421 102.514C50.9752 105.339 54.4125 104.001 56.5546 102.237C56.8747 101.974 57.1247 101.711 57.4394 101.481C57.4417 102.283 57.5641 103.08 57.801 103.839C58.8544 107.175 62.6941 106.323 64.4426 104.079C64.4565 104.061 64.4765 104.035 64.4903 104.016L64.5861 103.89C64.6203 103.846 64.6553 103.804 64.7304 103.704C64.8608 103.532 64.9016 103.469 65.0074 103.317C66.2076 101.585 66.3527 99.9562 66.4962 97.6945C66.4977 95.9083 66.8097 96.0137 66.9655 95.5798L67.1067 94.0229C67.2183 92.119 67.9192 83.0579 68.2639 82.3452C68.3351 82.5245 69.5642 89.1668 70.8068 92.626C71.1299 93.5256 71.8243 94.912 72.0302 95.6785C72.8146 95.6991 73.1974 95.1224 74.0426 94.9389C73.986 94.8234 73.9506 94.697 73.9383 94.5664C73.9383 94.5534 72.6692 91.324 72.4926 90.7834C71.3935 87.4432 69.905 80.4619 69.8023 77.1305L70.4256 78.1267C71.9463 80.9621 73.7806 83.5825 75.8868 85.9299C77.728 87.9707 78.3028 88.2853 80.1359 89.7779L80.4856 90.1215C80.658 89.9648 80.768 89.9107 80.9473 89.7452C81.0958 89.6007 81.2373 89.4482 81.3712 89.2882C81.6809 88.9451 82.0244 88.7792 82.2395 88.3718C81.4578 88.1017 79.2957 86.2172 78.7625 85.6586C76.9582 83.7686 76.1292 82.9534 74.5438 80.6249C74.0787 79.9424 73.759 79.4699 73.3228 78.7458C72.8615 77.9768 71.4092 75.5656 71.1911 74.655C72.471 75.0044 74.1168 75.7054 75.3317 76.2019C76.6605 76.7458 77.91 77.3459 79.2288 77.9192C80.8326 78.6169 86.4378 81.8131 86.6701 81.8668C86.8225 81.5871 87.0045 81.3284 87.2118 81.0949C87.4011 80.8403 87.5388 80.4077 87.8881 80.8286C88.7095 80.8962 89.2123 81.1726 90.2371 81.1726C89.9625 80.6031 88.5941 79.9285 87.9443 79.532C83.866 77.0108 79.5962 74.8776 75.1821 73.1573C74.4338 72.8692 70.0116 71.3429 69.72 71.0758C69.6792 70.1014 70.2247 67.0866 70.4225 65.9702C71.0969 65.9404 76.9682 67.9993 78.082 68.3949C80.5856 69.2845 83.0266 70.1413 85.3829 71.1993C87.1199 71.959 88.8153 72.8272 90.461 73.7991C91.6967 74.5328 91.4801 74.3144 91.7817 75.0015C92.148 75.8356 93.6329 77.2149 93.7045 78.3124C93.7899 79.6291 92.0714 80.3788 91.2624 81.0567C92.1753 81.0567 92.972 80.5896 93.5899 80.2549C94.2038 79.9298 94.7582 79.4858 95.2268 78.9445C95.2406 78.9268 95.2602 78.9 95.2745 78.8819C97.0641 76.5383 95.1129 74.8314 94.6397 74.0586C96.0681 73.2337 96.6998 71.7788 96.5202 69.9405C96.444 69.1559 96.1374 68.9392 96.0058 68.3222C96.8264 68.1505 97.602 67.7825 98.2767 67.2449C100.059 65.8022 99.4089 62.2398 98.5483 60.3838C98.3175 59.8844 98.1221 59.7223 97.8974 59.2591C99.05 58.6543 99.7825 58.3136 100.632 56.852C102.37 53.8633 101.316 49.2337 99.1319 46.6675L97.897 45.284C96.9483 44.7733 97.585 44.6456 96.9118 44.155C96.5244 43.8728 96.1343 43.6279 95.7477 43.365C93.2267 41.6516 92.8789 42.0382 91.6213 41.4462C91.1674 41.2325 90.7607 41.0231 90.3072 40.8147C89.5662 40.4747 88.1509 39.9667 87.5938 39.5063C89.0942 39.3417 96.6263 39.7686 97.687 40.2474C97.6562 39.7921 97.5385 39.4118 97.4819 38.9464C97.4369 38.5321 97.365 38.1216 97.2665 37.7184C92.9416 37.1866 88.5868 37.0105 84.2377 37.1919C82.1314 37.2985 83.2224 37.8373 82.0317 37.3464C80.7441 36.8154 79.2557 36.26 77.9231 35.8495C78.7494 35.028 84.4127 33.5936 86.0731 33.2645C89.4293 32.599 92.228 32.4581 95.6907 32.3472C95.6057 31.9219 95.4749 31.5091 95.301 31.1172C95.2102 30.8876 95.1491 30.7632 95.0625 30.5747C94.9836 30.367 94.8767 30.1737 94.7447 30.0009C89.8821 29.7834 81.0931 31.6046 77.2618 33.5082C77.2168 33.0763 77.7165 31.6205 77.885 31.0991C78.1543 30.2657 78.741 30.0457 79.3392 29.5893C80.4791 28.7393 81.6644 27.9647 82.8889 27.2692C84.7416 26.1831 89.1046 24.2653 91.4867 24.2058C91.3713 24.0442 91.2828 23.8583 91.1743 23.694C91.0104 23.4453 90.9115 23.372 90.7357 23.1368C90.4176 22.7118 90.3156 22.4272 89.9109 22.0579C87.0675 22.6097 84.2623 23.8653 81.7686 25.2456C81.0569 25.6397 79.9716 26.4708 79.3684 26.6906C79.7608 24.622 82.7381 18.4165 83.826 16.1367C84.0688 15.6287 83.8629 15.826 84.2353 15.6167C83.9584 15.2828 83.4109 14.9672 83.1847 14.6301C83.2193 14.1708 83.359 13.82 83.4417 13.3047C83.5236 12.8117 83.5779 12.3138 83.6048 11.8137C82.7308 12.4326 79.49 19.766 78.7317 21.5871C71.36 39.3017 65.6221 76.553 64.6261 96.4887C64.5699 97.6101 64.6084 99.0465 64.5026 100.108C64.4603 100.527 64.4934 100.493 64.176 100.803C64.024 100.946 63.8648 101.079 63.699 101.202C63.3589 101.46 62.9953 101.679 62.6141 101.855C60.7217 102.674 59.009 101.695 58.7751 98.9445C58.7313 98.4266 60.5121 87.5797 60.7394 85.9337C62.541 72.8948 64.0329 60.3229 66.7635 47.4209C68.6921 38.3111 72.5637 21.0096 76.4512 12.904C77.5657 10.5795 77.2295 10.8667 78.3074 10.107C78.4921 9.97723 78.6371 9.83888 78.7852 9.71393C79.1349 9.41934 79.3307 9.22707 79.7254 8.90329C81.9644 7.06911 82.5315 9.4647 83.4986 10.8499C83.464 9.11417 81.4058 4.10778 78.1835 6.41773C77.8431 6.66192 77.5899 6.95873 77.2983 7.17213C76.4535 5.79483 75.3113 4.98544 73.6432 5.24672C73.0027 5.34752 72.788 5.6595 72.2541 5.79533C71.9813 5.17415 71.6662 2.36128 69.2099 2.23529C66.872 2.1156 65.881 2.66518 64.2676 3.84497C63.709 2.57446 63.2416 1.58064 61.9905 0.824179C59.4999 -0.681924 56.4646 0.0364796 54.1998 1.68773C53.3458 2.31089 52.0185 3.45616 51.5519 4.41848L50.7648 4.42453Z" fill="white"/>
</svg>
