<svg width="29" height="34" viewBox="0 0 29 34" fill="none" xmlns="http://www.w3.org/2000/svg">
<path d="M16 32.0111C15.912 32.0332 15.8216 32.0443 15.7309 32.0442H2.50105C2.20626 32.0435 1.92377 31.9266 1.71532 31.7192C1.50688 31.5118 1.38944 31.2307 1.38867 30.9374V29.4981M1.38867 26.5634V12.0091C1.38904 11.1677 1.72384 10.3606 2.32003 9.7639C2.91622 9.16718 3.7254 8.8293 4.57102 8.82397H13.6667C14.5125 8.82892 15.3219 9.16668 15.9181 9.76348C16.5144 10.3603 16.8491 11.1676 16.8491 12.0091V23.8661" stroke="currentColor" stroke-miterlimit="10"/>
<path d="M5.40734 4.97103H12.8265C13.0491 4.97103 13.2625 5.05898 13.4198 5.21554C13.5771 5.37209 13.6655 5.58443 13.6655 5.80583V8.82836H4.56836V5.80583C4.56836 5.58443 4.65675 5.37209 4.81409 5.21554C4.97143 5.05898 5.18483 4.97103 5.40734 4.97103ZM7.70875 1H10.528C10.998 1 11.4487 1.18576 11.781 1.51641C12.1133 1.84707 12.3 2.29553 12.3 2.76314V4.97103H5.93532V2.76314C5.93532 2.53148 5.9812 2.30209 6.07034 2.08809C6.15948 1.87408 6.29014 1.67965 6.45483 1.5159C6.61953 1.35216 6.81505 1.22232 7.0302 1.1338C7.24535 1.04528 7.47593 0.999811 7.70875 1ZM12.3376 1.86358H17.5234C17.8743 1.86472 18.2105 2.00404 18.4585 2.25108C18.7066 2.49812 18.8462 2.8328 18.847 3.18198C18.847 3.28276 18.8067 3.37941 18.7351 3.45066C18.6635 3.52192 18.5664 3.56196 18.4651 3.56196H12.3376V1.86358Z" stroke="currentColor" stroke-miterlimit="10"/>
<path d="M7.07349 15.7889C7.07349 15.296 6.67228 14.8965 6.17737 14.8965C5.68246 14.8965 5.28125 15.296 5.28125 15.7889V17.0727C5.28125 17.5655 5.68246 17.9651 6.17737 17.9651C6.67228 17.9651 7.07349 17.5655 7.07349 17.0727V15.7889Z" stroke="currentColor" stroke-miterlimit="10"/>
<path d="M12.9524 15.7889C12.9524 15.296 12.5512 14.8965 12.0563 14.8965C11.5614 14.8965 11.1602 15.296 11.1602 15.7889V17.0727C11.1602 17.5655 11.5614 17.9651 12.0563 17.9651C12.5512 17.9651 12.9524 17.5655 12.9524 17.0727V15.7889Z" stroke="currentColor" stroke-miterlimit="10"/>
<path d="M10.0129 14.0486C10.0129 13.5558 9.61174 13.1562 9.11682 13.1562C8.62191 13.1562 8.2207 13.5558 8.2207 14.0486V15.3325C8.2207 15.8253 8.62191 16.2248 9.11682 16.2248C9.61174 16.2248 10.0129 15.8253 10.0129 15.3325V14.0486Z" stroke="currentColor" stroke-miterlimit="10"/>
<path d="M11.6602 20.8767L10.6606 19.1495C10.504 18.8799 10.2789 18.6561 10.0078 18.5005C9.7368 18.3449 9.42938 18.2629 9.11645 18.2629C8.80353 18.2629 8.49611 18.3449 8.22506 18.5005C7.95402 18.6561 7.72889 18.8799 7.57229 19.1495L6.57275 20.8767L6.55394 20.9083C6.00571 21.8986 7.09784 22.9593 8.11329 22.4455C8.42458 22.2899 8.7681 22.2089 9.11645 22.2089C9.4648 22.2089 9.80833 22.2899 10.1196 22.4455C11.1322 22.955 12.2272 21.8942 11.679 20.904L11.6602 20.8767Z" stroke="currentColor" stroke-miterlimit="10"/>
<path d="M4.92551 25.6637H13.3153C13.7811 25.6637 13.7811 24.9441 13.3153 24.9441H4.92551C4.45973 24.9441 4.45973 25.6637 4.92551 25.6637ZM6.54416 28.3869H11.6894C12.1552 28.3869 12.1552 27.6673 11.6894 27.6673H6.54416C6.07838 27.6673 6.07838 28.3869 6.54416 28.3869Z" fill="currentColor"/>
<path d="M27.4162 26.4626C27.3224 26.3562 27.2563 26.2284 27.2237 26.0907C27.1912 25.9529 27.1932 25.8092 27.2296 25.6724C27.3007 25.4243 27.3367 25.1676 27.3366 24.9096C27.3366 24.1637 27.0388 23.4483 26.5087 22.9209C25.9787 22.3935 25.2597 22.0972 24.5101 22.0972C24.3822 22.1008 24.255 22.0769 24.1372 22.0273C24.0194 21.9776 23.9137 21.9033 23.8273 21.8093C23.3231 21.2297 22.6611 20.8075 21.9212 20.5936C21.1814 20.3798 20.3951 20.3833 19.6572 20.6039C18.9193 20.8244 18.2612 21.2526 17.7623 21.8367C17.2633 22.4209 16.9448 23.1361 16.845 23.8963C16.8266 24.0375 16.7733 24.1719 16.69 24.2877C16.6068 24.4035 16.496 24.4969 16.3676 24.5598C15.842 24.8174 15.375 25.1795 14.9955 25.6236C14.616 26.0678 14.332 26.5847 14.1611 27.1423C13.9902 27.6999 13.9359 28.2865 14.0017 28.8658C14.0675 29.4451 14.2519 30.0049 14.5436 30.5105C14.8352 31.0161 15.228 31.4569 15.6975 31.8056C16.1671 32.1543 16.7034 32.4036 17.2736 32.538C17.8437 32.6724 18.4355 32.6891 19.0124 32.5871C19.5892 32.4851 20.139 32.2665 20.6276 31.9449C20.7916 31.8344 20.9878 31.7815 21.1854 31.7945C21.3829 31.8076 21.5705 31.8858 21.7183 32.0168C22.4742 32.6861 23.4572 33.0451 24.4688 33.0213C25.4803 32.9975 26.4451 32.5927 27.1684 31.8886C27.8916 31.1844 28.3194 30.2335 28.3654 29.2277C28.4114 28.222 28.0722 27.2363 27.4162 26.4698V26.4626Z" stroke="currentColor" stroke-miterlimit="10"/>
<path d="M26.3865 20.4866C27.3971 20.4866 28.2163 19.6715 28.2163 18.6659C28.2163 17.6604 27.3971 16.8452 26.3865 16.8452C25.3759 16.8452 24.5566 17.6604 24.5566 18.6659C24.5566 19.6715 25.3759 20.4866 26.3865 20.4866Z" stroke="currentColor" stroke-miterlimit="10"/>
<path d="M20.9052 16.969C21.6538 16.969 22.2606 16.3652 22.2606 15.6204C22.2606 14.8755 21.6538 14.2717 20.9052 14.2717C20.1566 14.2717 19.5498 14.8755 19.5498 15.6204C19.5498 16.3652 20.1566 16.969 20.9052 16.969Z" stroke="currentColor" stroke-miterlimit="10"/>
<path d="M1.38912 28.4142C1.60402 28.4142 1.77823 28.2409 1.77823 28.0271C1.77823 27.8132 1.60402 27.6399 1.38912 27.6399C1.17421 27.6399 1 27.8132 1 28.0271C1 28.2409 1.17421 28.4142 1.38912 28.4142Z" fill="currentColor"/>
<path d="M26.2416 28.4014C26.2416 28.9785 26.0111 29.5321 25.601 29.9402C25.1908 30.3483 24.6345 30.5776 24.0544 30.5776H23.7651M12.3376 10.5353H13.6684C13.8323 10.5351 13.9946 10.5671 14.146 10.6293C14.2975 10.6916 14.4351 10.783 14.551 10.8982C14.667 11.0134 14.759 11.1503 14.8217 11.3009C14.8845 11.4515 14.9168 11.613 14.9168 11.776V13.1563M4.56836 7.00903H13.6655" stroke="currentColor" stroke-miterlimit="10"/>
</svg>
