<svg width="54" height="64" viewBox="0 0 54 64" fill="none" xmlns="http://www.w3.org/2000/svg">
<path d="M29.2112 60.8578C29.0429 60.9003 28.87 60.9216 28.6964 60.9215H3.38323C2.8192 60.92 2.2787 60.6953 1.87987 60.2965C1.48105 59.8977 1.25634 59.3572 1.25488 58.7931V56.0255M1.25488 50.3822V22.3954C1.25558 20.7774 1.89617 19.2254 3.03688 18.0779C4.17759 16.9305 5.72583 16.2807 7.34378 16.2705H24.7469C26.3651 16.28 27.9138 16.9295 29.0546 18.0771C30.1955 19.2247 30.8359 20.7772 30.8358 22.3954V45.1955" stroke="currentColor" stroke-miterlimit="10"/>
<path d="M8.94314 8.86161H23.1386C23.5643 8.86161 23.9726 9.03074 24.2737 9.33178C24.5747 9.63283 24.7438 10.0411 24.7438 10.4669V16.279H7.33789V10.4669C7.33789 10.0411 7.50701 9.63283 7.80806 9.33178C8.1091 9.03074 8.5174 8.86161 8.94314 8.86161ZM13.3465 1.22559H18.7407C19.6399 1.22559 20.5023 1.58279 21.1381 2.21861C21.7739 2.85444 22.1311 3.7168 22.1311 4.61599V8.86161H9.95335V4.61599C9.95335 4.17053 10.0411 3.72943 10.2117 3.3179C10.3822 2.90638 10.6322 2.5325 10.9474 2.21764C11.2625 1.90277 11.6366 1.65309 12.0482 1.48287C12.4599 1.31265 12.9011 1.22522 13.3465 1.22559ZM22.2031 2.88619H32.1252C32.7967 2.88839 33.44 3.15628 33.9145 3.63133C34.389 4.10637 34.6562 4.74994 34.6577 5.42139C34.6577 5.61517 34.5807 5.80102 34.4436 5.93805C34.3066 6.07508 34.1208 6.15206 33.927 6.15206H22.2031V2.88619Z" stroke="currentColor" stroke-miterlimit="10"/>
<path d="M12.1313 29.6632C12.1313 28.7155 11.3637 27.9473 10.4167 27.9473C9.46979 27.9473 8.70215 28.7155 8.70215 29.6632V32.132C8.70215 33.0797 9.46979 33.848 10.4167 33.848C11.3637 33.848 12.1313 33.0797 12.1313 32.132V29.6632Z" stroke="currentColor" stroke-miterlimit="10"/>
<path d="M23.3794 29.6632C23.3794 28.7155 22.6117 27.9473 21.6648 27.9473C20.7178 27.9473 19.9502 28.7155 19.9502 29.6632V32.132C19.9502 33.0797 20.7178 33.848 21.6648 33.848C22.6117 33.848 23.3794 33.0797 23.3794 32.132V29.6632Z" stroke="currentColor" stroke-miterlimit="10"/>
<path d="M17.7553 26.3175C17.7553 25.3698 16.9877 24.6016 16.0407 24.6016C15.0938 24.6016 14.3262 25.3698 14.3262 26.3175V28.7863C14.3262 29.734 15.0938 30.5023 16.0407 30.5023C16.9877 30.5023 17.7553 29.734 17.7553 28.7863V26.3175Z" stroke="currentColor" stroke-miterlimit="10"/>
<path d="M20.9081 39.4469L18.9956 36.1257C18.696 35.6073 18.2652 35.1769 17.7466 34.8777C17.228 34.5784 16.6398 34.4209 16.0411 34.4209C15.4423 34.4209 14.8541 34.5784 14.3356 34.8777C13.817 35.1769 13.3862 35.6073 13.0866 36.1257L11.1741 39.4469L11.1381 39.5078C10.0892 41.412 12.1788 43.4517 14.1217 42.4637C14.7173 42.1645 15.3746 42.0087 16.0411 42.0087C16.7076 42.0087 17.3649 42.1645 17.9605 42.4637C19.8978 43.4434 21.993 41.4037 20.944 39.4995L20.9081 39.4469Z" stroke="currentColor" stroke-miterlimit="10"/>
<path d="M8.02191 48.6524H24.0745C24.9656 48.6524 24.9656 47.2686 24.0745 47.2686H8.02191C7.13072 47.2686 7.13072 48.6524 8.02191 48.6524ZM11.1189 53.8888H20.9636C21.8548 53.8888 21.8548 52.505 20.9636 52.505H11.1189C10.2277 52.505 10.2277 53.8888 11.1189 53.8888Z" fill="currentColor"/>
<path d="M51.0541 50.1887C50.8747 49.9841 50.7482 49.7385 50.686 49.4735C50.6237 49.2086 50.6275 48.9324 50.6971 48.6692C50.8333 48.1922 50.9022 47.6985 50.9019 47.2024C50.9019 45.7681 50.3321 44.3925 49.3179 43.3783C48.3037 42.3641 46.9282 41.7943 45.4939 41.7943C45.2491 41.8013 45.0058 41.7554 44.7804 41.6599C44.555 41.5644 44.3528 41.4214 44.1875 41.2408C43.2227 40.1262 41.9562 39.3144 40.5405 38.9031C39.1249 38.4918 37.6205 38.4987 36.2087 38.9228C34.7968 39.3469 33.5377 40.1702 32.583 41.2935C31.6284 42.4168 31.0189 43.7922 30.8279 45.2539C30.7927 45.5254 30.6908 45.7839 30.5315 46.0065C30.3721 46.2292 30.1602 46.4089 29.9146 46.5298C28.9089 47.0252 28.0154 47.7214 27.2893 48.5755C26.5632 49.4296 26.0198 50.4235 25.6928 51.4958C25.3657 52.5681 25.2619 53.696 25.3878 54.81C25.5137 55.9239 25.8665 57.0003 26.4246 57.9726C26.9826 58.9449 27.734 59.7925 28.6324 60.463C29.5308 61.1336 30.5571 61.6129 31.648 61.8714C32.7388 62.1298 33.8711 62.162 34.9748 61.9658C36.0786 61.7696 37.1304 61.3493 38.0654 60.7308C38.3791 60.5183 38.7546 60.4166 39.1326 60.4417C39.5106 60.4667 39.8694 60.6172 40.1523 60.8692C41.5985 62.1562 43.4793 62.8465 45.4148 62.8007C47.3502 62.7549 49.1963 61.9764 50.5801 60.6225C51.9639 59.2685 52.7824 57.4399 52.8704 55.5059C52.9584 53.5719 52.3093 51.6766 51.0541 50.2025V50.1887Z" stroke="currentColor" stroke-miterlimit="10"/>
<path d="M49.0831 38.6975C51.0168 38.6975 52.5843 37.13 52.5843 35.1964C52.5843 33.2628 51.0168 31.6953 49.0831 31.6953C47.1495 31.6953 45.582 33.2628 45.582 35.1964C45.582 37.13 47.1495 38.6975 49.0831 38.6975Z" stroke="currentColor" stroke-miterlimit="10"/>
<path d="M38.5962 31.9327C40.0285 31.9327 41.1896 30.7717 41.1896 29.3394C41.1896 27.9072 40.0285 26.7461 38.5962 26.7461C37.164 26.7461 36.0029 27.9072 36.0029 29.3394C36.0029 30.7717 37.164 31.9327 38.5962 31.9327Z" stroke="currentColor" stroke-miterlimit="10"/>
<path d="M1.25427 53.9412C1.66545 53.9412 1.99878 53.6078 1.99878 53.1967C1.99878 52.7855 1.66545 52.4521 1.25427 52.4521C0.843093 52.4521 0.509766 52.7855 0.509766 53.1967C0.509766 53.6078 0.843093 53.9412 1.25427 53.9412Z" fill="currentColor"/>
<path d="M48.806 53.9163C48.806 55.0262 48.3651 56.0906 47.5804 56.8753C46.7956 57.6601 45.7312 58.101 44.6213 58.101H44.0678M22.2031 19.5611H24.7494C25.0629 19.5607 25.3734 19.6222 25.6632 19.7419C25.953 19.8616 26.2163 20.0373 26.4381 20.2589C26.66 20.4804 26.8359 20.7436 26.956 21.0332C27.0761 21.3228 27.1379 21.6333 27.1379 21.9468V24.601M7.33789 12.7803H24.7438" stroke="currentColor" stroke-miterlimit="10"/>
</svg>
