<svg width="55" height="56" viewBox="0 0 55 56" fill="none" xmlns="http://www.w3.org/2000/svg">
<path d="M7.33932 8.26172C7.33928 9.17992 7.77144 10.9803 5.8811 11.6104C4.32557 12.129 1.92025 12.9787 0.912031 13.3388" stroke="currentColor"/>
<circle cx="1.29628" cy="1.29628" r="1.29628" transform="matrix(-1 0 0 1 20.7881 7.39746)" fill="currentColor"/>
<circle cx="1.29628" cy="1.29628" r="1.29628" transform="matrix(-1 0 0 1 19.4922 35.5908)" fill="currentColor"/>
<path d="M54.3838 42.6668C52.5788 38.0658 47.8934 28.1284 43.3844 24.5896C43.2518 24.4855 43.2176 24.3006 43.3043 24.156C44.9655 21.3873 46.282 17.8949 41.0429 13.2845L31.4289 3.72443C29.3034 1.54711 22.8988 -0.0829037 17.8982 2.46403C17.4798 2.67717 17.1163 2.9817 16.7982 3.32717L12.6399 7.84318C12.3944 8.10973 12.0486 8.26139 11.6863 8.26139H3.66693C2.73072 8.17137 1.05277 8.63947 0.966348 11.232V16.0391C1.18239 17.3353 2.42466 18.1987 3.66693 18.3075C3.46508 18.2899 12.3327 19.5965 16.7917 20.252C18.5201 20.378 22.4521 20.0143 24.3534 17.5514" stroke="currentColor"/>
<path d="M26.7446 12.8024C26.6531 12.5418 26.7902 12.2564 27.0507 12.165C27.3113 12.0735 27.5966 12.2105 27.6881 12.4711L26.7446 12.8024ZM32.2935 22.0887L32.6313 21.7202L32.632 21.7208L32.2935 22.0887ZM27.6881 12.4711C28.0965 13.6341 28.8396 15.5027 29.7358 17.3123C30.6412 19.1406 31.6691 20.8381 32.6313 21.7202L31.9556 22.4573C30.8438 21.4382 29.7473 19.5889 28.8397 17.7561C27.9228 15.9047 27.1644 13.9978 26.7446 12.8024L27.6881 12.4711ZM32.632 21.7208C33.5217 22.5393 34.6461 23.5047 36.282 24.0592C37.9098 24.611 40.094 24.7712 43.1161 23.8777L43.3996 24.8367C40.2103 25.7796 37.8125 25.6338 35.961 25.0063C34.1177 24.3815 32.8656 23.2945 31.9549 22.4567L32.632 21.7208Z" fill="currentColor"/>
<path d="M18.4662 20.252L22.7871 27.4895" stroke="currentColor"/>
<path d="M36.9385 54.6029C36.6504 53.6847 36.1607 51.1138 36.5064 48.1755C37.1113 43.3181 35.3495 31.6135 23.5885 23.2485C23.3946 23.1107 23.1221 23.222 23.0886 23.4576C22.8157 25.3773 22.5342 28.7548 23.1655 30.1357C23.5796 30.9999 24.9155 32.8255 26.9463 33.2143" stroke="currentColor" stroke-linecap="round"/>
<path d="M17.2233 30.2976L17.266 30.7958L17.2575 30.7965L17.2491 30.797L17.2233 30.2976ZM8.63548 38.4534L8.72566 38.9453L8.71482 38.947L8.63548 38.4534ZM6.15095 42.5583L5.6819 42.7314L5.66404 42.6831L5.65642 42.6321L6.15095 42.5583ZM7.44722 46.069L7.91627 45.8958L7.92677 45.9243L7.93376 45.9538L7.44722 46.069ZM10.4719 48.3915L10.5248 47.8943L10.5275 47.8946L10.4719 48.3915ZM17.2233 49.1477L17.279 48.6508L17.2976 48.6529L17.316 48.6563L17.2233 49.1477ZM19.1677 52.1723L19.6367 52.3456L19.626 52.3747L19.6117 52.4022L19.1677 52.1723ZM18.0454 55.4269C17.9184 55.6721 17.6167 55.7679 17.3715 55.641C17.1263 55.514 17.0304 55.2122 17.1574 54.967L18.0454 55.4269ZM11.8958 37.2948L12.395 37.3224L11.8958 37.2948ZM22.9372 30.3097L17.266 30.7958L17.1806 29.7995L22.8518 29.3134L22.9372 30.3097ZM17.2491 30.797C16.5223 30.8344 15.3817 31.192 14.3884 32.1695C13.4052 33.1371 12.5376 34.7414 12.395 37.3224L11.3965 37.2672C11.551 34.4728 12.5028 32.6221 13.687 31.4567C14.861 30.3013 16.2357 29.8479 17.1976 29.7983L17.2491 30.797ZM11.4114 38.4528L8.72564 38.9452L8.54531 37.9616L11.2311 37.4692L11.4114 38.4528ZM8.71482 38.947C8.30984 39.0121 7.69446 39.2647 7.23359 39.8053C6.78806 40.3279 6.44843 41.1643 6.64547 42.4844L5.65642 42.6321C5.42138 41.0572 5.8199 39.9221 6.47261 39.1566C7.10996 38.409 7.9529 38.0567 8.55614 37.9597L8.71482 38.947ZM6.62 42.3851L7.91627 45.8958L6.97818 46.2422L5.6819 42.7314L6.62 42.3851ZM7.93376 45.9538C8.05637 46.4714 8.74298 47.7048 10.5248 47.8943L10.419 48.8887C8.1391 48.6462 7.16215 47.0349 6.96068 46.1842L7.93376 45.9538ZM10.5275 47.8946L17.279 48.6508L17.1677 49.6446L10.4162 48.8884L10.5275 47.8946ZM17.316 48.6563C17.8581 48.7586 18.6382 49.0526 19.1922 49.6387C19.4756 49.9386 19.7035 50.3196 19.7981 50.7874C19.8927 51.2553 19.8471 51.7764 19.6367 52.3456L18.6987 51.999C18.8556 51.5744 18.8699 51.243 18.8179 50.9856C18.7659 50.7281 18.6406 50.5109 18.4655 50.3256C18.1022 49.9413 17.5428 49.7168 17.1306 49.639L17.316 48.6563ZM19.6117 52.4022L18.0454 55.4269L17.1574 54.967L18.7237 51.9424L19.6117 52.4022ZM12.395 37.3224C12.3649 37.8676 11.9737 38.3497 11.4114 38.4528L11.2311 37.4692C11.3139 37.454 11.3905 37.3769 11.3965 37.2672L12.395 37.3224Z" fill="currentColor"/>
</svg>
