<svg width="24" height="25" viewBox="0 0 24 25" fill="none" xmlns="http://www.w3.org/2000/svg">
<path d="M16.6875 4.20508C14.7516 4.20508 13.0566 5.03758 12 6.44477C10.9434 5.03758 9.24844 4.20508 7.3125 4.20508C5.77146 4.20682 4.29404 4.81976 3.20436 5.90944C2.11468 6.99912 1.50174 8.47654 1.5 10.0176C1.5 16.5801 11.2303 21.892 11.6447 22.1113C11.7539 22.1701 11.876 22.2008 12 22.2008C12.124 22.2008 12.2461 22.1701 12.3553 22.1113C12.7697 21.892 22.5 16.5801 22.5 10.0176C22.4983 8.47654 21.8853 6.99912 20.7956 5.90944C19.706 4.81976 18.2285 4.20682 16.6875 4.20508ZM12 20.5926C10.2881 19.5951 3 15.051 3 10.0176C3.00149 8.87429 3.45632 7.77825 4.26475 6.96982C5.07317 6.1614 6.16921 5.70657 7.3125 5.70508C9.13594 5.70508 10.6669 6.67633 11.3062 8.23633C11.3628 8.37389 11.4589 8.49154 11.5824 8.57434C11.7059 8.65714 11.8513 8.70135 12 8.70135C12.1487 8.70135 12.2941 8.65714 12.4176 8.57434C12.5411 8.49154 12.6372 8.37389 12.6937 8.23633C13.3331 6.67352 14.8641 5.70508 16.6875 5.70508C17.8308 5.70657 18.9268 6.1614 19.7353 6.96982C20.5437 7.77825 20.9985 8.87429 21 10.0176C21 15.0435 13.71 19.5941 12 20.5926Z" fill="currentColor"/>
</svg>
