<svg width="68" height="69" viewBox="0 0 68 69" fill="none" xmlns="http://www.w3.org/2000/svg">
<path d="M65.6668 31.5868C65.9807 31.2749 66.1571 30.8519 66.1571 30.4109C66.1571 29.9699 65.9807 29.5469 65.6668 29.235L46.4398 10.1427L46.4719 10.1109L41.8108 5.48242L41.7788 5.51424L41.7467 5.48242L37.0856 10.1109L37.1177 10.1427L17.8908 29.235C17.5768 29.5469 17.4004 29.9699 17.4004 30.4109C17.4004 30.8519 17.5768 31.2749 17.8908 31.5868L20.1892 33.8692C20.5034 34.181 20.9293 34.3562 21.3735 34.3562C21.8176 34.3562 22.2435 34.181 22.5577 33.8692L40.6193 15.934C40.9334 15.6222 41.3594 15.4471 41.8035 15.4471C42.2477 15.4471 42.6736 15.6222 42.9877 15.934L61.0494 33.8692C61.3635 34.181 61.7895 34.3562 62.2336 34.3562C62.6777 34.3562 63.1037 34.181 63.4178 33.8692L65.6668 31.5868Z" stroke="currentColor" stroke-miterlimit="10"/>
<path d="M22.9658 33.4268V51.874C22.9658 52.4402 23.1923 52.9832 23.5955 53.3836C23.9987 53.7839 24.5455 54.0088 25.1157 54.0088H58.4016C58.9718 54.0088 59.5187 53.7839 59.9219 53.3836C60.325 52.9832 60.5516 52.4402 60.5516 51.874V43.5399M60.5516 37.656V33.4296" stroke="currentColor" stroke-miterlimit="10"/>
<path d="M22.9658 46.7508H36.9927M46.5246 46.6843H60.5545M41.7587 40.7715C43.0227 40.7715 44.2349 41.2701 45.1287 42.1576C46.0225 43.0452 46.5246 44.2489 46.5246 45.5041V54.0088H36.9927V45.5041C36.9927 44.2489 37.4949 43.0452 38.3887 42.1576C39.2824 41.2701 40.4947 40.7715 41.7587 40.7715Z" stroke="currentColor" stroke-miterlimit="10"/>
<path d="M60.5542 41.5036C60.9869 41.5036 61.3378 41.1552 61.3378 40.7254C61.3378 40.2957 60.9869 39.9473 60.5542 39.9473C60.1214 39.9473 59.7705 40.2957 59.7705 40.7254C59.7705 41.1552 60.1214 41.5036 60.5542 41.5036Z" fill="currentColor"/>
<path d="M38.4082 26.8828C38.4082 26.0776 37.7508 25.4248 36.9399 25.4248C36.129 25.4248 35.4717 26.0776 35.4717 26.8828V28.9858C35.4717 29.791 36.129 30.4438 36.9399 30.4438C37.7508 30.4438 38.4082 29.791 38.4082 28.9858V26.8828Z" stroke="currentColor" stroke-miterlimit="10"/>
<path d="M48.0419 26.8828C48.0419 26.0776 47.3846 25.4248 46.5737 25.4248C45.7628 25.4248 45.1055 26.0776 45.1055 26.8828V28.9858C45.1055 29.791 45.7628 30.4438 46.5737 30.4438C47.3846 30.4438 48.0419 29.791 48.0419 28.9858V26.8828Z" stroke="currentColor" stroke-miterlimit="10"/>
<path d="M43.2265 24.04C43.2265 23.2348 42.5692 22.582 41.7583 22.582C40.9474 22.582 40.29 23.2348 40.29 24.04V26.143C40.29 26.9482 40.9474 27.601 41.7583 27.601C42.5692 27.601 43.2265 26.9482 43.2265 26.143V24.04Z" stroke="currentColor" stroke-miterlimit="10"/>
<path d="M30.627 25.8213V37.6556M30.627 39.1541V41.5001M45.9269 35.2055L44.2897 32.3879C44.035 31.9448 43.6668 31.5764 43.2225 31.3202C42.7781 31.064 42.2735 30.929 41.7596 30.929C41.2458 30.929 40.7411 31.064 40.2968 31.3202C39.8524 31.5764 39.4842 31.9448 39.2295 32.3879L37.5923 35.2055L37.5632 35.2575C36.663 36.8775 38.4546 38.6131 40.1181 37.78C40.6284 37.5256 41.1915 37.3931 41.7626 37.3931C42.3336 37.3931 42.8967 37.5256 43.407 37.78C45.0705 38.6131 46.8621 36.8775 45.9619 35.2575L45.9269 35.2055Z" stroke="currentColor" stroke-miterlimit="10"/>
<path d="M9.81257 58.5645V58.7067H12.8419C12.9799 58.7057 13.1119 58.6509 13.2095 58.554C13.3071 58.4571 13.3623 58.326 13.3633 58.1889C13.3633 57.8021 13.2085 57.4312 12.9331 57.1576C12.6576 56.8841 12.2841 56.7305 11.8945 56.7305H11.4576" stroke="currentColor" stroke-linecap="round" stroke-linejoin="round"/>
<path d="M10.0404 43.0901C10.3525 43.3198 11.2484 43.9105 12.1958 43.6917C13.5397 43.3927 13.8298 40.5597 13.4222 38.2881" stroke="currentColor" stroke-miterlimit="10"/>
<path d="M8.71204 49.3398C10.9409 50.2696 12.3325 52.3917 12.2003 54.5648C12.1437 55.3436 11.8912 56.0958 11.466 56.7525" stroke="currentColor" stroke-linecap="round" stroke-linejoin="round"/>
<path d="M1.92947 50.8418C1.9523 50.7495 1.99778 50.6642 2.06185 50.5936C2.12592 50.523 2.20658 50.4692 2.29666 50.4371C2.39101 50.4002 2.49341 50.3883 2.59377 50.4026C2.69414 50.417 2.78902 50.457 2.86906 50.5188C2.9491 50.5807 3.01155 50.6621 3.05025 50.7552C3.08896 50.8482 3.10258 50.9497 3.08979 51.0496C2.96046 52.2917 3.10968 53.5469 3.52674 54.725C3.73474 55.3072 4.00689 55.8648 4.33823 56.3876V54.477C4.33644 52.4497 4.86008 50.456 5.85878 48.6878C6.85748 46.9196 8.29763 45.4363 10.0407 44.3808V43.09C9.73772 42.8847 9.49558 42.6027 9.33934 42.2733C9.0983 41.7745 8.98997 41.2228 9.02468 40.6706C9.05939 40.1185 9.23598 39.5844 9.53762 39.1193L10.6098 37.4311C10.9206 36.9653 11.3429 36.5832 11.8389 36.3191C12.3349 36.0551 12.8891 35.9172 13.4518 35.918H15.2878C15.9218 35.918 16.53 36.1673 16.9794 36.6115C17.4287 37.0556 17.6826 37.6584 17.6855 38.288H20.7075C20.81 38.2879 20.9115 38.3084 21.0058 38.3481C21.1002 38.3878 21.1856 38.4459 21.2568 38.5191C21.3281 38.5922 21.3838 38.6789 21.4207 38.7738C21.4575 38.8688 21.4747 38.9702 21.4712 39.0719V39.8012C21.4712 40.4423 21.2148 41.0572 20.7582 41.5105C20.3017 41.9639 19.6824 42.2186 19.0368 42.2186H16.4408L16.2388 42.853V56.847H17.0026C17.3921 56.847 17.7657 57.0007 18.0411 57.2742C18.3166 57.5477 18.4713 57.9187 18.4713 58.3055C18.4675 58.4399 18.4107 58.5675 18.3133 58.6609C18.2158 58.7543 18.0853 58.806 17.9499 58.805L4.33456 58.743V58.342C3.47734 57.6396 2.79184 56.7532 2.32971 55.7495C1.64617 54.2044 1.50521 52.476 1.92947 50.8418Z" stroke="currentColor" stroke-linecap="round" stroke-linejoin="round"/>
<path d="M16.342 37.7627H16.3456C16.5139 37.7627 16.6504 37.8982 16.6504 38.0653V38.5539C16.6504 38.7211 16.5139 38.8565 16.3456 38.8565H16.342C16.1736 38.8565 16.0372 38.7211 16.0372 38.5539V38.0653C16.0372 37.8982 16.1736 37.7627 16.342 37.7627Z" fill="currentColor"/>
<path d="M19.7715 38.3574L21.4238 39.5424" stroke="currentColor" stroke-linejoin="round"/>
</svg>
