<svg width="16" height="16" viewBox="0 0 16 16" fill="none" xmlns="http://www.w3.org/2000/svg">
<path d="M6.85714 5.08467C6.85714 4.85864 6.92417 4.63768 7.04975 4.44974C7.17533 4.26179 7.35382 4.11531 7.56265 4.02881C7.77148 3.94231 8.00127 3.91968 8.22296 3.96378C8.44465 4.00787 8.64829 4.11672 8.80812 4.27655C8.96795 4.43638 9.0768 4.64002 9.1209 4.86171C9.165 5.08341 9.14236 5.3132 9.05586 5.52203C8.96936 5.73086 8.82288 5.90935 8.63494 6.03492C8.447 6.1605 8.22604 6.22753 8 6.22753C7.6969 6.22753 7.40621 6.10712 7.19188 5.8928C6.97755 5.67847 6.85714 5.38778 6.85714 5.08467ZM3.42857 5.08467C3.42857 3.87226 3.9102 2.70949 4.76751 1.85219C5.62482 0.994876 6.78758 0.513245 8 0.513245C9.21242 0.513245 10.3752 0.994876 11.2325 1.85219C12.0898 2.70949 12.5714 3.87226 12.5714 5.08467C12.5714 9.36682 8.45857 11.7661 8.28572 11.8668C8.19936 11.9162 8.10161 11.9421 8.00214 11.9421C7.90267 11.9421 7.80493 11.9162 7.71857 11.8668C7.54143 11.7661 3.42857 9.37039 3.42857 5.08467ZM4.57143 5.08467C4.57143 8.09896 7.13143 10.0997 8 10.6918C8.86786 10.1004 11.4286 8.09896 11.4286 5.08467C11.4286 4.17536 11.0673 3.30329 10.4244 2.66031C9.78139 2.01733 8.90931 1.6561 8 1.6561C7.09069 1.6561 6.21862 2.01733 5.57563 2.66031C4.93265 3.30329 4.57143 4.17536 4.57143 5.08467ZM13.3407 9.91539C13.2001 9.86893 13.0469 9.87889 12.9134 9.94317C12.78 10.0075 12.6767 10.1211 12.6254 10.26C12.5741 10.3989 12.5787 10.5524 12.6384 10.688C12.698 10.8236 12.8079 10.9307 12.945 10.9868C14.1243 11.4232 14.8571 12.0075 14.8571 12.5132C14.8571 13.4675 12.2486 14.799 8 14.799C3.75143 14.799 1.14286 13.4675 1.14286 12.5132C1.14286 12.0075 1.87571 11.4232 3.055 10.9875C3.19208 10.9314 3.30202 10.8243 3.36163 10.6887C3.42125 10.5531 3.42589 10.3997 3.37458 10.2607C3.32326 10.1218 3.22 10.0082 3.08656 9.94389C2.95312 9.8796 2.79993 9.86964 2.65929 9.9161C0.944286 10.5482 0 11.4711 0 12.5132C0 14.7404 4.12214 15.9418 8 15.9418C11.8779 15.9418 16 14.7404 16 12.5132C16 11.4711 15.0557 10.5482 13.3407 9.91539Z" fill="currentColor"/>
</svg>
