<svg width="18" height="15" viewBox="0 0 18 15" fill="none" xmlns="http://www.w3.org/2000/svg">
<path d="M18 7.53027C18 7.72919 17.921 7.91995 17.7803 8.0606C17.6397 8.20126 17.4489 8.28027 17.25 8.28027H0.75C0.551088 8.28027 0.360322 8.20126 0.21967 8.0606C0.0790178 7.91995 0 7.72919 0 7.53027C0 7.33136 0.0790178 7.1406 0.21967 6.99994C0.360322 6.85929 0.551088 6.78027 0.75 6.78027H17.25C17.4489 6.78027 17.6397 6.85929 17.7803 6.99994C17.921 7.1406 18 7.33136 18 7.53027ZM0.75 2.28027H17.25C17.4489 2.28027 17.6397 2.20126 17.7803 2.0606C17.921 1.91995 18 1.72919 18 1.53027C18 1.33136 17.921 1.1406 17.7803 0.999943C17.6397 0.859291 17.4489 0.780273 17.25 0.780273H0.75C0.551088 0.780273 0.360322 0.859291 0.21967 0.999943C0.0790178 1.1406 0 1.33136 0 1.53027C0 1.72919 0.0790178 1.91995 0.21967 2.0606C0.360322 2.20126 0.551088 2.28027 0.75 2.28027ZM17.25 12.7803H0.75C0.551088 12.7803 0.360322 12.8593 0.21967 12.9999C0.0790178 13.1406 0 13.3314 0 13.5303C0 13.7292 0.0790178 13.92 0.21967 14.0606C0.360322 14.2013 0.551088 14.2803 0.75 14.2803H17.25C17.4489 14.2803 17.6397 14.2013 17.7803 14.0606C17.921 13.92 18 13.7292 18 13.5303C18 13.3314 17.921 13.1406 17.7803 12.9999C17.6397 12.8593 17.4489 12.7803 17.25 12.7803Z" fill="currentColor"/>
</svg>
