<svg width="37" height="37" viewBox="0 0 37 37" fill="none" xmlns="http://www.w3.org/2000/svg">
<path d="M31.7488 5.29761C31.7489 5.90497 31.463 7.09589 32.7134 7.51271C33.7424 7.8557 35.3334 8.4178 36.0003 8.65598" stroke="currentColor"/>
<circle cx="23.71" cy="5.58353" r="0.857457" fill="currentColor"/>
<circle cx="24.5674" cy="24.2332" r="0.857457" fill="currentColor"/>
<path d="M0.629883 28.0557C1.82385 25.0122 4.92314 18.4389 7.90571 16.0981C7.99344 16.0292 8.01606 15.9069 7.95869 15.8113C6.85988 13.9798 5.989 11.6697 9.45455 8.62001L15.814 2.29626C17.22 0.856016 21.4565 -0.222198 24.7642 1.46254C25.041 1.60353 25.2815 1.80497 25.4919 2.03349L28.2425 5.02072C28.4049 5.19704 28.6336 5.29736 28.8733 5.29736H34.1779C34.7972 5.23781 35.9071 5.54745 35.9643 7.26237V10.4421C35.8214 11.2996 34.9996 11.8706 34.1779 11.9427C34.3114 11.931 28.4457 12.7952 25.4961 13.2288C24.3529 13.3122 21.7519 13.0716 20.4943 11.4425" stroke="currentColor"/>
<path d="M19.073 8.35706C19.1645 8.09652 19.0275 7.81114 18.7669 7.71965C18.5064 7.62816 18.221 7.7652 18.1295 8.02575L19.073 8.35706ZM15.2429 14.4437L14.905 14.0751L14.9044 14.0757L15.2429 14.4437ZM18.1295 8.02575C17.8613 8.78959 17.3723 10.0191 16.7831 11.2091C16.1846 12.4177 15.5162 13.5149 14.905 14.0751L15.5808 14.8123C16.3415 14.1149 17.0784 12.866 17.6792 11.6529C18.2892 10.4211 18.7934 9.15331 19.073 8.35706L18.1295 8.02575ZM14.9044 14.0757C14.3194 14.6139 13.5972 15.2319 12.5502 15.5868C11.5113 15.9389 10.1027 16.0474 8.13199 15.4648L7.84847 16.4237C9.98645 17.0558 11.6087 16.9618 12.8712 16.5339C14.1256 16.1087 14.9755 15.3691 15.5814 14.8117L14.9044 14.0757Z" fill="currentColor"/>
<path d="M24.3885 13.2285L21.5303 18.016" stroke="currentColor"/>
<path d="M12.1699 35.9514C12.3605 35.344 12.6844 33.6434 12.4557 31.6998C12.0556 28.4868 13.221 20.7444 21.0006 15.2112C21.1289 15.12 21.3091 15.1936 21.3313 15.3495C21.5118 16.6193 21.698 18.8534 21.2804 19.7669C21.0065 20.3385 20.1228 21.5461 18.7795 21.8033" stroke="currentColor" stroke-linecap="round"/>
<path d="M25.2104 19.8743L25.1677 20.3725L25.1761 20.3732L25.1846 20.3736L25.2104 19.8743ZM30.891 25.2691L30.8008 25.761L30.8117 25.7628L30.891 25.2691ZM32.5345 27.9844L33.0035 28.1576L33.0214 28.1092L33.029 28.0582L32.5345 27.9844ZM31.677 30.3067L31.208 30.1335L31.1975 30.1619L31.1905 30.1914L31.677 30.3067ZM29.6763 31.843L29.6234 31.3458L29.6206 31.3461L29.6763 31.843ZM25.2104 32.3431L25.1547 31.8462L25.1361 31.8483L25.1177 31.8518L25.2104 32.3431ZM23.9242 34.3439L23.4552 34.5172L23.4659 34.5463L23.4802 34.5738L23.9242 34.3439ZM24.5163 36.5745C24.6433 36.8197 24.945 36.9156 25.1902 36.7886C25.4354 36.6616 25.5313 36.3599 25.4043 36.1147L24.5163 36.5745ZM29.1144 24.9434L29.2046 24.4516L29.1144 24.9434ZM21.4163 20.0509L25.1677 20.3725L25.2531 19.3761L21.5017 19.0546L21.4163 20.0509ZM25.1846 20.3736C25.6256 20.3963 26.3405 20.6166 26.9669 21.2331C27.5832 21.8397 28.1428 22.8592 28.2352 24.5303L29.2336 24.4752C29.1295 22.5906 28.4856 21.3247 27.6683 20.5204C26.8611 19.7259 25.9122 19.4098 25.2361 19.3749L25.1846 20.3736ZM29.0243 25.4352L30.8009 25.7609L30.9812 24.7773L29.2046 24.4516L29.0243 25.4352ZM30.8117 25.7628C31.046 25.8004 31.4145 25.9507 31.6895 26.2732C31.9492 26.5778 32.1639 27.0804 32.04 27.9106L33.029 28.0582C33.1909 26.9734 32.9173 26.172 32.4505 25.6244C31.999 25.0949 31.4029 24.845 30.9704 24.7755L30.8117 25.7628ZM32.0654 27.8112L31.208 30.1335L32.1461 30.4799L33.0035 28.1576L32.0654 27.8112ZM31.1905 30.1914C31.1227 30.4775 30.7177 31.2293 29.6234 31.3458L29.7292 32.3402C31.3216 32.1707 32.0169 31.0409 32.1636 30.4219L31.1905 30.1914ZM29.6206 31.3461L25.1547 31.8462L25.266 32.84L29.7319 32.3399L29.6206 31.3461ZM25.1177 31.8518C24.7371 31.9236 24.1838 32.1298 23.785 32.5517C23.5792 32.7694 23.4111 33.0492 23.3413 33.3943C23.2715 33.7394 23.307 34.1162 23.4552 34.5172L24.3932 34.1706C24.2984 33.9142 24.2943 33.7271 24.3215 33.5924C24.3487 33.4577 24.4142 33.3418 24.5117 33.2386C24.7197 33.0185 25.0524 32.8818 25.3031 32.8345L25.1177 31.8518ZM23.4802 34.5738L24.5163 36.5745L25.4043 36.1147L24.3682 34.1139L23.4802 34.5738ZM28.2352 24.5303C28.2592 24.9647 28.5712 25.3521 29.0243 25.4352L29.2046 24.4516C29.2165 24.4538 29.225 24.4601 29.229 24.4648C29.2324 24.4688 29.2335 24.4725 29.2336 24.4752L28.2352 24.5303Z" fill="currentColor"/>
</svg>
