<svg width="16" height="17" viewBox="0 0 16 17" fill="none" xmlns="http://www.w3.org/2000/svg">
<path d="M13.8981 10.1313L10.9538 8.81197L10.9456 8.80822C10.7928 8.74284 10.626 8.71661 10.4605 8.73188C10.2949 8.74716 10.1358 8.80347 9.99751 8.89572C9.98122 8.90648 9.96557 8.91816 9.95063 8.93072L8.42938 10.2276C7.46563 9.75947 6.47063 8.77197 6.00251 7.82072L7.30126 6.27635C7.31376 6.26072 7.32563 6.2451 7.33688 6.22822C7.42715 6.09028 7.48192 5.93217 7.49631 5.76795C7.5107 5.60374 7.48428 5.43851 7.41938 5.28697V5.27947L6.09626 2.3301C6.01047 2.13214 5.86296 1.96723 5.67575 1.85999C5.48854 1.75276 5.27166 1.70895 5.05751 1.7351C4.21061 1.84654 3.43324 2.26245 2.87059 2.90516C2.30794 3.54786 1.99847 4.3734 2.00001 5.2276C2.00001 10.1901 6.03751 14.2276 11 14.2276C11.8542 14.2291 12.6797 13.9197 13.3224 13.357C13.9651 12.7944 14.3811 12.017 14.4925 11.1701C14.5187 10.956 14.475 10.7392 14.3679 10.552C14.2607 10.3648 14.096 10.2172 13.8981 10.1313ZM11 13.2276C8.87898 13.2253 6.8455 12.3817 5.34571 10.8819C3.84592 9.3821 3.00232 7.34862 3.00001 5.2276C2.99765 4.61728 3.21754 4.02697 3.61859 3.56691C4.01964 3.10686 4.57444 2.80851 5.17938 2.7276C5.17913 2.73009 5.17913 2.7326 5.17938 2.7351L6.49188 5.6726L5.20001 7.21885C5.18689 7.23393 5.17498 7.25002 5.16438 7.26697C5.07033 7.41129 5.01515 7.57747 5.0042 7.74938C4.99325 7.9213 5.0269 8.09313 5.10188 8.24822C5.66813 9.40635 6.83501 10.5645 8.00563 11.1301C8.16186 11.2044 8.33468 11.2369 8.50722 11.2244C8.67976 11.2119 8.8461 11.1549 8.99001 11.0588C9.00605 11.048 9.02149 11.0364 9.03626 11.0238L10.5556 9.7276L13.4931 11.0432C13.4931 11.0432 13.4981 11.0432 13.5 11.0432C13.4201 11.649 13.1222 12.2049 12.662 12.607C12.2019 13.009 11.611 13.2297 11 13.2276Z" fill="currentColor"/>
</svg>
