<svg width="142" height="142" viewBox="0 0 142 142" fill="none" xmlns="http://www.w3.org/2000/svg">
<path d="M0 0V142H142V0H0ZM103.806 8.32031H114.582V16.6406H103.806V8.32031ZM84.7091 8.32031H95.4853V16.6406H84.7091V8.32031ZM65.6112 8.32031H76.3888V16.6406H65.6112V8.32031ZM46.5147 8.32031H57.2909V16.6406H46.5147V8.32031ZM27.4168 8.32031H38.1944V16.6406H27.4168V8.32031ZM8.32031 8.32031H19.0965V16.6406H8.32031V8.32031ZM19.0965 133.68H8.32031V125.359H19.0965V133.68ZM38.1944 133.68H27.4168V125.359H38.1944V133.68ZM57.2909 133.68H46.5147V125.359H57.2909V133.68ZM76.3888 133.68H65.6112V125.359H76.3888V133.68ZM95.4853 133.68H84.7091V125.359H95.4853V133.68ZM114.583 133.68H103.806V125.359H114.583V133.68ZM133.68 133.68H122.903V125.359H133.68V133.68ZM133.68 117.039H8.32031V24.9609H133.68V117.039ZM133.68 16.6406H122.903V8.32031H133.68V16.6406Z" fill="currentColor"/>
<path d="M58.4502 49.2632V92.7368L96.0996 71L58.4502 49.2632ZM66.7705 63.674L79.459 71L66.7705 78.3258V63.674Z" fill="currentColor"/>
<path d="M125.359 33.2812H16.6406V108.719H125.359V33.2812ZM117.039 100.398H24.9609V41.6016H117.039V100.398Z" fill="currentColor"/>
</svg>
