<svg width="52" height="86" viewBox="0 0 52 86" fill="none" xmlns="http://www.w3.org/2000/svg">
<path d="M29.4771 1.85796L28.6317 2.32822L28.1632 1.48597C28.0008 1.228 27.7456 1.04208 27.4503 0.966483C27.155 0.890883 26.8419 0.931347 26.5755 1.07955C26.3091 1.22775 26.1096 1.47242 26.0181 1.76322C25.9266 2.05402 25.9501 2.36882 26.0836 2.64287L26.5522 3.48512L25.7099 3.95367C25.4519 4.1161 25.266 4.37122 25.1904 4.66655C25.1148 4.96188 25.1553 5.27495 25.3035 5.54135C25.4517 5.80776 25.6964 6.00723 25.9872 6.09873C26.278 6.19023 26.5928 6.1668 26.8668 6.03325L27.7121 5.563L28.1824 6.40831C28.3448 6.66628 28.5999 6.8522 28.8953 6.9278C29.1906 7.0034 29.5037 6.96293 29.7701 6.81473C30.0365 6.66653 30.2359 6.42186 30.3274 6.13106C30.4189 5.84027 30.3955 5.52546 30.262 5.25141L29.7934 4.40916L30.6387 3.93891C30.8967 3.77648 31.0826 3.52136 31.1582 3.22603C31.2338 2.9307 31.1933 2.61763 31.0451 2.35122C30.8969 2.08482 30.6523 1.88535 30.3615 1.79385C30.0707 1.70235 29.7559 1.72578 29.4818 1.85933L29.4771 1.85796ZM49.5117 51.6411L48.6664 52.1113L48.1962 51.266C48.0337 51.008 47.7786 50.8221 47.4833 50.7465C47.188 50.6709 46.8749 50.7114 46.6085 50.8596C46.3421 51.0078 46.1426 51.2525 46.0511 51.5433C45.9596 51.8341 45.983 52.1489 46.1166 52.4229L46.5868 53.2682L45.7446 53.7368C45.4866 53.8992 45.3007 54.1543 45.2251 54.4497C45.1495 54.745 45.19 55.0581 45.3382 55.3245C45.4864 55.5909 45.731 55.7903 46.0218 55.8818C46.3126 55.9733 46.6274 55.9499 46.9015 55.8164L47.7468 55.3461L48.217 56.1914C48.3795 56.4494 48.6346 56.6353 48.9299 56.7109C49.2253 56.7865 49.5383 56.746 49.8047 56.5978C50.0711 56.4496 50.2706 56.205 50.3621 55.9142C50.4536 55.6234 50.4302 55.3086 50.2966 55.0345L49.8264 54.1892L50.6717 53.719C50.9297 53.5565 51.1156 53.3014 51.1912 53.0061C51.2668 52.7107 51.2263 52.3977 51.0781 52.1313C50.9299 51.8649 50.6852 51.6654 50.3944 51.5739C50.1036 51.4824 49.7888 51.5058 49.5148 51.6394L49.5117 51.6411ZM4.76933 80.3618L3.92708 80.8304L3.45683 79.9851C3.2944 79.7271 3.03928 79.5412 2.74395 79.4656C2.44862 79.39 2.13555 79.4304 1.86914 79.5787C1.60274 79.7269 1.40327 79.9715 1.31177 80.2623C1.22027 80.5531 1.2437 80.8679 1.37725 81.142L1.8475 81.9873L1.00219 82.4575C0.744211 82.62 0.558297 82.8751 0.482699 83.1704C0.407099 83.4657 0.447563 83.7788 0.595766 84.0452C0.743968 84.3116 0.98864 84.5111 1.27944 84.6026C1.57023 84.6941 1.88504 84.6707 2.15909 84.5371L3.00133 84.0686L3.47159 84.9139C3.63401 85.1719 3.88914 85.3578 4.18447 85.4334C4.4798 85.509 4.79287 85.4685 5.05927 85.3203C5.32568 85.1721 5.52515 84.9274 5.61665 84.6366C5.70815 84.3458 5.68471 84.031 5.55117 83.757L5.08092 82.9117L5.92623 82.4414C6.1842 82.279 6.37012 82.0239 6.44572 81.7285C6.52132 81.4332 6.48085 81.1201 6.33265 80.8537C6.18445 80.5873 5.93978 80.3879 5.64898 80.2964C5.35818 80.2049 5.04338 80.2283 4.76933 80.3618Z" fill="currentColor"/>
</svg>
