<svg width="58" height="58" viewBox="0 0 58 58" fill="none" xmlns="http://www.w3.org/2000/svg">
<g clip-path="url(#clip0_1430_3425)">
<path d="M48.5631 0.647285C48.7235 0.650696 48.7235 0.650696 48.887 0.654176C48.9962 0.927054 48.9962 0.927054 49.1075 1.20544C48.646 1.80116 48.1812 2.37006 47.6398 2.89456C47.4553 3.07815 47.2855 3.26821 47.1161 3.46564C46.7303 3.9132 46.328 4.34398 45.9239 4.7749C45.4096 5.32365 44.9001 5.87572 44.3998 6.43732C44.2017 6.65659 44.0017 6.87313 43.7994 7.0885C43.7093 7.18483 43.7093 7.18483 43.6173 7.28311C43.4994 7.40888 43.3811 7.53426 43.2623 7.6592C42.9845 7.95602 42.773 8.22463 42.6026 8.59243C42.643 8.64112 42.6834 8.68982 42.725 8.73999C43.4313 9.59206 44.1362 10.4451 44.8214 11.3143C44.8695 11.375 44.9176 11.4357 44.9671 11.4983C45.2649 11.8783 45.5369 12.2675 45.7999 12.6718C46.2809 12.3636 46.7185 12.0262 47.1505 11.652C47.6554 11.2198 48.1653 10.7967 48.6863 10.384C48.9408 10.181 49.1937 9.97647 49.446 9.77076C49.5254 9.70608 49.6047 9.64139 49.6864 9.57475C49.8447 9.44555 50.003 9.31624 50.1611 9.18682C50.234 9.12739 50.3068 9.06797 50.3819 9.00674C50.447 8.95346 50.5122 8.90018 50.5793 8.84529C50.7442 8.71611 50.9178 8.59835 51.0921 8.48217C51.1442 8.14881 51.1442 8.14881 51.138 7.75043C51.1394 7.63773 51.1394 7.63773 51.1409 7.52276C51.1436 7.27391 51.1441 7.02512 51.1446 6.77626C51.1462 6.6038 51.1479 6.43135 51.1498 6.2589C51.1544 5.80454 51.1572 5.35018 51.1595 4.89581C51.1634 4.16805 51.1701 3.44031 51.1769 2.71258C51.1791 2.45771 51.1803 2.20284 51.1815 1.94796C51.1826 1.79261 51.1838 1.63726 51.1849 1.48191C51.1857 1.34572 51.1864 1.20952 51.1871 1.0692C51.2023 0.76443 51.2023 0.76443 51.3126 0.654176C51.6365 0.633504 51.6365 0.633504 51.9741 0.654176C52.2595 0.939536 52.2224 1.05221 52.2231 1.44925C52.2238 1.57106 52.2246 1.69286 52.2254 1.81835C52.2251 1.95261 52.2248 2.08686 52.2245 2.22518C52.2254 2.4415 52.2263 2.65781 52.2272 2.87413C52.2279 3.10709 52.2282 3.34005 52.2282 3.57302C52.2284 4.05859 52.2304 4.54414 52.2327 5.02971C52.2382 6.23618 52.2416 7.44266 52.2439 8.64914C52.2457 9.58594 52.2482 10.5227 52.2531 11.4595C52.2555 11.9419 52.2563 12.4243 52.2561 12.9067C52.2563 13.278 52.2587 13.6493 52.2607 14.0206C52.2602 14.1539 52.2597 14.2873 52.2592 14.4247C52.2615 15.3055 52.2615 15.3055 52.6356 16.0897C53.2253 16.5442 53.6463 16.6539 54.3799 16.6719C54.4526 16.674 54.5252 16.676 54.6001 16.6781C54.9108 16.6868 55.2215 16.6943 55.5322 16.7018C55.7591 16.7075 55.986 16.7138 56.2128 16.7202C56.3487 16.7235 56.4846 16.7269 56.6246 16.7303C56.9355 16.7512 56.9355 16.7512 57.0458 16.8614C57.0664 17.1853 57.0664 17.1853 57.0458 17.523C56.7319 17.8368 56.4232 17.7762 56.0031 17.7775C55.8355 17.7803 55.6679 17.7831 55.5003 17.7859C55.2361 17.7891 54.9719 17.7917 54.7077 17.7938C54.4527 17.7962 54.1977 17.8005 53.9427 17.8051C53.825 17.8051 53.825 17.8051 53.705 17.8051C53.221 17.8147 52.9049 17.8781 52.5254 18.1845C52.2906 18.5497 52.2771 18.8475 52.2766 19.2766C52.2759 19.4106 52.2753 19.5447 52.2745 19.6827C52.2749 19.8316 52.2753 19.9806 52.2756 20.1295C52.2753 20.2875 52.2748 20.4455 52.2742 20.6036C52.2729 21.0383 52.2729 21.4731 52.2732 21.9079C52.2732 22.3766 52.272 22.8452 52.2709 23.3139C52.2692 24.1261 52.2683 24.9384 52.2679 25.7506C52.2672 26.9252 52.2652 28.0998 52.2628 29.2744C52.2588 31.1803 52.2557 33.0863 52.2532 34.9922C52.2531 35.1063 52.2529 35.2204 52.2528 35.338C52.2516 36.264 52.2505 37.1901 52.2493 38.1161C52.2483 38.9259 52.2473 39.7357 52.2462 40.5455C52.246 40.7165 52.246 40.7165 52.2458 40.891C52.2433 42.79 52.24 44.689 52.2361 46.588C52.2337 47.7602 52.2321 48.9324 52.2314 50.1046C52.231 50.9071 52.2297 51.7096 52.2279 52.5121C52.2268 52.9757 52.2262 53.4393 52.2265 53.9029C52.2267 54.3267 52.226 54.7505 52.2244 55.1743C52.224 55.3282 52.224 55.482 52.2244 55.6359C52.2249 55.844 52.2239 56.052 52.2229 56.2601C52.2227 56.4339 52.2227 56.4339 52.2225 56.6113C52.1946 56.8835 52.1946 56.8835 51.9741 57.104C51.6365 57.1246 51.6365 57.1246 51.3126 57.104C51.1196 56.911 51.188 56.6422 51.1875 56.38C51.187 56.2459 51.1865 56.1118 51.186 55.9736C51.1861 55.8229 51.1861 55.6721 51.1861 55.5214C51.1857 55.3628 51.1853 55.2041 51.1849 55.0455C51.1838 54.6075 51.1834 54.1695 51.1831 53.7314C51.1826 53.2598 51.1816 52.7882 51.1806 52.3166C51.1784 51.1764 51.1773 50.0362 51.1763 48.896C51.1759 48.3594 51.1753 47.8228 51.1747 47.2862C51.1728 45.5029 51.1712 43.7196 51.1704 41.9363C51.1702 41.4732 51.17 41.0101 51.1698 40.547C51.1697 40.4319 51.1697 40.3167 51.1696 40.1981C51.1687 38.3336 51.1659 36.4692 51.1623 34.6047C51.1587 32.6915 51.1567 30.7783 51.1564 28.8651C51.1561 27.7905 51.1551 26.7159 51.1523 25.6414C51.1499 24.7261 51.149 23.8108 51.1501 22.8955C51.1506 22.4285 51.1504 21.9615 51.1483 21.4945C51.1463 21.0667 51.1464 20.639 51.1482 20.2113C51.1484 20.0567 51.1479 19.9022 51.1466 19.7476C51.1392 18.8158 51.145 18.0431 51.8236 17.3349C51.8733 17.2878 51.9229 17.2407 51.9741 17.1922C51.8448 16.912 51.6995 16.6708 51.5262 16.4135C51.2433 15.9847 51.188 15.6873 51.1797 15.1849C51.1775 15.068 51.1753 14.951 51.173 14.8305C51.1703 14.6413 51.1703 14.6413 51.1674 14.4484C51.1652 14.3191 51.1629 14.1899 51.1605 14.0567C51.1533 13.6433 51.1468 13.2299 51.1403 12.8165C51.1356 12.5365 51.1307 12.2565 51.1259 11.9765C51.1141 11.2895 51.1028 10.6025 51.0921 9.91547C51.0394 9.95898 50.9868 10.0025 50.9326 10.0473C50.69 10.2478 50.4472 10.4481 50.2045 10.6485C50.1217 10.7169 50.0389 10.7853 49.9537 10.8558C49.45 11.2713 48.9417 11.6796 48.4253 12.0792C47.8051 12.5609 47.2077 13.0648 46.6203 13.5862C46.1541 13.9948 46.1541 13.9948 45.9102 13.9948C45.9033 14.0904 45.8965 14.1859 45.8895 14.2843C45.7497 14.8651 45.4386 15.1927 44.9454 15.5177C44.5599 15.6586 44.2392 15.6883 43.8317 15.6926C43.4807 15.7909 43.3696 16.0231 43.1538 16.3102C41.741 17.5835 39.9382 18.3697 38.0283 18.327C36.8654 18.23 36.1418 17.66 35.2711 16.9489C33.8025 15.7595 31.976 14.9429 30.2813 14.1292C30.1815 14.0809 30.0816 14.0325 29.9788 13.9827C29.7913 13.8925 29.6032 13.8035 29.4143 13.7163C28.7857 13.4134 28.3691 13.0912 28.0491 12.4513C27.9839 11.8247 28.0191 11.3325 28.3799 10.7975C28.8168 10.3481 29.2224 10.2736 29.8132 10.136C28.7116 9.42267 27.5907 8.7692 26.4258 8.1638C26.3263 8.1111 26.2269 8.05841 26.1244 8.00412C25.9914 7.93497 25.9914 7.93497 25.8557 7.86442C25.4822 7.61667 25.323 7.36018 25.1825 6.93863C25.123 6.22495 25.2272 5.87927 25.6235 5.28482C25.5451 5.16885 25.5451 5.16885 25.465 5.05053C25.2007 4.56425 25.1557 4.22457 25.2514 3.67926C25.4587 3.16102 25.7287 2.87366 26.2161 2.60429C27.0006 2.39884 27.4879 2.58751 28.1593 2.9695C28.4568 3.16151 28.7429 3.36726 29.0289 3.57589C29.1941 3.69436 29.3593 3.81265 29.5248 3.93077C29.6089 3.99089 29.693 4.05101 29.7797 4.11295C30.5088 4.62856 31.2543 5.12078 31.9975 5.61558C32.0838 5.67302 32.17 5.73045 32.2588 5.78962C35.3615 7.9281 35.3615 7.9281 38.8539 9.25395C38.8744 9.15844 38.8949 9.06293 38.916 8.96453C39.1567 8.39926 39.5628 8.07377 40.1068 7.79955C40.4452 7.69578 40.6939 7.71429 41.0452 7.74485C41.5233 7.75538 41.5233 7.75538 41.9509 7.57043C42.15 7.37046 42.3214 7.16304 42.4923 6.93863C42.604 6.80927 42.7166 6.68067 42.83 6.55274C42.924 6.44359 42.924 6.44359 43.0199 6.33223C43.3514 5.958 43.6937 5.59426 44.0359 5.2297C44.6239 4.60407 44.6239 4.60407 45.1935 3.96178C45.6273 3.45752 46.0857 2.97613 46.5405 2.49096C47.0139 1.98549 47.4805 1.47485 47.9417 0.958235C48.2138 0.654416 48.2138 0.654416 48.5631 0.647285ZM26.4849 3.6448C26.2559 3.84398 26.2559 3.84398 26.223 4.1754C26.2537 4.52683 26.2537 4.52683 26.5199 4.73967C26.8625 4.97178 27.1529 5.08045 27.5499 5.19395C27.7532 5.25226 27.7532 5.25226 27.9606 5.31174C28.0306 5.33104 28.1005 5.35034 28.1726 5.37023C28.387 5.42961 28.6006 5.49154 28.8142 5.55378C29.5851 5.81476 29.5851 5.81476 30.3644 5.72584C30.3112 5.69038 30.258 5.65492 30.2032 5.61838C30.0441 5.51227 29.8849 5.40614 29.7257 5.3C29.5446 5.17924 29.3633 5.05858 29.182 4.93802C28.7748 4.66711 28.368 4.39579 27.9651 4.11855C27.8496 4.03953 27.734 3.96051 27.615 3.87909C27.5139 3.80917 27.4129 3.73924 27.3088 3.6672C26.9823 3.47746 26.8209 3.47197 26.4849 3.6448ZM26.3677 6.13929C26.147 6.36438 26.147 6.36438 26.1963 6.60787C26.413 7.14632 27.246 7.42158 27.7364 7.67683C29.083 8.38034 30.3274 9.19676 31.4857 10.1824C32.1485 10.7291 32.9065 10.8303 33.7297 10.9599C33.8165 10.974 33.9032 10.9881 33.9926 11.0026C34.267 11.0472 34.5414 11.0913 34.8159 11.1351C35.1798 11.1934 35.5435 11.2521 35.9072 11.3113C35.9911 11.3245 36.0749 11.3377 36.1613 11.3513C36.7467 11.4466 36.7467 11.4466 36.8694 11.5693C36.8739 11.7897 36.8741 12.0103 36.8694 12.2308C36.0543 12.2582 35.3023 12.1535 34.5011 12.0099C34.236 11.9641 33.9709 11.9184 33.7058 11.8727C33.2913 11.8002 32.8769 11.7273 32.4625 11.6541C32.0603 11.5835 31.6579 11.5141 31.2555 11.4448C31.1318 11.4225 31.0081 11.4003 30.8806 11.3773C30.7647 11.3574 30.6487 11.3376 30.5293 11.3171C30.428 11.2992 30.3267 11.2813 30.2223 11.2629C29.8763 11.2347 29.5977 11.2604 29.2619 11.3488C29.015 11.6577 29.015 11.6577 29.0263 11.9987C29.2165 12.5183 29.5712 12.6294 30.0543 12.8579C30.1473 12.9043 30.2402 12.9508 30.3359 12.9987C30.6383 13.1494 30.9422 13.2967 31.2464 13.4436C33.1512 14.3737 34.9395 15.3272 36.6047 16.6482C37.3115 17.1998 37.9606 17.4066 38.8539 17.3025C40.3581 16.9895 41.5053 16.3854 42.6026 15.3179C42.1577 14.7127 41.6927 14.1296 41.2106 13.5538C40.6764 12.9102 40.156 12.2585 39.6533 11.5899C39.598 11.5168 39.5428 11.4437 39.4859 11.3684C39.4093 11.2655 39.4093 11.2655 39.3311 11.1606C39.2867 11.1009 39.2422 11.0412 39.1964 10.9798C39.0744 10.7975 39.0744 10.7975 38.977 10.5654C38.8155 10.2912 38.6944 10.265 38.3918 10.1795C38.2976 10.1512 38.2035 10.1229 38.1064 10.0937C37.9546 10.0498 37.9546 10.0498 37.7996 10.0051C36.4455 9.58491 35.2685 8.9674 34.0648 8.22721C33.1637 7.67571 32.1692 7.38903 31.1573 7.10917C31.0373 7.07554 30.9173 7.0419 30.7936 7.00724C30.5421 6.93692 30.2906 6.86689 30.039 6.79715C29.6529 6.69006 29.2671 6.58185 28.8814 6.47349C28.6363 6.40509 28.3911 6.33676 28.146 6.26849C28.0306 6.23611 27.9152 6.20373 27.7962 6.17037C27.6895 6.14089 27.5827 6.11141 27.4727 6.08104C27.3788 6.05495 27.2849 6.02886 27.1882 6.00198C26.8193 5.91705 26.6729 5.90189 26.3677 6.13929ZM40.0667 9.03344C39.8361 9.32925 39.8361 9.32925 39.736 9.69496C39.8504 10.3036 40.0904 10.6878 40.5008 11.1351C40.6108 11.2598 40.7204 11.3847 40.8299 11.5098C40.8861 11.5738 40.9423 11.6377 41.0002 11.7035C41.2765 12.0247 41.5364 12.3581 41.7963 12.6925C41.8464 12.7566 41.8965 12.8207 41.9481 12.8868C42.046 13.0123 42.1439 13.1379 42.2418 13.2635C42.4554 13.5378 42.6697 13.8115 42.8851 14.0844C42.9534 14.1716 43.0218 14.2587 43.0922 14.3484C43.3612 14.6578 43.4829 14.6562 43.9049 14.6977C44.2904 14.6928 44.3614 14.6603 44.6905 14.4152C44.9247 14.0958 45.0281 13.9473 45.0281 13.5538C44.7871 12.9773 44.4329 12.5389 44.0359 12.0654C43.9071 11.9096 43.7785 11.7537 43.65 11.5977C43.5854 11.5196 43.5209 11.4414 43.4544 11.3609C43.1155 10.9467 42.7869 10.5245 42.4583 10.1022C41.8761 9.25537 41.8761 9.25537 41.059 8.70268C40.5769 8.70268 40.4404 8.74602 40.0667 9.03344Z" fill="currentColor"/>
<path d="M26.7465 22.4981C27.3341 22.8899 27.6833 23.3613 27.8831 24.0335C28.1849 25.8001 27.8548 27.2961 26.8361 28.7688C26.1484 29.6425 25.362 30.3414 24.4734 31.0053C23.8439 31.4887 23.3539 32.051 23.1977 32.8482C23.1877 33.0929 23.1842 33.3378 23.1844 33.5827C23.1844 33.6558 23.1843 33.7289 23.1843 33.8042C23.1843 34.0474 23.1853 34.2906 23.1863 34.5338C23.1867 34.7072 23.1871 34.8806 23.1875 35.054C23.1933 36.9557 23.2279 38.8569 23.2645 40.7582C23.2741 41.2584 23.2832 41.7586 23.2923 42.2588C23.3096 43.2011 23.3272 44.1434 23.345 45.0857C23.3769 46.7761 23.4084 48.4665 23.4395 50.1568C23.4504 50.7473 23.4615 51.3377 23.4727 51.9282C23.4796 52.2959 23.4865 52.6636 23.4933 53.0313C23.4964 53.1997 23.4996 53.368 23.5029 53.5364C23.5116 53.9887 23.5193 54.4409 23.5252 54.8933C23.5275 55.0508 23.5302 55.2083 23.5333 55.3658C23.538 55.6112 23.5412 55.8565 23.5442 56.102C23.5464 56.2466 23.5487 56.3913 23.5511 56.5403C23.5285 56.8834 23.5285 56.8834 23.308 57.1039C22.9703 57.1246 22.9703 57.1246 22.6464 57.1039C22.251 56.7085 22.4022 55.5026 22.3911 54.9639C22.3888 54.8699 22.3865 54.7758 22.3841 54.6789C22.377 54.3825 22.3704 54.086 22.3639 53.7894C22.3592 53.5868 22.3543 53.3842 22.3495 53.1815C22.3378 52.6882 22.3266 52.1949 22.3157 51.7015C22.3026 51.8043 22.2896 51.9071 22.2762 52.013C22.0425 53.7633 21.4225 55.1248 20.3311 56.5113C20.2424 56.6242 20.1538 56.737 20.0624 56.8533C19.7799 57.1039 19.7799 57.1039 19.4284 57.1548C19.1183 57.1039 19.1183 57.1039 18.8978 56.8834C18.9259 56.448 18.9825 56.0301 19.0615 55.6013C19.4373 53.5542 19.3964 51.5188 18.9319 49.4878C18.8826 49.181 18.9297 48.9124 19.0081 48.6144C19.263 48.5455 19.263 48.5455 19.5594 48.5042C20.0411 48.8253 20.0296 49.1737 20.1442 49.7234C20.4265 51.263 20.4707 52.7857 20.4414 54.3476C20.904 53.3876 21.1012 52.5084 21.2132 51.4535C21.5321 48.8222 21.5321 48.8222 22.1015 47.8678C22.2418 47.5362 22.2321 47.2637 22.2308 46.9038C22.2308 46.7943 22.2308 46.7943 22.2308 46.6825C22.2304 46.4353 22.2283 46.188 22.2261 45.9408C22.2253 45.7618 22.2246 45.5829 22.224 45.404C22.2162 43.9004 22.1866 42.397 22.1578 40.8937C22.1355 39.7187 22.1149 38.5436 22.0952 37.3686C22.0921 37.1881 22.0921 37.1881 22.0889 37.0039C22.0775 36.3336 22.0686 35.6633 22.0635 34.993C22.0617 34.7927 22.0591 34.5924 22.0556 34.3921C22.0328 33.0286 22.0658 31.809 23.0608 30.7628C23.4263 30.4227 23.8084 30.1033 24.1917 29.7837C25.3837 28.7877 26.5123 27.7054 26.8361 26.1227C26.7508 26.1157 26.6655 26.1088 26.5777 26.1016C25.8418 26.0151 25.3438 25.8874 24.8102 25.3604C24.5194 24.9871 24.3434 24.5833 24.19 24.1381C24.054 24.194 24.054 24.194 23.9152 24.251C21.8605 25.0719 20.1739 25.1282 18.1223 24.3216C16.0453 23.6199 13.4208 24.1694 11.5021 25.1003C9.57319 26.098 8.35465 27.7119 7.64982 29.7283C7.063 31.7015 7.69287 33.5676 8.31139 35.4424C8.66471 36.5221 8.80493 37.5989 8.42375 38.6916C8.18453 39.1626 7.90517 39.6044 7.58737 40.0263C6.80771 41.081 6.65637 42.2845 6.56322 43.5565C6.22756 48.0935 4.65505 52.5119 2.02904 56.2219C1.941 56.3584 1.941 56.3584 1.85117 56.4976C1.70084 56.7213 1.56379 56.9193 1.36752 57.1039C1.00231 57.166 1.00231 57.166 0.706001 57.1039C0.595747 56.9937 0.595747 56.9937 0.55957 56.7013C0.60484 56.2394 0.797271 55.9712 1.06432 55.6086C3.65549 51.8928 5.01518 47.7891 5.44294 43.2946C5.59763 41.7137 5.8769 40.4067 6.84144 39.1085C7.32742 38.4352 7.62345 37.7544 7.5092 36.9068C7.37824 36.1954 7.1646 35.5177 6.93532 34.8327C6.14237 32.4638 6.04641 30.2481 7.12827 27.9557C7.49088 27.2766 7.90648 26.6915 8.42375 26.1227C8.50902 26.0285 8.59429 25.9343 8.68215 25.8372C10.2476 24.19 12.544 23.1492 14.8217 23.0161C17.8415 22.9581 17.8415 22.9581 19.1183 23.4766C21.039 24.223 22.7191 23.5291 24.5203 22.7499C25.3089 22.4206 25.9093 22.2027 26.7465 22.4981ZM25.4028 23.4766C25.2847 23.8416 25.2846 24.0058 25.4166 24.3724C25.6473 24.7262 25.7852 24.8609 26.1746 25.0202C26.5835 25.0478 26.5835 25.0478 26.9463 25.0202C26.9024 24.3838 26.8315 23.9737 26.3951 23.4766C26.0288 23.3393 25.7711 23.3539 25.4028 23.4766Z" fill="currentColor"/>
<path d="M4.62767 5.90378C4.8132 5.90333 4.99873 5.90274 5.18426 5.90202C5.68632 5.90052 6.18836 5.9011 6.69042 5.90215C7.2168 5.90299 7.74316 5.90221 8.26954 5.90169C9.15334 5.90109 10.0371 5.90188 10.9209 5.90346C11.9415 5.90526 12.9621 5.90467 13.9827 5.90285C14.8603 5.90135 15.7378 5.90114 16.6154 5.902C17.1389 5.90252 17.6625 5.90259 18.1861 5.9015C18.6784 5.90054 19.1706 5.90121 19.663 5.90312C19.8432 5.90355 20.0235 5.90343 20.2037 5.9027C21.364 5.89842 22.345 5.91029 23.2411 6.73256C23.8844 7.48228 24.0833 8.31203 24.081 9.27486C24.0808 9.3742 24.0806 9.47354 24.0804 9.5759C24.0801 9.65165 24.0799 9.7274 24.0797 9.80545C24.162 9.8043 24.2443 9.80314 24.3292 9.80195C24.7008 9.79738 25.0724 9.7945 25.444 9.79167C25.5737 9.78982 25.7033 9.78797 25.8368 9.78607C26.0223 9.785 26.0223 9.785 26.2115 9.78392C26.3258 9.78276 26.4402 9.78161 26.5579 9.78042C26.836 9.80545 26.836 9.80545 27.0565 10.026C27.1092 10.3343 27.1092 10.3343 27.0565 10.6875C26.8522 10.9122 26.6688 11.0812 26.4333 11.2667C26.3025 11.3781 26.1723 11.4901 26.0425 11.6027C25.9748 11.6612 25.9071 11.7197 25.8373 11.7799C24.5667 12.8876 24.5667 12.8876 23.9828 14.415C23.9467 15.0854 23.9942 15.7416 24.0609 16.4087C24.1059 17.2302 23.9196 17.9031 23.3923 18.5353C22.5701 19.383 21.8117 19.6247 20.6401 19.6468C20.317 19.6492 19.994 19.6489 19.6709 19.6483C19.4922 19.6488 19.3136 19.6493 19.1349 19.65C18.6515 19.6515 18.1681 19.6515 17.6847 19.6513C17.2803 19.6511 16.876 19.6517 16.4716 19.6522C15.5171 19.6534 14.5626 19.6535 13.6081 19.6528C12.6253 19.6522 11.6426 19.6535 10.6598 19.6559C9.8143 19.6578 8.96877 19.6585 8.12322 19.6581C7.619 19.6579 7.1148 19.6582 6.61058 19.6597C6.13619 19.6611 5.66183 19.6609 5.18743 19.6595C5.01402 19.6592 4.8406 19.6595 4.66719 19.6604C2.34193 19.6718 2.34193 19.6718 1.49148 18.8807C1.41445 18.812 1.33741 18.7434 1.25805 18.6727C0.71806 18.0203 0.529662 17.4071 0.536852 16.5702C0.535427 16.4339 0.535427 16.4339 0.533974 16.2949C0.531488 15.9971 0.532216 15.6995 0.533218 15.4017C0.53264 15.193 0.531948 14.9843 0.531147 14.7756C0.530002 14.3391 0.5305 13.9027 0.532115 13.4662C0.534008 12.9091 0.531421 12.3521 0.52754 11.7951C0.525109 11.3643 0.525279 10.9336 0.526192 10.5028C0.526281 10.2975 0.525533 10.0923 0.523901 9.887C0.508754 7.63643 0.508754 7.63643 1.33724 6.73085C2.26435 5.82455 3.41698 5.89886 4.62767 5.90378ZM1.99451 7.6624C1.94036 7.72849 1.88621 7.79457 1.83042 7.86266C1.53856 8.25719 1.57015 8.62173 1.56843 9.09448C1.56771 9.18038 1.56698 9.26628 1.56624 9.35478C1.56406 9.6398 1.56278 9.92482 1.56168 10.2099C1.56123 10.3072 1.56078 10.4046 1.56031 10.5049C1.55801 11.0205 1.55644 11.5361 1.5554 12.0517C1.55419 12.5836 1.5504 13.1154 1.54601 13.6473C1.54313 14.0567 1.54221 14.4662 1.54181 14.8757C1.54128 15.0717 1.54 15.2677 1.53795 15.4637C1.53526 15.7387 1.53537 16.0135 1.53613 16.2885C1.53472 16.3689 1.53331 16.4493 1.53185 16.5321C1.53861 17.2023 1.74481 17.6807 2.22147 18.1563C2.31378 18.2181 2.31378 18.2181 2.40796 18.2812C2.46921 18.3241 2.53047 18.367 2.59358 18.4113C3.06699 18.6494 3.56941 18.6399 4.08969 18.6412C4.19876 18.6417 4.19876 18.6417 4.31002 18.6422C4.55282 18.6432 4.79562 18.6433 5.03843 18.6435C5.21287 18.644 5.38731 18.6446 5.56175 18.6452C6.03513 18.6466 6.50851 18.6473 6.98189 18.6478C7.2779 18.6481 7.5739 18.6486 7.86991 18.6491C8.79679 18.6506 9.72367 18.6516 10.6506 18.6521C11.7191 18.6526 12.7877 18.6545 13.8562 18.6577C14.6831 18.6601 15.51 18.6612 16.3369 18.6613C16.8304 18.6615 17.3238 18.6621 17.8172 18.6641C18.2816 18.6659 18.746 18.6661 19.2105 18.6652C19.3804 18.6651 19.5503 18.6655 19.7202 18.6666C21.1645 18.7006 21.1645 18.7006 22.4431 18.1055C22.492 18.0407 22.5409 17.9759 22.5912 17.9091C22.6424 17.8443 22.6936 17.7795 22.7463 17.7127C23.0231 17.2777 22.9885 16.8457 22.9849 16.3509C22.9858 16.1806 22.987 16.0104 22.9883 15.8401C22.9902 15.573 22.9909 15.3061 22.9881 15.0389C22.9719 13.2435 22.9719 13.2435 23.6425 12.5416C23.714 12.4755 23.7855 12.4094 23.8592 12.3413C23.957 12.2389 23.957 12.2389 24.0568 12.1345C24.2417 11.9413 24.4314 11.7549 24.624 11.5695C24.8492 11.351 25.0717 11.131 25.2924 10.908C25.2924 10.8716 25.2924 10.8352 25.2924 10.7977C24.6012 10.7613 23.9099 10.725 23.1976 10.6875C23.0696 10.4314 23.0721 10.2753 23.068 9.99021C23.0654 9.89492 23.0627 9.79962 23.06 9.70144C23.0553 9.50192 23.0519 9.30236 23.0497 9.1028C23.0285 8.4376 22.9256 8.03465 22.5361 7.49013C21.9487 7.03457 21.538 6.92515 20.8053 6.92338C20.7299 6.92305 20.6544 6.92272 20.5767 6.92238C20.3233 6.92142 20.0699 6.92126 19.8165 6.92109C19.635 6.92058 19.4535 6.92003 19.2721 6.91944C18.7787 6.91799 18.2852 6.91728 17.7918 6.91679C17.4836 6.91646 17.1754 6.91601 16.8671 6.91552C15.9029 6.91401 14.9386 6.91295 13.9744 6.91252C12.861 6.91203 11.7478 6.91009 10.6344 6.9069C9.77404 6.90451 8.91363 6.9034 8.05322 6.90325C7.53927 6.90314 7.02533 6.90249 6.51138 6.90052C6.02786 6.8987 5.54437 6.89846 5.06085 6.89943C4.88351 6.89952 4.70617 6.89904 4.52884 6.89795C4.28645 6.89655 4.04415 6.89719 3.80176 6.89834C3.66621 6.89818 3.53065 6.89802 3.39099 6.89785C2.79429 6.96403 2.36815 7.1961 1.99451 7.6624Z" fill="currentColor"/>
<path d="M3.20065 9.72965C3.46251 9.80545 3.46251 9.80545 3.57276 9.9157C3.60475 10.1917 3.63042 10.4657 3.652 10.7426C3.65893 10.8254 3.66585 10.9082 3.67299 10.9935C3.70271 11.3491 3.73127 11.7048 3.75994 12.0605C3.78099 12.3195 3.80262 12.5785 3.82428 12.8374C3.8306 12.9185 3.83692 12.9996 3.84343 13.0831C3.84474 13.4613 3.84474 13.4613 4.01377 13.7746C4.03934 13.7156 4.0649 13.6566 4.09124 13.5959C4.20729 13.3291 4.32414 13.0626 4.44101 12.7961C4.48123 12.7033 4.52145 12.6105 4.56289 12.5148C4.60197 12.426 4.64106 12.3372 4.68132 12.2457C4.71712 12.1637 4.75292 12.0817 4.7898 11.9972C4.8958 11.79 4.8958 11.79 5.11631 11.5695C5.38505 11.5282 5.38505 11.5282 5.66758 11.5695C6.02878 11.9504 6.20319 12.4434 6.4049 12.9201C6.44021 13.0023 6.47553 13.0844 6.51192 13.169C6.59851 13.3707 6.68438 13.5726 6.77011 13.7746C6.91308 13.4886 6.9132 13.252 6.93549 12.9326C6.94459 12.8075 6.95368 12.6823 6.96306 12.5534C6.97215 12.422 6.98125 12.2906 6.99062 12.1552C7.02506 11.6658 7.06106 11.1765 7.10087 10.6875C7.11068 10.5607 7.11068 10.5607 7.12068 10.4314C7.14222 10.2236 7.14222 10.2236 7.21113 9.9157C7.54189 9.69519 7.54189 9.69519 7.8313 9.72965C8.09315 9.80545 8.09315 9.80545 8.20341 9.9157C8.25595 10.7068 8.17949 11.5074 8.11856 12.2961C8.10956 12.4136 8.10055 12.5312 8.09128 12.6523C8.07216 12.8987 8.05278 13.1451 8.03315 13.3914C8.00345 13.7692 7.97584 14.1471 7.94823 14.525C7.92934 14.7651 7.91032 15.0052 7.89117 15.2453C7.87926 15.4148 7.87926 15.4148 7.86711 15.5878C7.8583 15.6924 7.8495 15.7969 7.84043 15.9047C7.82978 16.0425 7.82978 16.0425 7.81891 16.1832C7.75117 16.4678 7.66328 16.5762 7.43163 16.7514C7.16289 16.7674 7.16289 16.7674 6.88036 16.6412C6.70404 16.3697 6.57136 16.1269 6.43935 15.8349C6.40183 15.756 6.36431 15.677 6.32565 15.5957C6.01025 14.9249 5.71875 14.2437 5.44707 13.5541C5.24199 13.8617 5.09823 14.1517 4.94748 14.4882C4.89447 14.6055 4.84146 14.7229 4.78684 14.8437C4.67556 15.0914 4.56445 15.3392 4.4535 15.5871C4.40048 15.7043 4.34747 15.8214 4.29285 15.9422C4.2446 16.0498 4.19635 16.1574 4.14664 16.2682C4.01377 16.5309 4.01377 16.5309 3.79327 16.7514C3.45562 16.7239 3.45562 16.7239 3.13175 16.6412C3.00404 16.3858 2.99192 16.2017 2.96849 15.9172C2.95967 15.8126 2.95085 15.708 2.94176 15.6003C2.93268 15.4867 2.92361 15.3731 2.91425 15.2561C2.90462 15.1391 2.89499 15.0221 2.88506 14.9016C2.86473 14.6532 2.84464 14.4048 2.82475 14.1564C2.79446 13.7791 2.76322 13.402 2.73186 13.0248C2.71221 12.7832 2.69261 12.5415 2.67307 12.2999C2.66377 12.1881 2.65447 12.0764 2.64489 11.9612C2.60388 11.4415 2.56989 10.9217 2.55402 10.4006C2.55102 10.3124 2.54801 10.2242 2.54492 10.1334C2.55666 10.0615 2.56839 9.9897 2.58048 9.9157C2.91124 9.69519 2.91124 9.69519 3.20065 9.72965Z" fill="currentColor"/>
<path d="M14.0671 26.998C15.2475 27.444 16.0409 28.5336 16.5573 29.6368C17.0853 30.9838 17.0466 32.5666 16.4979 33.9027C16.0756 34.7366 15.5044 35.414 14.5977 35.715C13.3138 35.8771 12.3632 35.6946 11.2901 34.9432C10.678 34.3941 10.0294 33.728 9.93262 32.8759C9.96707 32.6279 9.96707 32.6279 10.1876 32.4074C10.4512 32.3604 10.4512 32.3604 10.7388 32.4074C10.9576 32.6369 10.9576 32.6369 11.1523 32.938C11.2177 33.0364 11.2831 33.1349 11.3504 33.2364C11.5106 33.5099 11.5106 33.5099 11.6209 33.8407C11.8206 33.9607 11.8206 33.9607 12.0619 34.0612C12.1429 34.1081 12.2239 34.155 12.3074 34.2033C13.0421 34.6125 13.6624 34.7806 14.4883 34.5508C15.1201 34.265 15.3418 33.6831 15.59 33.0689C15.9127 32.1008 15.8508 30.678 15.3975 29.7682C15.3519 29.6931 15.3062 29.6181 15.2592 29.5408C15.2125 29.4635 15.1657 29.3861 15.1175 29.3065C14.7603 28.781 14.3347 28.4328 13.81 28.0786C13.5541 27.8389 13.5193 27.6812 13.4952 27.3357C13.6589 27.0628 13.7486 27.0071 14.0671 26.998Z" fill="currentColor"/>
<path d="M11.2285 9.66748C11.9011 9.99557 12.1156 11.2211 12.353 11.8967C12.3888 11.9981 12.4246 12.0996 12.4616 12.2042C12.5365 12.4172 12.6113 12.6303 12.6858 12.8435C12.7994 13.1675 12.9146 13.491 13.0298 13.8145C13.1029 14.0227 13.1759 14.2311 13.2488 14.4394C13.283 14.5349 13.3173 14.6303 13.3525 14.7287C13.5526 15.3074 13.747 15.9111 13.7161 16.5308C13.6433 16.6035 13.5706 16.6763 13.4956 16.7513C13.151 16.7099 13.151 16.7099 12.8341 16.641C12.6865 16.2416 12.5397 15.8418 12.3931 15.442C12.351 15.3282 12.3089 15.2143 12.2656 15.097C12.2258 14.9883 12.186 14.8796 12.145 14.7676C12.108 14.6671 12.0711 14.5666 12.033 14.4631C11.952 14.2154 11.952 14.2154 11.952 13.9949C11.4427 14.0313 10.9333 14.0677 10.4085 14.1052C10.1174 14.942 9.82635 15.7788 9.52646 16.641C9.19901 16.6956 9.19901 16.6956 8.86494 16.7513C8.68694 16.5232 8.68694 16.5232 8.53418 16.2C8.59396 15.8437 8.59396 15.8437 8.73617 15.4394C8.76118 15.3662 8.7862 15.293 8.81197 15.2176C8.89405 14.9792 8.97933 14.7421 9.06477 14.5049C9.12197 14.3412 9.17896 14.1774 9.23575 14.0136C9.3501 13.6848 9.46569 13.3565 9.58229 13.0285C9.73058 12.6102 9.87309 12.1902 10.0136 11.7692C10.09 11.5418 10.1666 11.3144 10.2431 11.087C10.2776 10.983 10.3121 10.8791 10.3477 10.772C10.3803 10.6773 10.4128 10.5825 10.4464 10.4849C10.4739 10.4036 10.5014 10.3222 10.5297 10.2384C10.6927 9.88947 10.8389 9.70744 11.2285 9.66748ZM11.07 11.9001C10.9609 12.264 10.8517 12.6278 10.7392 13.0026C11.0303 13.0026 11.3214 13.0026 11.6213 13.0026C11.4757 12.6388 11.3302 12.275 11.1803 11.9001C11.1439 11.9001 11.1075 11.9001 11.07 11.9001Z" fill="currentColor"/>
<path d="M13.1714 44.5146C13.4953 44.5353 13.4953 44.5353 13.6055 44.6456C13.6521 45.1578 13.572 45.5686 13.4401 46.0651C13.0269 47.7892 13.3498 49.2816 13.9014 50.9361C15.4655 55.6586 15.4655 55.6586 14.9294 56.9208C14.8927 56.9813 14.8561 57.0418 14.8183 57.1042C14.5013 57.1249 14.5013 57.1249 14.1568 57.1042C13.9247 56.7561 13.8988 56.6164 13.8618 56.2119C13.8504 56.0993 13.8391 55.9867 13.8274 55.8708C13.8156 55.7503 13.8037 55.6297 13.7916 55.5055C13.605 53.8043 13.1861 52.235 12.6193 50.6238C12.2959 49.6963 12.1292 48.8272 12.1309 47.8429C12.1309 47.7433 12.1309 47.6437 12.1309 47.5411C12.1804 44.5753 12.1804 44.5753 13.1714 44.5146Z" fill="currentColor"/>
<path d="M17.4704 9.6647C17.6045 9.66313 17.6045 9.66313 17.7413 9.66152C17.8855 9.66167 17.8855 9.66167 18.0327 9.66182C18.1317 9.66135 18.2308 9.66088 18.3329 9.66039C18.5423 9.65976 18.7518 9.6597 18.9612 9.66018C19.2821 9.66053 19.6029 9.65794 19.9238 9.65515C20.1272 9.6549 20.3306 9.65482 20.534 9.65493C20.6782 9.65341 20.6782 9.65341 20.8253 9.65186C20.9148 9.65254 21.0042 9.65323 21.0963 9.65394C21.2141 9.65383 21.2141 9.65383 21.3344 9.65373C21.6075 9.70761 21.7088 9.80515 21.8743 10.0257C21.8279 10.5132 21.8279 10.5132 21.6538 10.6873C21.3382 10.6953 21.0253 10.6975 20.7097 10.6942C20.6208 10.6937 20.5319 10.6932 20.4404 10.6927C20.2201 10.6913 19.9998 10.6894 19.7795 10.6873C19.7802 10.7584 19.7809 10.8294 19.7817 10.9027C19.789 11.6413 19.794 12.3799 19.7977 13.1186C19.7993 13.3944 19.8016 13.6702 19.8044 13.946C19.8084 14.342 19.8103 14.738 19.8118 15.134C19.8135 15.2577 19.8152 15.3814 19.817 15.5089C19.817 15.6236 19.817 15.7384 19.817 15.8566C19.8178 15.9577 19.8185 16.0588 19.8193 16.163C19.7795 16.4204 19.7795 16.4204 19.6298 16.6228C19.4487 16.7512 19.4487 16.7512 19.1593 16.7236C18.8975 16.641 18.8975 16.641 18.7872 16.5307C18.7769 16.348 18.7743 16.1648 18.7747 15.9818C18.7747 15.8648 18.7747 15.7478 18.7747 15.6273C18.7753 15.5 18.7758 15.3728 18.7764 15.2417C18.7766 15.1121 18.7767 14.9826 18.7769 14.8491C18.7775 14.4334 18.7789 14.0178 18.7803 13.6021C18.7809 13.3211 18.7814 13.0401 18.7818 12.759C18.783 12.0684 18.7849 11.3779 18.7872 10.6873C18.1323 10.6873 17.4774 10.6873 16.8026 10.6873C16.7663 10.4326 16.7299 10.1779 16.6924 9.91549C17.0273 9.69219 17.0942 9.66714 17.4704 9.6647Z" fill="currentColor"/>
<path d="M15.218 9.72283C15.4798 9.80552 15.4798 9.80552 15.5901 9.91578C15.6016 10.1209 15.6054 10.3266 15.6061 10.5321C15.6068 10.6638 15.6075 10.7955 15.6082 10.9312C15.6084 11.0746 15.6085 11.2181 15.6086 11.3659C15.609 11.5135 15.6093 11.6611 15.6097 11.8088C15.6104 12.1186 15.6106 12.4285 15.6105 12.7383C15.6105 13.1359 15.612 13.5335 15.6139 13.931C15.6151 14.2361 15.6154 14.5411 15.6153 14.8461C15.6155 15.0642 15.6167 15.2822 15.6179 15.5002C15.6176 15.6323 15.6172 15.7644 15.6169 15.9004C15.617 16.0171 15.6172 16.1338 15.6174 16.2541C15.5901 16.531 15.5901 16.531 15.3696 16.7515C15.094 16.7791 15.094 16.7791 14.8183 16.7515C14.526 16.4592 14.5694 16.3222 14.5675 15.9141C14.5665 15.7849 14.5654 15.6558 14.5644 15.5227C14.5645 15.3826 14.5646 15.2425 14.5647 15.0981C14.5642 14.9548 14.5637 14.8115 14.5632 14.6639C14.5624 14.3604 14.5624 14.0568 14.563 13.7533C14.5637 13.3642 14.5618 12.9752 14.5592 12.5862C14.5572 12.2153 14.5576 11.8444 14.5578 11.4735C14.5567 11.3337 14.5557 11.1938 14.5547 11.0496C14.5554 10.9201 14.5561 10.7906 14.5568 10.6572C14.5567 10.5431 14.5566 10.4289 14.5566 10.3113C14.5978 10.026 14.5978 10.026 14.7477 9.81948C14.9286 9.69527 14.9286 9.69527 15.218 9.72283Z" fill="currentColor"/>
<path d="M19.4634 25.9163C19.8975 26.1995 20.2071 26.5356 20.4419 27.0051C20.498 27.525 20.5129 27.9656 20.2765 28.4384C19.9122 28.7298 19.5801 28.8599 19.1188 28.8794C18.5788 28.8002 18.1573 28.6346 17.7958 28.2179C17.4412 27.686 17.3679 27.1902 17.465 26.5641C17.8969 25.7586 18.6337 25.6177 19.4634 25.9163ZM18.5675 26.7846C18.4728 27.0374 18.4728 27.0374 18.4573 27.3358C18.6249 27.6045 18.6249 27.6045 18.8983 27.7769C19.1925 27.8138 19.1925 27.8138 19.4496 27.7769C19.4957 27.5199 19.4957 27.5199 19.4496 27.2256C19.2043 26.9613 19.2043 26.9613 18.8983 26.7846C18.7892 26.7846 18.68 26.7846 18.5675 26.7846Z" fill="currentColor"/>
</g>
<defs>
<clipPath id="clip0_1430_3425">
<rect width="56.4498" height="56.4498" fill="white" transform="translate(0.595703 0.654297)"/>
</clipPath>
</defs>
</svg>
