<svg width="64" height="47" viewBox="0 0 64 47" fill="none" xmlns="http://www.w3.org/2000/svg">
<path d="M61.4933 23.1389C61.4367 18.7957 59.765 14.6292 56.8041 11.4512C53.5124 7.90528 48.8503 5.86187 44.0129 5.84549L39.2041 5.8291H39.2028C39.0996 5.8291 39.0006 5.86999 38.9275 5.94281C38.8544 6.01563 38.8131 6.11446 38.8127 6.21765L38.7383 27.9662L3.12381 27.8442C3.019 27.852 2.92095 27.8848 2.84761 27.9574C2.81123 27.9935 2.78233 28.0364 2.76256 28.0837C2.74279 28.131 2.73254 28.1818 2.73239 28.233L2.70899 35.0819C2.70882 35.1331 2.71874 35.1839 2.73818 35.2313C2.75763 35.2786 2.78622 35.3217 2.82233 35.3581C2.85843 35.3944 2.90134 35.4233 2.94861 35.4431C2.99587 35.4628 3.04657 35.4731 3.0978 35.4733L61.0631 35.6715H61.0644C61.1676 35.6713 61.2666 35.6304 61.3397 35.5575C61.4128 35.4846 61.4541 35.3858 61.4546 35.2826L61.4949 23.4474C61.4954 23.3423 61.4956 23.2404 61.4933 23.1389ZM60.7146 23.4445L60.6756 34.8899L3.49051 34.6946L3.51132 28.626L39.1258 28.7477H39.1271C39.2304 28.7477 39.3294 28.7068 39.4026 28.6338C39.4757 28.5609 39.5169 28.4619 39.5172 28.3587L39.5916 6.61011L44.0103 6.62519C48.6321 6.6408 53.0866 8.59318 56.2322 11.9817C59.131 15.0925 60.734 19.1918 60.7146 23.4437V23.4445Z" fill="currentColor"/>
<path d="M38.551 1.90485C38.2178 1.56714 37.8209 1.2989 37.3832 1.11569C36.9456 0.932473 36.476 0.837917 36.0015 0.837499L6.43616 0.736329C5.46634 0.735549 4.56387 1.1059 3.87962 1.78625C3.54235 2.11989 3.27454 2.51704 3.09165 2.95478C2.90876 3.39251 2.81442 3.86215 2.81409 4.33655L2.78574 12.6702C2.78557 12.7214 2.79549 12.7721 2.81494 12.8195C2.83438 12.8669 2.86298 12.91 2.89908 12.9464C2.93518 12.9827 2.97809 13.0116 3.02536 13.0314C3.07263 13.0511 3.12332 13.0614 3.17455 13.0616H3.17585C3.27909 13.0616 3.37812 13.0206 3.45124 12.9478C3.52437 12.8749 3.56562 12.776 3.56596 12.6728L3.59431 4.33941C3.59449 3.9674 3.66843 3.59912 3.81187 3.25587C3.9553 2.91262 4.16537 2.60123 4.42994 2.33969C4.69167 2.07796 5.00255 1.87053 5.3447 1.72932C5.68685 1.5881 6.05353 1.51588 6.42367 1.51682H6.43356L35.9989 1.61799C36.3708 1.61827 36.7388 1.69234 37.0818 1.83592C37.4248 1.97949 37.7359 2.18971 37.9971 2.45439C38.2598 2.71776 38.4677 3.03061 38.6088 3.37483C38.7498 3.71906 38.8213 4.08783 38.8189 4.45983L38.7383 27.9654L3.51395 27.845L3.55374 16.2605C3.55391 16.2093 3.54399 16.1585 3.52454 16.1111C3.5051 16.0637 3.4765 16.0206 3.4404 15.9843C3.4043 15.9479 3.36139 15.919 3.31412 15.8993C3.26685 15.8795 3.21616 15.8693 3.16493 15.8691H3.16363C3.06039 15.8691 2.96136 15.91 2.88824 15.9829C2.81511 16.0558 2.77386 16.1547 2.77352 16.2579L2.73242 28.2323C2.73215 28.3358 2.77297 28.4352 2.84592 28.5086C2.91887 28.5821 3.01798 28.6235 3.1215 28.624L39.1261 28.747H39.1274C39.2306 28.747 39.3296 28.7061 39.4028 28.6332C39.4759 28.5603 39.5171 28.4614 39.5175 28.3582L39.5991 4.46243C39.6021 3.98802 39.5109 3.51774 39.331 3.07875C39.1511 2.63977 38.886 2.24078 38.551 1.90485Z" fill="currentColor"/>
<path d="M62.7253 35.4056C62.5649 35.2432 62.3738 35.1142 62.1632 35.0261C61.9526 34.9381 61.7266 34.8926 61.4983 34.8924L2.66738 34.6914H2.6614C2.43417 34.6908 2.20906 34.7352 1.99899 34.8218C1.78892 34.9084 1.59802 35.0356 1.43723 35.1962C1.27474 35.3566 1.1457 35.5477 1.05758 35.7583C0.969452 35.9689 0.923995 36.1949 0.923839 36.4233C0.920458 37.3814 1.69756 38.1634 2.65568 38.1668L30.8421 38.2633H30.8434C30.9469 38.2635 31.0462 38.2225 31.1195 38.1495C31.1928 38.0764 31.234 37.9773 31.2342 37.8738C31.2344 37.7704 31.1934 37.6711 31.1204 37.5978C31.0474 37.5245 30.9482 37.4832 30.8447 37.4831L2.65828 37.3866C2.40444 37.3854 2.16143 37.2836 1.98254 37.1035C1.80366 36.9234 1.70351 36.6797 1.70407 36.4259C1.70417 36.3001 1.7292 36.1755 1.77773 36.0595C1.82625 35.9434 1.8973 35.8381 1.98677 35.7497C2.07539 35.6612 2.1806 35.5911 2.29637 35.5434C2.41214 35.4957 2.53619 35.4713 2.6614 35.4716H2.66504L61.4959 35.6727C61.7516 35.6735 61.9916 35.7741 62.1721 35.9554C62.2609 36.0444 62.3312 36.1501 62.3789 36.2664C62.4267 36.3828 62.4509 36.5074 62.4501 36.6331C62.45 36.7589 62.425 36.8835 62.3765 36.9995C62.328 37.1156 62.2569 37.2209 62.1674 37.3093C62.0788 37.3978 61.9736 37.4679 61.8578 37.5156C61.7421 37.5633 61.618 37.5877 61.4928 37.5874H61.4892L34.5162 37.495H34.5149C34.4115 37.4949 34.3122 37.5358 34.2389 37.6088C34.1656 37.6819 34.1243 37.781 34.1242 37.8845C34.124 37.988 34.1649 38.0872 34.238 38.1605C34.311 38.2338 34.4102 38.2751 34.5136 38.2753L61.4866 38.3676H61.4925C61.7198 38.3681 61.9449 38.3238 62.155 38.2372C62.365 38.1506 62.5559 38.0233 62.7167 37.8628C62.8792 37.7024 63.0082 37.5113 63.0964 37.3007C63.1845 37.0901 63.23 36.8641 63.2301 36.6357C63.2315 36.4075 63.1875 36.1813 63.1009 35.9701C63.0142 35.759 62.8866 35.5671 62.7253 35.4056Z" fill="currentColor"/>
<path d="M18.3601 30.6104C14.3978 30.5969 11.1747 33.7979 11.1612 37.7604C11.1477 41.7226 14.3489 44.9458 18.3112 44.9593C22.2734 44.9728 25.4965 41.7718 25.5101 37.8093C25.5233 33.847 22.3223 30.6239 18.3601 30.6104Z" fill="currentColor"/>
<path d="M18.3611 30.2207H18.3348C14.1762 30.2207 10.7851 33.5973 10.7706 37.7593C10.7562 41.9303 14.138 45.3352 18.3091 45.3496H18.3359C20.3463 45.3496 22.2386 44.5698 23.6656 43.1522C25.0994 41.7283 25.8926 39.8313 25.8997 37.8107C25.914 33.6399 22.5322 30.235 18.3611 30.2207ZM23.1161 42.599C21.8357 43.8705 20.1392 44.5696 18.3356 44.5696H18.3117C14.571 44.5568 11.538 41.503 11.5508 37.7621C11.5638 34.029 14.6048 31.0009 18.3351 31.0009H18.3585C22.0992 31.0137 25.1322 34.0677 25.1194 37.8084C25.1135 39.6206 24.4016 41.3218 23.1161 42.599Z" fill="currentColor"/>
<path d="M18.3465 34.6074C16.5918 34.6015 15.1642 36.0191 15.1582 37.7739C15.1522 39.5286 16.5699 40.9561 18.3249 40.9621C20.0796 40.9681 21.5072 39.5504 21.5132 37.7957C21.5189 36.0407 20.1012 34.6134 18.3465 34.6074Z" fill="#FEFCFB"/>
<path d="M18.3483 34.2178H18.3358C17.8692 34.2166 17.407 34.3075 16.9756 34.4853C16.5442 34.6631 16.1522 34.9243 15.8219 35.2539C15.4885 35.5833 15.2237 35.9755 15.0429 36.4079C14.8621 36.8403 14.7689 37.3043 14.7686 37.773C14.7657 38.2417 14.8558 38.7063 15.0336 39.14C15.2115 39.5737 15.4736 39.9677 15.8048 40.2994C16.1341 40.6328 16.5263 40.8976 16.9587 41.0785C17.391 41.2593 17.8549 41.3526 18.3236 41.353H18.3358C20.2973 41.353 21.8965 39.7605 21.9035 37.7977C21.9103 35.8303 20.3153 34.2243 18.3483 34.2178ZM18.3361 40.5725H18.3265C17.9603 40.5722 17.5978 40.4993 17.26 40.358C16.9222 40.2167 16.6158 40.0098 16.3585 39.7493C16.0997 39.4902 15.895 39.1823 15.7561 38.8435C15.6171 38.5048 15.5468 38.1418 15.5491 37.7756C15.5494 37.4095 15.6223 37.047 15.7635 36.7092C15.9048 36.3714 16.1116 36.065 16.372 35.8076C16.6299 35.55 16.9362 35.3459 17.2733 35.2069C17.6103 35.068 17.9715 34.997 18.3361 34.998H18.346C19.8827 35.0032 21.1288 36.2578 21.1238 37.7949C21.1181 39.3285 19.8687 40.5725 18.3361 40.5725Z" fill="currentColor"/>
<path d="M54.6979 39.6083C55.6485 35.7617 53.3008 31.8728 49.4542 30.9222C45.6076 29.9716 41.7187 32.3193 40.7681 36.1659C39.8175 40.0126 42.1652 43.9015 46.0118 44.8521C49.8584 45.8026 53.7473 43.4549 54.6979 39.6083Z" fill="currentColor"/>
<path d="M47.7576 30.3213H47.7311C43.5725 30.3213 40.1816 33.6976 40.167 37.8598C40.1527 42.0309 43.5348 45.4358 47.7058 45.4504H47.7321C51.891 45.4504 55.2818 42.0738 55.2961 37.9116C55.3104 33.7402 51.9287 30.3353 47.7576 30.3213ZM47.7318 44.6699H47.7084C43.9675 44.6572 40.9345 41.6034 40.9473 37.8624C40.9603 34.1293 44.0011 31.1015 47.7313 31.1015H47.755C51.4957 31.1143 54.5287 34.1681 54.5159 37.909C54.5034 41.6418 51.4624 44.6702 47.7318 44.6699Z" fill="currentColor"/>
<path d="M47.743 34.708C45.9882 34.702 44.5607 36.1197 44.5547 37.8744C44.5487 39.6292 45.9664 41.0567 47.7211 41.0627C49.4758 41.0687 50.9034 39.651 50.9094 37.8963C50.9156 36.1416 49.498 34.714 47.743 34.708Z" fill="#FEFCFB"/>
<path d="M47.7438 34.3176C46.7932 34.3062 45.8939 34.6823 45.2177 35.3538C44.8842 35.6831 44.6194 36.0753 44.4386 36.5076C44.2577 36.94 44.1644 37.4039 44.1641 37.8726C44.1612 38.3413 44.2512 38.8059 44.4291 39.2395C44.607 39.6731 44.8691 40.0671 45.2003 40.3987C45.5296 40.7322 45.9218 40.997 46.3542 41.1778C46.7865 41.3586 47.2504 41.4519 47.7191 41.4523H47.7316C49.6931 41.4523 51.292 39.8601 51.299 37.8971C51.3061 35.9301 49.711 34.3244 47.7438 34.3176ZM47.7318 40.6723H47.722C47.3558 40.672 46.9933 40.5991 46.6555 40.4578C46.3177 40.3166 46.0113 40.1097 45.754 39.8492C45.4953 39.59 45.2905 39.2822 45.1516 38.9434C45.0127 38.6046 44.9423 38.2416 44.9446 37.8755C44.9449 37.5093 45.0178 37.1466 45.1591 36.8088C45.3004 36.471 45.5073 36.1645 45.7678 35.9072C46.0257 35.6496 46.3319 35.4455 46.6689 35.3066C47.0059 35.1676 47.3671 35.0966 47.7316 35.0976H47.7415C49.2783 35.1028 50.5243 36.3574 50.5193 37.8942C50.5139 39.4284 49.2645 40.6726 47.7318 40.6723Z" fill="currentColor"/>
<path d="M56.804 11.4509C56.7676 11.4118 56.7236 11.3806 56.6746 11.3592C56.6257 11.3377 56.5729 11.3266 56.5195 11.3263L45.344 11.2881H45.3367C44.3251 11.2881 43.5004 12.0189 43.4972 12.9203L43.4668 21.8357C43.4637 22.7392 44.2873 23.477 45.3027 23.4804L61.1023 23.5345H61.1036C61.1553 23.5345 61.2064 23.5243 61.2541 23.5043C61.3018 23.4844 61.3451 23.4551 61.3814 23.4183C61.4177 23.3815 61.4463 23.3379 61.4656 23.2899C61.4848 23.2419 61.4944 23.1906 61.4937 23.1389C61.437 18.7956 59.7652 14.6289 56.804 11.4509ZM45.305 22.7002C44.7201 22.6984 44.2455 22.3116 44.247 21.8386L44.2775 12.9232C44.2793 12.4511 44.7539 12.0686 45.3367 12.0686H45.3417L56.3465 12.1063C59.0141 15.0271 60.558 18.8002 60.703 22.7533L45.305 22.7002Z" fill="currentColor"/>
<path d="M28.8864 7.17843C26.8547 5.13294 24.1483 4.00109 21.2652 3.99121H21.2272C18.3588 3.99121 15.6592 5.10381 13.6228 7.12642C11.5773 9.15813 10.4455 11.8645 10.4356 14.7474C10.4257 17.6303 11.5391 20.3445 13.5708 22.39C15.6023 24.4355 18.3089 25.5676 21.1918 25.5772L21.2298 25.5775C24.0984 25.5775 26.7983 24.4649 28.8346 22.4423C30.8801 20.4108 32.012 17.7042 32.0219 14.8213C32.0315 11.9383 30.9181 9.22393 28.8864 7.17843ZM28.2846 21.8886C26.3951 23.765 23.8909 24.7972 21.2295 24.797H21.1942C18.5198 24.7879 16.0088 23.7377 14.1243 21.8402C12.2395 19.9424 11.2067 17.4246 11.2158 14.75C11.2249 12.0754 12.2749 9.56463 14.1726 7.67986C16.0621 5.80342 18.5661 4.77118 21.2274 4.77118L21.2628 4.77144C23.9374 4.78054 26.4482 5.83072 28.3332 7.72849C30.2177 9.626 31.2507 12.1443 31.2416 14.8187C31.2323 17.493 30.1824 20.0041 28.2846 21.8886Z" fill="currentColor"/>
<path d="M18.3092 11.6039C18.3092 10.882 17.7245 10.2969 17.0032 10.2969C16.282 10.2969 15.6973 10.882 15.6973 11.6039V13.4843C15.6973 14.2061 16.282 14.7913 17.0032 14.7913C17.7245 14.7913 18.3092 14.2061 18.3092 13.4843V11.6039Z" stroke="currentColor" stroke-miterlimit="10"/>
<path d="M26.8765 11.6039C26.8765 10.882 26.2919 10.2969 25.5706 10.2969C24.8493 10.2969 24.2646 10.882 24.2646 11.6039V13.4843C24.2646 14.2061 24.8493 14.7913 25.5706 14.7913C26.2919 14.7913 26.8765 14.2061 26.8765 13.4843V11.6039Z" stroke="currentColor" stroke-miterlimit="10"/>
<path d="M22.5924 9.05505C22.5924 8.33321 22.0077 7.74805 21.2864 7.74805C20.5652 7.74805 19.9805 8.33321 19.9805 9.05505V10.9355C19.9805 11.6573 20.5652 12.2425 21.2864 12.2425C22.0077 12.2425 22.5924 11.6573 22.5924 10.9355V9.05505Z" stroke="currentColor" stroke-miterlimit="10"/>
<path d="M24.9942 19.0557L23.5375 16.526C23.3093 16.1312 22.9812 15.8034 22.5862 15.5754C22.1912 15.3475 21.7432 15.2275 21.2871 15.2275C20.8311 15.2275 20.3831 15.3475 19.9881 15.5754C19.5931 15.8034 19.265 16.1312 19.0368 16.526L17.5801 19.0557L17.5527 19.1021C16.7537 20.5525 18.3453 22.1061 19.8252 21.3535C20.2788 21.1256 20.7795 21.007 21.2871 21.007C21.7948 21.007 22.2954 21.1256 22.7491 21.3535C24.2247 22.0998 25.8205 20.5461 25.0216 19.0958L24.9942 19.0557Z" stroke="currentColor" stroke-miterlimit="10"/>
</svg>
