<svg width="16" height="17" viewBox="0 0 16 17" fill="none" xmlns="http://www.w3.org/2000/svg">
<path fill-rule="evenodd" clip-rule="evenodd" d="M11.6659 9.82319C11.4662 9.72338 10.4876 9.24241 10.3054 9.17543C10.1231 9.10911 9.99051 9.07628 9.85721 9.27591C9.72457 9.47419 9.34342 9.92301 9.22753 10.0556C9.11097 10.1889 8.99508 10.205 8.79613 10.1059C8.59717 10.0054 7.95543 9.79573 7.19513 9.11782C6.60363 8.58996 6.20371 7.93817 6.08782 7.73854C5.97193 7.53959 6.0751 7.43174 6.17491 7.3326C6.26467 7.24351 6.37386 7.10015 6.47367 6.98426C6.57348 6.86771 6.60631 6.78464 6.67262 6.65134C6.73961 6.5187 6.70612 6.40281 6.65588 6.303C6.60631 6.20319 6.2084 5.22316 6.04227 4.82459C5.88083 4.43673 5.71671 4.48965 5.5948 4.48295C5.47824 4.47759 5.3456 4.47625 5.21297 4.47625C5.08033 4.47625 4.86463 4.52582 4.68243 4.72545C4.49955 4.9244 3.98576 5.40604 3.98576 6.38607C3.98576 7.36542 4.6985 8.31196 4.79831 8.44526C4.89813 8.5779 6.2017 10.5889 8.1986 11.451C8.67421 11.656 9.04465 11.7786 9.33337 11.8697C9.81032 12.0217 10.2444 12.0003 10.5874 11.9487C10.9692 11.8918 11.765 11.4671 11.9311 11.0022C12.0966 10.5373 12.0966 10.1387 12.047 10.0556C11.9975 9.97258 11.8648 9.92301 11.6652 9.82319H11.6659ZM8.03381 14.7823H8.03113C6.84507 14.7825 5.68079 14.4637 4.66032 13.8592L4.41916 13.7158L1.91249 14.3737L2.5817 11.93L2.42428 11.6794C1.76119 10.6239 1.41028 9.40236 1.4121 8.15588C1.41344 4.50506 4.38366 1.53483 8.03649 1.53483C9.80496 1.53483 11.4676 2.2248 12.7176 3.47613C13.3341 4.09012 13.8228 4.82028 14.1553 5.62435C14.4878 6.42842 14.6576 7.29045 14.6549 8.16056C14.6535 11.8114 11.6833 14.7823 8.03381 14.7823ZM13.6688 2.52558C12.9307 1.78263 12.0525 1.19356 11.0851 0.792477C10.1178 0.391398 9.08038 0.186295 8.03314 0.189053C3.64278 0.189053 0.0683272 3.76284 0.0669875 8.15521C0.0649531 9.55307 0.43165 10.9267 1.13008 12.1376L0 16.2661L4.22289 15.1581C5.39107 15.7945 6.70015 16.128 8.03046 16.1281H8.03381C12.4242 16.1281 15.9986 12.5543 16 8.16123C16.0032 7.1144 15.7988 6.07732 15.3987 5.10998C14.9986 4.14263 14.4106 3.26423 13.6688 2.52558Z" fill="currentColor"/>
</svg>
